<?xml version="1.0" encoding="utf-8"?>
<svg viewBox="10.1756 40 799.6489 494" xmlns="http://www.w3.org/2000/svg">
  <g transform="matrix(0.10000000149011612, 0, 0, -0.10000000149011612, 0, 574)" fill="#000000" stroke="none">
    <path d="M143 5320 c-60 -36 -53 -126 11 -156 79 -38 159 37 126 117 -13 31 -55 59 -87 59 -10 0 -32 -9 -50 -20z"/>
    <path d="M342 5315 c-27 -22 -32 -34 -32 -70 0 -36 5 -48 32 -70 26 -22 39 -26 67 -21 21 3 45 16 59 31 47 55 14 140 -59 151 -28 5 -41 1 -67 -21z"/>
    <path d="M561 5326 c-13 -7 -30 -24 -37 -37 -51 -92 72 -183 146 -109 43 43 32 118 -21 145 -34 18 -57 18 -88 1z"/>
    <path d="M749 5311 c-56 -56 -27 -145 52 -157 28 -5 41 -1 67 21 27 22 32 34 32 70 0 36 -5 48 -31 69 -41 35 -83 34 -120 -3z"/>
    <path d="M969 5325 c-52 -28 -61 -103 -19 -145 29 -29 67 -35 106 -16 64 30 71 120 11 156 -38 23 -62 24 -98 5z"/>
    <path d="M1184 5330 c-84 -34 -64 -162 27 -176 30 -5 42 -1 69 23 45 40 45 95 1 135 -32 29 -59 34 -97 18z"/>
    <path d="M1369 5312 c-26 -23 -33 -37 -33 -67 0 -30 7 -44 33 -67 28 -25 39 -29 70 -24 21 3 45 16 59 31 47 55 14 140 -59 151 -31 5 -42 1 -70 -24z"/>
    <path d="M1594 5330 c-54 -22 -71 -99 -31 -145 33 -39 85 -44 124 -11 39 33 48 67 28 110 -23 48 -71 67 -121 46z"/>
    <path d="M1780 5313 c-26 -23 -32 -36 -32 -68 0 -32 6 -45 32 -68 27 -24 39 -28 69 -23 21 3 45 16 59 31 47 55 14 140 -59 151 -30 5 -42 1 -69 -23z"/>
    <path d="M1993 5320 c-60 -36 -53 -126 11 -156 79 -38 159 37 126 117 -13 31 -55 59 -87 59 -10 0 -32 -9 -50 -20z"/>
    <path d="M2191 5314 c-26 -21 -31 -33 -31 -69 0 -36 5 -48 31 -69 41 -35 83 -34 120 3 21 22 29 39 29 66 0 27 -8 44 -29 66 -37 37 -79 38 -120 3z"/>
    <path d="M2411 5326 c-13 -7 -30 -24 -37 -37 -51 -92 72 -183 146 -109 43 43 32 118 -21 145 -34 18 -57 18 -88 1z"/>
    <path d="M2624 5330 c-84 -33 -64 -162 27 -176 28 -5 41 -1 67 21 27 22 32 34 32 70 0 36 -5 48 -31 69 -31 27 -58 31 -95 16z"/>
    <path d="M2821 5327 c-27 -16 -50 -53 -51 -80 0 -32 28 -74 59 -87 91 -37 173 71 109 145 -28 31 -83 41 -117 22z"/>
    <path d="M3034 5330 c-84 -34 -64 -162 27 -176 30 -5 42 -1 69 23 45 40 45 95 1 135 -32 29 -59 34 -97 18z"/>
    <path d="M3219 5312 c-26 -23 -33 -37 -33 -67 0 -30 7 -44 33 -67 28 -25 39 -29 70 -24 21 3 45 16 59 31 47 55 14 140 -59 151 -31 5 -42 1 -70 -24z"/>
    <path d="M3444 5330 c-53 -21 -70 -96 -34 -143 42 -53 125 -43 155 19 38 79 -38 158 -121 124z"/>
    <path d="M3632 5315 c-27 -22 -32 -34 -32 -70 0 -36 5 -48 32 -70 26 -22 39 -26 67 -21 21 3 45 16 59 31 47 55 14 140 -59 151 -28 5 -41 1 -67 -21z"/>
    <path d="M3851 5326 c-13 -7 -30 -24 -37 -37 -51 -92 72 -183 146 -109 43 43 32 118 -21 145 -34 18 -57 18 -88 1z"/>
    <path d="M4039 5311 c-21 -22 -29 -39 -29 -66 0 -48 44 -95 90 -95 46 0 90 47 90 95 0 48 -44 95 -90 95 -22 0 -41 -9 -61 -29z"/>
    <path d="M4261 5326 c-13 -7 -30 -24 -37 -37 -51 -92 72 -183 146 -109 43 43 32 118 -21 145 -34 18 -57 18 -88 1z"/>
    <path d="M4474 5330 c-84 -33 -64 -162 27 -176 28 -5 41 -1 67 21 27 22 32 34 32 70 0 36 -5 48 -31 69 -31 27 -58 31 -95 16z"/>
    <path d="M4675 5328 c-47 -28 -62 -75 -40 -122 42 -89 175 -58 175 40 0 64 -82 114 -135 82z"/>
    <path d="M4884 5330 c-84 -34 -64 -162 27 -176 31 -5 42 -1 70 24 46 41 47 92 1 133 -33 29 -60 35 -98 19z"/>
    <path d="M5070 5313 c-26 -23 -32 -36 -32 -68 0 -32 6 -45 32 -68 27 -24 39 -28 69 -23 21 3 45 16 59 31 47 55 14 140 -59 151 -30 5 -42 1 -69 -23z"/>
    <path d="M5294 5330 c-78 -31 -66 -157 17 -175 56 -13 119 35 119 89 0 66 -73 112 -136 86z"/>
    <path d="M5482 5315 c-27 -22 -32 -34 -32 -70 0 -36 5 -48 32 -70 26 -22 39 -26 67 -21 21 3 45 16 59 31 47 55 14 140 -59 151 -28 5 -41 1 -67 -21z"/>
    <path d="M5701 5326 c-13 -7 -30 -24 -37 -37 -51 -92 72 -183 146 -109 43 43 32 118 -21 145 -34 18 -57 18 -88 1z"/>
    <path d="M5889 5311 c-21 -22 -29 -39 -29 -66 0 -27 8 -44 29 -66 37 -37 79 -38 120 -3 26 21 31 33 31 69 0 36 -5 48 -31 69 -41 35 -83 34 -120 -3z"/>
    <path d="M6109 5325 c-52 -28 -61 -103 -19 -145 29 -29 67 -35 106 -16 64 30 71 120 11 156 -38 23 -62 24 -98 5z"/>
    <path d="M6324 5330 c-84 -34 -64 -162 27 -176 30 -5 42 -1 69 23 45 40 45 95 1 135 -32 29 -59 34 -97 18z"/>
    <path d="M6525 5328 c-47 -28 -62 -75 -40 -122 42 -89 175 -58 175 40 0 64 -82 114 -135 82z"/>
    <path d="M6734 5330 c-84 -34 -64 -162 27 -176 31 -5 42 -1 70 24 46 41 47 92 1 133 -33 29 -60 35 -98 19z"/>
    <path d="M6920 5313 c-26 -23 -32 -36 -32 -68 0 -32 6 -45 32 -68 27 -24 39 -28 69 -23 21 3 45 16 59 31 47 55 14 140 -59 151 -30 5 -42 1 -69 -23z"/>
    <path d="M7133 5320 c-60 -36 -53 -126 11 -156 79 -38 159 37 126 117 -13 31 -55 59 -87 59 -10 0 -32 -9 -50 -20z"/>
    <path d="M7332 5315 c-27 -22 -32 -34 -32 -70 0 -36 5 -48 32 -70 26 -22 39 -26 67 -21 21 3 45 16 59 31 47 55 14 140 -59 151 -28 5 -41 1 -67 -21z"/>
    <path d="M7551 5326 c-13 -7 -30 -24 -37 -37 -51 -92 72 -183 146 -109 43 43 32 118 -21 145 -34 18 -57 18 -88 1z"/>
    <path d="M7764 5330 c-84 -33 -64 -162 27 -176 28 -5 41 -1 67 21 27 22 32 34 32 70 0 36 -5 48 -31 69 -31 27 -58 31 -95 16z"/>
    <path d="M7959 5325 c-52 -28 -61 -103 -19 -145 29 -29 67 -35 106 -16 64 30 71 120 11 156 -38 23 -62 24 -98 5z"/>
    <path d="M154 5116 c-35 -16 -58 -61 -49 -99 18 -68 108 -94 152 -42 65 75 -12 181 -103 141z"/>
    <path d="M364 5120 c-31 -12 -54 -49 -54 -88 0 -99 151 -114 176 -17 10 40 -4 74 -39 95 -35 22 -50 23 -83 10z"/>
    <path d="M575 5121 c-61 -26 -79 -102 -33 -147 56 -56 149 -19 151 60 2 60 -65 109 -118 87z"/>
    <path d="M768 5115 c-49 -27 -60 -72 -33 -125 27 -53 115 -57 150 -7 53 76 -37 176 -117 132z"/>
    <path d="M990 5123 c-38 -14 -60 -47 -60 -88 0 -111 154 -119 176 -9 5 26 1 37 -23 62 -28 32 -66 46 -93 35z"/>
    <path d="M1181 5116 c-27 -15 -50 -52 -51 -79 -1 -83 117 -122 165 -54 51 73 -37 177 -114 133z"/>
    <path d="M1394 5120 c-56 -22 -72 -103 -29 -145 23 -24 39 -29 80 -26 26 3 75 56 75 82 0 32 -26 74 -55 87 -30 14 -42 14 -71 2z"/>
    <path d="M1595 5116 c-31 -13 -55 -51 -55 -86 0 -26 49 -78 75 -81 41 -3 57 2 80 26 69 68 -11 181 -100 141z"/>
    <path d="M1804 5120 c-73 -29 -70 -142 3 -167 58 -20 123 23 123 82 0 29 -28 71 -55 83 -30 14 -42 14 -71 2z"/>
    <path d="M2015 5121 c-93 -39 -69 -173 30 -173 106 0 119 154 15 176 -14 3 -34 1 -45 -3z"/>
    <path d="M2208 5114 c-84 -45 -54 -164 42 -164 97 0 126 120 40 165 -36 18 -47 18 -82 -1z"/>
    <path d="M2425 5121 c-92 -39 -69 -173 30 -173 79 0 119 93 65 147 -29 27 -66 38 -95 26z"/>
    <path d="M2613 5111 c-77 -48 -44 -161 47 -161 80 0 119 85 68 144 -32 36 -75 42 -115 17z"/>
    <path d="M2840 5123 c-61 -22 -80 -99 -37 -148 45 -53 137 -25 152 46 9 39 -17 84 -56 98 -35 12 -37 12 -59 4z"/>
    <path d="M3029 5115 c-32 -17 -54 -66 -45 -100 8 -31 40 -62 71 -67 31 -6 81 15 94 41 42 78 -44 169 -120 126z"/>
    <path d="M3244 5120 c-47 -19 -68 -85 -43 -131 13 -26 63 -47 94 -41 31 5 63 36 71 67 9 35 -14 83 -47 100 -31 17 -44 18 -75 5z"/>
    <path d="M3445 5116 c-31 -13 -55 -51 -55 -86 0 -11 12 -33 28 -49 59 -64 152 -29 152 57 0 66 -64 106 -125 78z"/>
    <path d="M3654 5120 c-73 -29 -70 -142 3 -167 101 -34 170 103 80 157 -35 22 -50 23 -83 10z"/>
    <path d="M3865 5121 c-93 -39 -69 -173 30 -173 106 0 119 154 15 176 -14 3 -34 1 -45 -3z"/>
    <path d="M4058 5114 c-84 -45 -54 -164 42 -164 97 0 126 120 40 165 -36 18 -47 18 -82 -1z"/>
    <path d="M4275 5121 c-60 -25 -77 -104 -32 -148 55 -55 151 -16 151 62 0 59 -67 108 -119 86z"/>
    <path d="M4463 5111 c-62 -39 -50 -141 20 -159 63 -17 117 22 117 85 0 70 -77 111 -137 74z"/>
    <path d="M4690 5123 c-62 -23 -81 -103 -35 -148 23 -24 39 -29 80 -26 26 3 75 56 75 82 0 36 -28 76 -61 88 -35 12 -37 12 -59 4z"/>
    <path d="M4879 5115 c-32 -17 -54 -66 -45 -100 8 -31 40 -62 71 -67 31 -6 81 15 94 41 42 78 -44 169 -120 126z"/>
    <path d="M5094 5120 c-47 -19 -68 -85 -43 -131 13 -26 63 -47 94 -41 31 5 63 36 71 67 9 35 -14 83 -47 100 -31 17 -44 18 -75 5z"/>
    <path d="M5294 5116 c-35 -16 -58 -61 -49 -99 18 -68 108 -94 152 -42 65 75 -12 181 -103 141z"/>
    <path d="M5504 5120 c-49 -20 -70 -93 -39 -137 35 -50 123 -46 150 7 28 54 15 99 -35 125 -32 17 -45 18 -76 5z"/>
    <path d="M5715 5121 c-93 -39 -69 -173 30 -173 51 0 87 36 87 87 0 61 -64 108 -117 86z"/>
    <path d="M5908 5114 c-84 -45 -54 -164 42 -164 97 0 126 120 40 165 -36 18 -47 18 -82 -1z"/>
    <path d="M6125 5121 c-60 -25 -77 -104 -32 -148 55 -55 151 -16 151 62 0 59 -67 108 -119 86z"/>
    <path d="M6321 5116 c-27 -15 -50 -52 -51 -79 -1 -83 117 -122 165 -54 51 73 -37 177 -114 133z"/>
    <path d="M6534 5120 c-56 -22 -72 -103 -29 -145 23 -24 39 -29 80 -26 26 3 75 56 75 82 0 36 -28 76 -61 88 -37 13 -37 13 -65 1z"/>
    <path d="M6731 5116 c-54 -31 -65 -91 -23 -135 39 -43 89 -45 127 -6 69 68 -20 189 -104 141z"/>
    <path d="M6944 5120 c-73 -29 -70 -142 3 -167 58 -20 123 23 123 82 0 29 -28 71 -55 83 -30 14 -42 14 -71 2z"/>
    <path d="M7154 5120 c-12 -4 -31 -21 -43 -37 -64 -80 60 -183 135 -112 33 31 34 96 2 127 -28 25 -66 34 -94 22z"/>
    <path d="M7348 5114 c-69 -37 -63 -137 9 -161 42 -14 90 2 108 37 28 54 15 99 -35 125 -36 18 -47 18 -82 -1z"/>
    <path d="M7565 5121 c-61 -26 -79 -102 -33 -147 56 -56 152 -17 152 61 0 59 -67 108 -119 86z"/>
    <path d="M7758 5115 c-49 -27 -60 -72 -33 -125 27 -53 115 -57 150 -7 53 76 -37 176 -117 132z"/>
    <path d="M7980 5123 c-61 -22 -80 -99 -37 -148 45 -53 137 -25 152 46 9 39 -17 84 -56 98 -35 12 -37 12 -59 4z"/>
    <path d="M132 4887 c-51 -55 -12 -147 63 -147 76 0 114 92 60 145 -33 34 -93 34 -123 2z"/>
    <path d="M352 4903 c-17 -6 -42 -57 -42 -83 0 -32 53 -80 88 -80 83 0 119 106 53 157 -16 12 -75 16 -99 6z"/>
    <path d="M541 4884 c-47 -60 -10 -144 64 -144 74 0 111 84 64 144 -16 21 -29 26 -64 26 -35 0 -48 -5 -64 -26z"/>
    <path d="M759 4897 c-66 -51 -30 -157 53 -157 35 0 88 48 88 80 0 29 -26 76 -45 84 -27 10 -79 6 -96 -7z"/>
    <path d="M955 4885 c-54 -53 -16 -145 60 -145 76 0 116 97 62 148 -33 31 -90 30 -122 -3z"/>
    <path d="M1160 4885 c-53 -56 -13 -145 65 -145 41 0 85 47 85 91 0 72 -100 107 -150 54z"/>
    <path d="M1365 4885 c-34 -33 -34 -84 1 -119 81 -80 199 38 121 122 -29 31 -90 30 -122 -3z"/>
    <path d="M1573 4888 c-53 -57 -16 -148 60 -148 76 0 115 93 62 145 -32 33 -93 34 -122 3z"/>
    <path d="M1781 4893 c-12 -10 -24 -34 -27 -54 -8 -49 33 -99 81 -99 78 0 118 89 65 145 -28 30 -87 34 -119 8z"/>
    <path d="M1982 4887 c-31 -33 -30 -90 3 -122 53 -54 145 -16 145 60 0 76 -97 116 -148 62z"/>
    <path d="M2202 4903 c-17 -6 -42 -57 -42 -83 0 -33 53 -80 90 -80 37 0 90 47 90 80 0 29 -26 76 -45 84 -19 7 -74 7 -93 -1z"/>
    <path d="M2395 4885 c-54 -53 -16 -145 60 -145 74 0 111 84 64 144 -28 36 -89 37 -124 1z"/>
    <path d="M2609 4897 c-66 -51 -30 -157 53 -157 35 0 88 48 88 80 0 29 -26 76 -45 84 -27 10 -79 6 -96 -7z"/>
    <path d="M2805 4885 c-54 -53 -16 -145 60 -145 76 0 116 97 62 148 -33 31 -90 30 -122 -3z"/>
    <path d="M3010 4885 c-34 -37 -33 -90 4 -121 61 -53 146 -12 146 71 0 68 -102 102 -150 50z"/>
    <path d="M3215 4885 c-53 -52 -14 -144 62 -145 75 0 115 90 63 145 -32 34 -91 35 -125 0z"/>
    <path d="M3423 4888 c-53 -57 -16 -148 60 -148 76 0 115 93 62 145 -32 33 -93 34 -122 3z"/>
    <path d="M3642 4903 c-16 -6 -42 -56 -42 -82 0 -11 12 -33 26 -50 47 -56 136 -30 150 45 9 46 -35 94 -84 93 -21 0 -43 -3 -50 -6z"/>
    <path d="M3831 4884 c-47 -60 -10 -144 64 -144 49 0 85 36 85 85 0 50 -36 85 -89 85 -31 0 -44 -6 -60 -26z"/>
    <path d="M4052 4903 c-17 -6 -42 -57 -42 -83 0 -33 53 -80 90 -80 37 0 90 47 90 80 0 29 -26 76 -45 84 -19 7 -74 7 -93 -1z"/>
    <path d="M4245 4885 c-54 -53 -16 -145 60 -145 74 0 111 84 64 144 -28 36 -89 37 -124 1z"/>
    <path d="M4445 4878 c-32 -38 -29 -81 11 -115 38 -34 86 -31 118 8 30 35 32 58 11 98 -16 33 -33 41 -80 41 -25 0 -40 -8 -60 -32z"/>
    <path d="M4655 4885 c-34 -33 -34 -84 1 -119 81 -80 199 38 121 122 -29 31 -90 30 -122 -3z"/>
    <path d="M4860 4885 c-52 -55 -12 -145 63 -145 76 1 115 93 62 145 -34 35 -93 34 -125 0z"/>
    <path d="M5065 4885 c-53 -52 -14 -144 62 -145 76 0 115 89 63 145 -32 34 -91 35 -125 0z"/>
    <path d="M5272 4887 c-31 -33 -30 -90 3 -122 53 -54 145 -16 145 60 0 76 -97 116 -148 62z"/>
    <path d="M5492 4903 c-17 -6 -42 -57 -42 -83 0 -32 53 -80 88 -80 83 0 119 106 53 157 -16 12 -75 16 -99 6z"/>
    <path d="M5681 4884 c-47 -60 -10 -144 64 -144 49 0 85 36 85 85 0 50 -36 85 -89 85 -31 0 -44 -6 -60 -26z"/>
    <path d="M5902 4903 c-17 -6 -42 -57 -42 -83 0 -33 53 -80 90 -80 37 0 90 47 90 80 0 29 -26 76 -45 84 -19 7 -74 7 -93 -1z"/>
    <path d="M6095 4885 c-17 -16 -25 -35 -25 -60 0 -25 8 -44 25 -60 55 -56 145 -16 145 63 0 76 -91 112 -145 57z"/>
    <path d="M6300 4885 c-53 -56 -13 -145 65 -145 48 0 89 50 81 99 -7 46 -38 71 -85 71 -27 0 -44 -7 -61 -25z"/>
    <path d="M6505 4885 c-34 -33 -34 -84 1 -119 81 -80 199 38 121 122 -29 31 -90 30 -122 -3z"/>
    <path d="M6711 4886 c-33 -35 -31 -93 4 -123 83 -72 198 45 120 122 -33 34 -93 34 -124 1z"/>
    <path d="M6915 4885 c-33 -32 -32 -75 1 -114 50 -60 148 -25 148 52 0 79 -94 118 -149 62z"/>
    <path d="M7122 4887 c-31 -33 -30 -90 3 -122 53 -54 145 -16 145 60 0 76 -97 116 -148 62z"/>
    <path d="M7342 4903 c-17 -6 -42 -57 -42 -83 0 -32 53 -80 88 -80 83 0 119 106 53 157 -16 12 -75 16 -99 6z"/>
    <path d="M7531 4884 c-47 -60 -10 -144 64 -144 74 0 111 84 64 144 -16 21 -29 26 -64 26 -35 0 -48 -5 -64 -26z"/>
    <path d="M7749 4897 c-66 -51 -30 -157 53 -157 35 0 88 48 88 80 0 29 -26 76 -45 84 -27 10 -79 6 -96 -7z"/>
    <path d="M7945 4885 c-17 -16 -25 -35 -25 -60 0 -25 8 -44 25 -60 55 -56 145 -16 145 63 0 76 -91 112 -145 57z"/>
    <path d="M135 4675 c-37 -36 -34 -86 6 -119 40 -34 74 -33 110 3 32 33 36 58 14 100 -25 49 -90 57 -130 16z"/>
    <path d="M343 4678 c-31 -34 -36 -63 -18 -98 19 -36 57 -53 97 -45 60 14 81 106 32 144 -36 28 -85 27 -111 -1z"/>
    <path d="M545 4675 c-35 -34 -33 -78 4 -116 18 -17 40 -29 56 -29 38 0 85 50 85 90 0 71 -94 107 -145 55z"/>
    <path d="M752 4677 c-26 -27 -29 -82 -7 -114 33 -47 112 -37 140 17 43 82 -70 164 -133 97z"/>
    <path d="M972 4693 c-17 -6 -42 -57 -42 -83 0 -30 53 -80 83 -80 41 0 87 46 87 86 0 62 -66 102 -128 77z"/>
    <path d="M1166 4679 c-26 -21 -35 -65 -20 -104 17 -44 103 -54 138 -16 30 33 30 74 1 109 -32 39 -79 43 -119 11z"/>
    <path d="M1372 4680 c-46 -43 -37 -107 19 -139 51 -29 119 14 119 76 0 70 -87 110 -138 63z"/>
    <path d="M1575 4675 c-47 -46 -24 -125 42 -141 53 -14 113 46 99 99 -16 67 -94 90 -141 42z"/>
    <path d="M1775 4668 c-29 -35 -29 -76 1 -109 35 -38 121 -28 138 16 15 39 6 83 -20 104 -40 32 -87 28 -119 -11z"/>
    <path d="M1985 4675 c-37 -36 -34 -86 6 -119 41 -34 73 -33 111 4 26 27 30 36 25 68 -12 70 -92 97 -142 47z"/>
    <path d="M2193 4678 c-30 -34 -34 -55 -18 -94 36 -86 160 -57 157 38 -2 69 -93 106 -139 56z"/>
    <path d="M2395 4675 c-35 -34 -33 -78 4 -116 18 -17 40 -29 56 -29 38 0 85 50 85 90 0 71 -94 107 -145 55z"/>
    <path d="M2606 4679 c-19 -15 -26 -30 -26 -54 0 -47 8 -64 42 -81 58 -30 122 7 122 71 0 73 -80 110 -138 64z"/>
    <path d="M2810 4680 c-44 -44 -34 -108 21 -139 51 -29 119 14 119 76 0 70 -92 111 -140 63z"/>
    <path d="M3015 4675 c-47 -46 -25 -124 39 -141 54 -13 115 48 102 101 -16 64 -96 86 -141 40z"/>
    <path d="M3222 4680 c-29 -27 -37 -63 -20 -96 39 -83 158 -59 158 31 0 72 -87 113 -138 65z"/>
    <path d="M3425 4675 c-47 -46 -24 -125 42 -141 53 -14 113 46 99 99 -16 67 -94 90 -141 42z"/>
    <path d="M3630 4675 c-66 -71 12 -175 98 -131 34 17 42 34 42 81 0 68 -92 101 -140 50z"/>
    <path d="M3835 4675 c-35 -34 -33 -78 4 -116 18 -17 40 -29 56 -29 38 0 85 50 85 90 0 71 -94 107 -145 55z"/>
    <path d="M4040 4675 c-62 -66 8 -168 94 -135 30 11 60 68 49 97 -22 65 -99 85 -143 38z"/>
    <path d="M4245 4675 c-35 -34 -33 -78 4 -116 18 -17 40 -29 56 -29 38 0 85 50 85 90 0 71 -94 107 -145 55z"/>
    <path d="M4456 4679 c-19 -15 -26 -30 -26 -54 0 -47 8 -64 42 -81 58 -30 122 7 122 71 0 73 -80 110 -138 64z"/>
    <path d="M4660 4680 c-44 -44 -34 -108 21 -139 51 -29 119 14 119 76 0 70 -92 111 -140 63z"/>
    <path d="M4865 4675 c-31 -31 -34 -86 -5 -115 45 -45 111 -33 138 24 40 82 -68 156 -133 91z"/>
    <path d="M5072 4680 c-29 -28 -37 -63 -20 -97 39 -81 158 -57 158 32 0 72 -87 113 -138 65z"/>
    <path d="M5275 4675 c-47 -46 -24 -125 42 -141 53 -14 113 46 99 99 -16 67 -94 90 -141 42z"/>
    <path d="M5480 4675 c-66 -71 12 -175 98 -131 34 17 42 34 42 81 0 68 -92 101 -140 50z"/>
    <path d="M5685 4675 c-35 -34 -33 -78 4 -116 18 -17 40 -29 56 -29 38 0 85 50 85 90 0 71 -94 107 -145 55z"/>
    <path d="M5891 4676 c-62 -66 7 -169 93 -136 30 11 60 68 49 97 -22 64 -99 85 -142 39z"/>
    <path d="M6101 4683 c-12 -10 -24 -35 -28 -55 -5 -32 -1 -41 25 -68 38 -37 70 -38 111 -4 24 20 31 34 31 60 0 70 -85 110 -139 67z"/>
    <path d="M6306 4679 c-26 -21 -35 -65 -20 -104 17 -44 103 -54 138 -16 30 33 30 74 1 109 -32 39 -79 43 -119 11z"/>
    <path d="M6510 4680 c-44 -44 -34 -108 21 -139 51 -29 119 14 119 76 0 70 -92 111 -140 63z"/>
    <path d="M6715 4675 c-47 -46 -24 -125 42 -141 53 -14 113 46 99 99 -16 66 -95 89 -141 42z"/>
    <path d="M6915 4668 c-29 -35 -29 -76 1 -109 35 -38 121 -28 138 16 15 39 6 83 -20 104 -40 32 -87 28 -119 -11z"/>
    <path d="M7125 4675 c-37 -36 -34 -86 6 -119 40 -34 74 -33 110 3 32 33 36 58 14 100 -25 49 -90 57 -130 16z"/>
    <path d="M7333 4678 c-31 -34 -36 -63 -18 -98 28 -54 107 -64 140 -17 23 33 19 90 -8 115 -32 30 -87 29 -114 0z"/>
    <path d="M7535 4675 c-35 -34 -33 -78 4 -116 18 -17 40 -29 56 -29 38 0 85 50 85 90 0 71 -94 107 -145 55z"/>
    <path d="M7746 4679 c-49 -38 -28 -130 32 -144 40 -8 78 9 97 45 42 81 -56 156 -129 99z"/>
    <path d="M7962 4693 c-17 -6 -42 -57 -42 -83 0 -30 53 -80 83 -80 41 0 87 46 87 86 0 62 -66 102 -128 77z"/>
    <path d="M149 4477 c-21 -16 -39 -51 -39 -77 0 -48 71 -84 125 -64 24 10 46 60 39 89 -13 52 -86 82 -125 52z"/>
    <path d="M345 4465 c-53 -52 -18 -135 56 -135 45 0 79 34 79 79 0 42 -38 81 -80 81 -19 0 -40 -9 -55 -25z"/>
    <path d="M559 4477 c-27 -20 -41 -56 -34 -88 18 -82 145 -78 161 7 12 64 -76 121 -127 81z"/>
    <path d="M755 4465 c-53 -52 -18 -135 56 -135 45 0 79 34 79 79 0 42 -38 81 -80 81 -19 0 -40 -9 -55 -25z"/>
    <path d="M967 4470 c-33 -26 -41 -63 -23 -99 26 -49 91 -57 131 -16 71 70 -29 177 -108 115z"/>
    <path d="M1165 4465 c-52 -51 -17 -135 56 -135 52 0 79 27 79 79 0 73 -84 108 -135 56z"/>
    <path d="M1382 4474 c-32 -22 -43 -57 -31 -94 13 -36 36 -50 83 -50 25 0 40 7 55 26 60 76 -29 173 -107 118z"/>
    <path d="M1575 4465 c-50 -49 -17 -135 51 -135 47 0 70 14 83 50 28 82 -73 147 -134 85z"/>
    <path d="M1786 4469 c-33 -26 -37 -88 -6 -119 13 -13 33 -20 59 -20 73 0 108 84 56 135 -30 31 -73 32 -109 4z"/>
    <path d="M1999 4477 c-43 -33 -50 -87 -14 -122 40 -41 105 -33 130 16 21 40 19 57 -14 90 -31 31 -74 38 -102 16z"/>
    <path d="M2195 4465 c-53 -52 -18 -135 56 -135 45 0 79 34 79 79 0 42 -38 81 -80 81 -19 0 -40 -9 -55 -25z"/>
    <path d="M2395 4458 c-21 -25 -25 -38 -21 -62 16 -85 143 -89 161 -7 19 86 -84 136 -140 69z"/>
    <path d="M2605 4465 c-53 -52 -18 -135 56 -135 45 0 79 34 79 79 0 42 -38 81 -80 81 -19 0 -40 -9 -55 -25z"/>
    <path d="M2817 4470 c-33 -26 -41 -63 -23 -99 17 -33 34 -41 81 -41 24 0 39 7 54 26 25 31 26 55 6 93 -23 46 -74 55 -118 21z"/>
    <path d="M3015 4465 c-52 -51 -17 -135 56 -135 26 0 46 7 59 20 13 13 20 33 20 59 0 73 -84 108 -135 56z"/>
    <path d="M3226 4468 c-24 -22 -30 -40 -27 -80 4 -58 102 -80 140 -32 63 80 -38 179 -113 112z"/>
    <path d="M3442 4483 c-16 -6 -42 -56 -42 -81 0 -36 38 -72 76 -72 47 0 70 14 83 50 24 69 -47 131 -117 103z"/>
    <path d="M3636 4469 c-20 -16 -26 -29 -26 -58 0 -49 32 -81 82 -81 70 0 103 86 53 135 -30 31 -73 32 -109 4z"/>
    <path d="M3849 4477 c-43 -33 -50 -87 -14 -122 47 -48 128 -24 141 41 12 64 -76 121 -127 81z"/>
    <path d="M4045 4465 c-53 -52 -18 -135 56 -135 45 0 79 34 79 79 0 42 -38 81 -80 81 -19 0 -40 -9 -55 -25z"/>
    <path d="M4248 4460 c-25 -26 -29 -36 -24 -63 16 -85 142 -91 161 -8 7 32 -7 68 -34 88 -29 22 -71 15 -103 -17z"/>
    <path d="M4455 4465 c-51 -50 -17 -135 54 -135 49 0 81 32 81 82 0 70 -86 103 -135 53z"/>
    <path d="M4672 4474 c-32 -22 -43 -57 -31 -94 13 -36 36 -50 83 -50 25 0 40 7 55 26 25 31 26 55 6 93 -22 44 -71 55 -113 25z"/>
    <path d="M4865 4465 c-52 -51 -17 -135 56 -135 79 0 111 85 53 138 -33 29 -78 29 -109 -3z"/>
    <path d="M5076 4469 c-33 -26 -37 -88 -6 -119 13 -13 33 -20 59 -20 73 0 108 84 56 135 -30 31 -73 32 -109 4z"/>
    <path d="M5292 4483 c-16 -6 -42 -56 -42 -81 0 -35 38 -72 75 -72 47 0 64 8 81 41 35 68 -40 142 -114 112z"/>
    <path d="M5485 4465 c-53 -52 -18 -135 56 -135 45 0 79 34 79 79 0 42 -38 81 -80 81 -19 0 -40 -9 -55 -25z"/>
    <path d="M5699 4477 c-27 -20 -41 -56 -34 -88 18 -82 145 -78 161 7 12 64 -76 121 -127 81z"/>
    <path d="M5895 4465 c-53 -52 -18 -135 56 -135 45 0 79 34 79 79 0 42 -38 81 -80 81 -19 0 -40 -9 -55 -25z"/>
    <path d="M6099 4461 c-33 -33 -35 -50 -14 -90 25 -49 90 -57 130 -16 27 26 31 54 13 88 -29 55 -84 63 -129 18z"/>
    <path d="M6305 4465 c-52 -51 -17 -135 56 -135 26 0 46 7 59 20 13 13 20 33 20 59 0 73 -84 108 -135 56z"/>
    <path d="M6522 4474 c-32 -22 -43 -57 -31 -94 13 -36 36 -50 83 -50 25 0 40 7 55 26 60 76 -29 173 -107 118z"/>
    <path d="M6715 4465 c-50 -49 -17 -135 51 -135 47 0 70 14 83 50 28 82 -73 147 -134 85z"/>
    <path d="M6926 4469 c-33 -26 -37 -88 -6 -119 13 -13 33 -20 59 -20 73 0 108 84 56 135 -30 31 -73 32 -109 4z"/>
    <path d="M7139 4477 c-21 -16 -39 -51 -39 -77 0 -48 71 -84 125 -64 24 10 46 60 39 89 -13 52 -86 82 -125 52z"/>
    <path d="M7335 4465 c-53 -52 -18 -135 56 -135 45 0 79 34 79 79 0 42 -38 81 -80 81 -19 0 -40 -9 -55 -25z"/>
    <path d="M7549 4477 c-27 -20 -41 -56 -34 -88 18 -82 145 -78 161 7 12 64 -76 121 -127 81z"/>
    <path d="M7745 4465 c-53 -52 -18 -135 56 -135 45 0 79 34 79 79 0 42 -38 81 -80 81 -19 0 -40 -9 -55 -25z"/>
    <path d="M7957 4470 c-33 -26 -41 -63 -23 -99 26 -49 91 -57 131 -16 29 28 31 54 10 94 -23 46 -74 55 -118 21z"/>
    <path d="M147 4260 c-59 -47 -30 -139 44 -140 73 -1 109 95 53 139 -33 26 -64 27 -97 1z"/>
    <path d="M363 4270 c-73 -30 -44 -150 37 -150 36 0 80 38 80 69 0 33 -21 68 -47 80 -28 13 -40 13 -70 1z"/>
    <path d="M556 4259 c-55 -43 -21 -139 50 -139 69 0 102 97 48 139 -15 12 -37 21 -49 21 -12 0 -34 -9 -49 -21z"/>
    <path d="M775 4268 c-51 -30 -60 -84 -20 -123 69 -70 180 29 118 104 -22 26 -71 35 -98 19z"/>
    <path d="M966 4259 c-56 -44 -20 -140 53 -139 75 1 103 100 39 144 -30 22 -60 20 -92 -5z"/>
    <path d="M1183 4268 c-28 -13 -46 -58 -37 -92 14 -57 86 -74 129 -31 65 64 -8 163 -92 123z"/>
    <path d="M1375 4255 c-64 -63 4 -161 90 -129 18 7 45 55 45 79 0 26 -55 75 -85 75 -14 0 -37 -11 -50 -25z"/>
    <path d="M1579 4251 c-33 -33 -35 -50 -14 -90 24 -46 74 -55 119 -20 35 28 36 80 1 114 -33 33 -70 32 -106 -4z"/>
    <path d="M1785 4255 c-68 -67 23 -175 102 -120 44 31 37 111 -13 134 -38 17 -63 13 -89 -14z"/>
    <path d="M2002 4264 c-66 -46 -36 -143 44 -144 69 0 102 96 48 139 -32 25 -62 27 -92 5z"/>
    <path d="M2213 4270 c-47 -19 -57 -87 -18 -125 62 -63 161 6 129 90 -7 17 -55 45 -76 44 -7 0 -23 -4 -35 -9z"/>
    <path d="M2406 4259 c-55 -43 -21 -139 50 -139 70 0 102 92 49 138 -33 28 -65 28 -99 1z"/>
    <path d="M2624 4268 c-24 -11 -44 -48 -44 -79 0 -31 44 -69 80 -69 19 0 40 9 55 25 65 64 -8 163 -91 123z"/>
    <path d="M2815 4255 c-51 -50 -17 -136 54 -135 74 1 103 93 44 140 -34 27 -69 25 -98 -5z"/>
    <path d="M3018 4250 c-25 -26 -29 -36 -24 -63 13 -65 85 -89 131 -42 16 15 25 36 25 55 0 39 -39 80 -75 80 -16 0 -39 -12 -57 -30z"/>
    <path d="M3225 4255 c-63 -62 6 -161 90 -129 18 7 45 55 45 79 0 26 -55 75 -85 75 -14 0 -37 -11 -50 -25z"/>
    <path d="M3429 4251 c-33 -33 -35 -50 -14 -90 24 -46 74 -55 119 -20 35 28 36 80 1 114 -33 33 -70 32 -106 -4z"/>
    <path d="M3635 4255 c-16 -15 -25 -36 -25 -55 0 -19 9 -40 25 -55 15 -16 36 -25 55 -25 36 0 80 38 80 69 0 77 -84 118 -135 66z"/>
    <path d="M3844 4257 c-54 -47 -20 -137 51 -137 70 0 103 96 49 139 -35 27 -66 26 -100 -2z"/>
    <path d="M4063 4270 c-47 -20 -57 -87 -18 -125 69 -70 180 29 118 104 -21 24 -68 35 -100 21z"/>
    <path d="M4256 4259 c-55 -43 -21 -139 50 -139 70 0 103 91 50 137 -34 28 -65 29 -100 2z"/>
    <path d="M4474 4268 c-24 -11 -44 -48 -44 -79 0 -31 44 -69 80 -69 19 0 40 9 55 25 65 64 -8 163 -91 123z"/>
    <path d="M4665 4255 c-35 -34 -34 -86 1 -114 45 -35 96 -24 122 26 18 34 14 52 -17 84 -36 36 -73 37 -106 4z"/>
    <path d="M4869 4251 c-16 -16 -29 -37 -29 -46 0 -24 27 -72 45 -79 55 -21 115 18 115 74 0 39 -39 80 -75 80 -16 0 -38 -12 -56 -29z"/>
    <path d="M5075 4255 c-63 -62 6 -161 90 -129 18 7 45 55 45 79 0 26 -55 75 -85 75 -14 0 -37 -11 -50 -25z"/>
    <path d="M5287 4260 c-59 -47 -30 -139 44 -140 71 -1 105 85 54 135 -29 30 -64 32 -98 5z"/>
    <path d="M5485 4255 c-50 -49 -15 -135 55 -135 36 0 80 38 80 69 0 77 -84 118 -135 66z"/>
    <path d="M5694 4257 c-54 -47 -20 -137 51 -137 70 0 103 96 49 139 -35 27 -66 26 -100 -2z"/>
    <path d="M5915 4269 c-51 -29 -60 -85 -20 -124 69 -70 180 29 118 104 -22 25 -71 35 -98 20z"/>
    <path d="M6106 4259 c-55 -43 -21 -139 50 -139 78 1 107 99 42 144 -30 22 -60 20 -92 -5z"/>
    <path d="M6323 4268 c-28 -13 -46 -58 -37 -92 14 -57 86 -74 129 -31 65 64 -8 163 -92 123z"/>
    <path d="M6515 4255 c-64 -63 4 -161 90 -129 18 7 45 55 45 79 0 26 -55 75 -85 75 -14 0 -37 -11 -50 -25z"/>
    <path d="M6719 4251 c-33 -33 -35 -50 -14 -90 24 -46 74 -55 119 -20 35 28 36 80 1 114 -33 33 -70 32 -106 -4z"/>
    <path d="M6925 4255 c-68 -67 23 -175 102 -120 44 31 37 111 -13 134 -38 17 -63 13 -89 -14z"/>
    <path d="M7137 4260 c-59 -47 -30 -139 44 -140 44 0 79 35 79 80 0 68 -69 102 -123 60z"/>
    <path d="M7353 4270 c-73 -30 -44 -150 37 -150 60 0 102 76 67 121 -15 19 -51 39 -69 38 -7 0 -23 -4 -35 -9z"/>
    <path d="M7546 4259 c-55 -43 -21 -139 50 -139 69 0 102 97 48 139 -15 12 -37 21 -49 21 -12 0 -34 -9 -49 -21z"/>
    <path d="M7764 4269 c-47 -24 -56 -87 -19 -124 69 -70 180 29 118 104 -21 25 -70 35 -99 20z"/>
    <path d="M7956 4259 c-56 -44 -20 -140 53 -139 74 1 103 93 44 140 -33 26 -64 25 -97 -1z"/>
    <path d="M163 4060 c-50 -20 -59 -96 -16 -130 64 -50 146 18 117 95 -6 15 -54 46 -71 44 -4 0 -18 -4 -30 -9z"/>
    <path d="M349 4041 c-16 -16 -29 -36 -29 -45 0 -43 43 -86 86 -86 23 0 74 55 74 80 0 28 -52 80 -80 80 -12 0 -35 -13 -51 -29z"/>
    <path d="M573 4060 c-48 -20 -57 -87 -17 -127 20 -20 31 -24 57 -19 39 7 67 39 67 76 0 53 -57 91 -107 70z"/>
    <path d="M759 4041 c-16 -16 -29 -39 -29 -51 0 -25 51 -80 74 -80 43 0 86 43 86 86 0 23 -55 74 -80 74 -12 0 -35 -13 -51 -29z"/>
    <path d="M983 4060 c-43 -18 -57 -81 -25 -119 44 -53 132 -24 132 44 0 58 -55 97 -107 75z"/>
    <path d="M1182 4054 c-49 -34 -48 -97 2 -130 31 -20 67 -13 96 18 33 36 19 96 -27 117 -32 15 -44 14 -71 -5z"/>
    <path d="M1395 4059 c-47 -27 -60 -79 -27 -118 46 -55 132 -24 132 48 0 57 -58 96 -105 70z"/>
    <path d="M1610 4063 c-57 -21 -70 -96 -23 -133 64 -50 146 18 117 95 -6 15 -55 46 -71 44 -4 0 -15 -3 -23 -6z"/>
    <path d="M1803 4058 c-32 -16 -48 -61 -34 -97 12 -27 47 -51 76 -51 29 0 68 46 68 80 0 24 -7 40 -27 57 -29 25 -49 28 -83 11z"/>
    <path d="M2013 4060 c-50 -20 -59 -96 -16 -130 50 -39 123 -3 123 60 0 53 -57 91 -107 70z"/>
    <path d="M2199 4041 c-16 -16 -29 -36 -29 -45 0 -43 43 -86 86 -86 23 0 74 55 74 80 0 28 -52 80 -80 80 -12 0 -35 -13 -51 -29z"/>
    <path d="M2423 4060 c-68 -28 -51 -132 24 -146 26 -5 37 -1 57 19 61 61 -2 160 -81 127z"/>
    <path d="M2617 4050 c-49 -39 -40 -105 18 -132 45 -21 105 24 105 78 0 22 -55 74 -78 74 -11 0 -31 -9 -45 -20z"/>
    <path d="M2835 4059 c-47 -27 -60 -79 -27 -118 46 -55 132 -24 132 48 0 57 -58 96 -105 70z"/>
    <path d="M3032 4054 c-49 -34 -48 -97 2 -130 47 -30 116 8 116 64 -1 31 -16 54 -47 70 -29 16 -44 15 -71 -4z"/>
    <path d="M3238 4055 c-51 -28 -50 -103 2 -130 38 -20 52 -19 84 6 20 16 26 29 26 58 0 62 -58 95 -112 66z"/>
    <path d="M3460 4063 c-57 -21 -70 -96 -23 -133 64 -50 146 18 117 95 -6 15 -55 46 -71 44 -4 0 -15 -3 -23 -6z"/>
    <path d="M3653 4058 c-32 -16 -48 -61 -34 -97 12 -27 47 -51 76 -51 29 0 68 46 68 80 0 24 -7 40 -27 57 -29 25 -49 28 -83 11z"/>
    <path d="M3863 4060 c-48 -20 -57 -87 -17 -127 20 -20 31 -24 57 -19 39 7 67 39 67 76 0 53 -57 91 -107 70z"/>
    <path d="M4049 4041 c-16 -16 -29 -39 -29 -51 0 -12 13 -35 29 -51 16 -16 39 -29 51 -29 28 0 80 52 80 80 0 12 -13 35 -29 51 -16 16 -39 29 -51 29 -12 0 -35 -13 -51 -29z"/>
    <path d="M4273 4060 c-68 -28 -51 -132 24 -146 26 -5 37 -1 57 19 61 61 -2 160 -81 127z"/>
    <path d="M4464 4047 c-20 -17 -27 -33 -27 -57 0 -34 39 -80 68 -80 29 0 64 24 76 51 15 37 -2 82 -37 98 -36 16 -50 14 -80 -12z"/>
    <path d="M4685 4059 c-47 -27 -60 -79 -27 -118 46 -55 132 -24 132 48 0 57 -58 96 -105 70z"/>
    <path d="M4895 4060 c-33 -13 -46 -36 -43 -76 4 -47 43 -80 82 -70 78 19 89 107 19 144 -25 14 -30 14 -58 2z"/>
    <path d="M5095 4058 c-30 -17 -44 -40 -45 -70 0 -56 69 -94 116 -64 50 33 51 96 2 130 -26 19 -45 20 -73 4z"/>
    <path d="M5310 4063 c-57 -21 -70 -96 -23 -133 64 -50 146 18 117 95 -6 15 -55 46 -71 44 -4 0 -15 -3 -23 -6z"/>
    <path d="M5489 4041 c-16 -16 -29 -36 -29 -45 0 -54 60 -99 105 -78 58 27 67 93 18 132 -35 27 -59 25 -94 -9z"/>
    <path d="M5713 4060 c-48 -20 -57 -87 -17 -127 20 -20 31 -24 57 -19 39 7 67 39 67 76 0 53 -57 91 -107 70z"/>
    <path d="M5899 4041 c-16 -16 -29 -39 -29 -51 0 -25 51 -80 74 -80 43 0 86 43 86 86 0 23 -55 74 -80 74 -12 0 -35 -13 -51 -29z"/>
    <path d="M6123 4060 c-43 -18 -57 -81 -25 -119 44 -53 132 -24 132 44 0 58 -55 97 -107 75z"/>
    <path d="M6314 4047 c-20 -17 -27 -33 -27 -57 0 -34 39 -80 68 -80 29 0 64 24 76 51 15 37 -2 82 -37 98 -36 16 -50 14 -80 -12z"/>
    <path d="M6535 4059 c-47 -27 -60 -79 -27 -118 46 -55 132 -24 132 48 0 57 -58 96 -105 70z"/>
    <path d="M6750 4063 c-57 -21 -70 -96 -23 -133 64 -50 146 18 117 95 -6 15 -55 46 -71 44 -4 0 -15 -3 -23 -6z"/>
    <path d="M6944 4058 c-23 -11 -44 -48 -44 -77 0 -23 35 -59 65 -67 31 -8 72 17 85 52 12 30 -1 67 -32 88 -26 18 -44 19 -74 4z"/>
    <path d="M7153 4060 c-50 -20 -59 -96 -16 -130 50 -39 123 -3 123 60 0 53 -57 91 -107 70z"/>
    <path d="M7339 4041 c-16 -16 -29 -36 -29 -45 0 -43 43 -86 86 -86 23 0 74 55 74 80 0 28 -52 80 -80 80 -12 0 -35 -13 -51 -29z"/>
    <path d="M7563 4060 c-68 -28 -51 -132 24 -146 26 -5 37 -1 57 19 61 61 -2 160 -81 127z"/>
    <path d="M7749 4041 c-16 -16 -29 -39 -29 -51 0 -25 51 -80 74 -80 43 0 86 43 86 86 0 23 -55 74 -80 74 -12 0 -35 -13 -51 -29z"/>
    <path d="M7975 4059 c-47 -27 -60 -79 -27 -118 44 -53 132 -24 132 44 0 58 -59 100 -105 74z"/>
    <path d="M140 3830 c-11 -11 -20 -33 -20 -50 0 -67 88 -96 129 -44 26 34 26 54 0 88 -26 33 -79 36 -109 6z"/>
    <path d="M345 3830 c-23 -26 -23 -74 0 -100 26 -29 89 -27 109 2 22 30 20 81 -2 101 -26 24 -85 22 -107 -3z"/>
    <path d="M550 3828 c-43 -46 -10 -118 54 -118 39 0 76 35 76 71 0 62 -87 93 -130 47z"/>
    <path d="M757 3832 c-23 -25 -22 -85 1 -105 25 -23 85 -22 105 1 23 25 22 85 -1 105 -25 23 -85 22 -105 -1z"/>
    <path d="M961 3824 c-12 -15 -21 -34 -21 -44 0 -10 9 -29 21 -44 41 -52 129 -23 129 44 0 67 -88 96 -129 44z"/>
    <path d="M1166 3828 c-37 -53 -5 -118 57 -118 42 0 70 29 70 70 0 43 -28 70 -74 70 -28 0 -42 -6 -53 -22z"/>
    <path d="M1371 3824 c-12 -15 -21 -34 -21 -44 0 -10 9 -29 21 -44 41 -52 129 -23 129 44 0 67 -88 96 -129 44z"/>
    <path d="M1580 3830 c-45 -45 -11 -120 54 -120 37 0 76 36 76 70 0 10 -9 29 -21 44 -26 33 -79 36 -109 6z"/>
    <path d="M1785 3830 c-42 -46 -10 -120 52 -120 62 0 94 65 57 118 -20 29 -83 31 -109 2z"/>
    <path d="M1990 3830 c-45 -45 -11 -120 54 -120 37 0 76 36 76 70 0 10 -9 29 -21 44 -26 33 -79 36 -109 6z"/>
    <path d="M2197 3832 c-23 -25 -22 -85 1 -105 25 -23 85 -22 105 1 23 25 22 85 -1 105 -25 23 -85 22 -105 -1z"/>
    <path d="M2400 3828 c-26 -28 -26 -58 1 -92 41 -52 129 -22 129 44 0 63 -86 95 -130 48z"/>
    <path d="M2607 3832 c-21 -23 -22 -71 -1 -100 20 -29 83 -31 109 -2 43 48 10 120 -55 120 -23 0 -43 -7 -53 -18z"/>
    <path d="M2811 3824 c-12 -15 -21 -34 -21 -44 0 -10 9 -29 21 -44 41 -52 129 -23 129 44 0 67 -88 96 -129 44z"/>
    <path d="M3016 3828 c-37 -53 -5 -118 58 -118 37 0 76 36 76 70 0 10 -9 29 -21 44 -27 35 -90 37 -113 4z"/>
    <path d="M3221 3824 c-12 -15 -21 -34 -21 -44 0 -10 9 -29 21 -44 41 -52 129 -23 129 44 0 67 -88 96 -129 44z"/>
    <path d="M3430 3830 c-45 -45 -11 -120 54 -120 37 0 76 36 76 70 0 10 -9 29 -21 44 -26 33 -79 36 -109 6z"/>
    <path d="M3635 3830 c-42 -46 -10 -120 52 -120 62 0 94 65 57 118 -20 29 -83 31 -109 2z"/>
    <path d="M3840 3830 c-46 -46 -8 -124 57 -118 66 6 93 77 47 122 -22 23 -80 20 -104 -4z"/>
    <path d="M4047 3832 c-23 -25 -22 -85 1 -105 25 -23 85 -22 105 1 23 25 22 85 -1 105 -25 23 -85 22 -105 -1z"/>
    <path d="M4256 3834 c-46 -45 -19 -116 47 -122 65 -6 103 72 57 118 -24 24 -82 27 -104 4z"/>
    <path d="M4456 3828 c-37 -53 -5 -118 57 -118 42 0 70 29 70 70 0 43 -28 70 -74 70 -28 0 -42 -6 -53 -22z"/>
    <path d="M4661 3824 c-12 -15 -21 -34 -21 -44 0 -10 9 -29 21 -44 41 -52 129 -23 129 44 0 67 -88 96 -129 44z"/>
    <path d="M4870 3830 c-45 -45 -11 -120 54 -120 37 0 76 36 76 70 0 10 -9 29 -21 44 -26 33 -79 36 -109 6z"/>
    <path d="M5071 3824 c-12 -15 -21 -34 -21 -44 0 -34 39 -70 76 -70 63 0 95 65 58 118 -23 33 -86 31 -113 -4z"/>
    <path d="M5280 3830 c-45 -45 -11 -120 54 -120 37 0 76 36 76 70 0 10 -9 29 -21 44 -26 33 -79 36 -109 6z"/>
    <path d="M5485 3830 c-44 -48 -10 -120 56 -120 28 0 42 6 53 22 22 30 20 81 -2 101 -26 24 -85 22 -107 -3z"/>
    <path d="M5690 3828 c-43 -46 -10 -118 55 -118 38 0 75 37 75 74 0 59 -88 89 -130 44z"/>
    <path d="M5897 3832 c-23 -25 -22 -85 1 -105 25 -23 85 -22 105 1 23 25 22 85 -1 105 -25 23 -85 22 -105 -1z"/>
    <path d="M6101 3824 c-12 -15 -21 -34 -21 -44 0 -10 9 -29 21 -44 41 -52 129 -23 129 44 0 67 -88 96 -129 44z"/>
    <path d="M6306 3828 c-37 -53 -5 -118 57 -118 42 0 70 29 70 70 0 43 -28 70 -74 70 -28 0 -42 -6 -53 -22z"/>
    <path d="M6511 3824 c-12 -15 -21 -34 -21 -44 0 -10 9 -29 21 -44 41 -52 129 -23 129 44 0 67 -88 96 -129 44z"/>
    <path d="M6720 3830 c-45 -45 -11 -120 54 -120 37 0 76 36 76 70 0 10 -9 29 -21 44 -26 33 -79 36 -109 6z"/>
    <path d="M6925 3830 c-42 -46 -10 -120 52 -120 62 0 94 65 57 118 -20 29 -83 31 -109 2z"/>
    <path d="M7130 3830 c-45 -45 -11 -120 54 -120 37 0 76 36 76 70 0 10 -9 29 -21 44 -26 33 -79 36 -109 6z"/>
    <path d="M7337 3832 c-23 -25 -22 -85 1 -105 25 -23 85 -22 105 1 23 25 22 85 -1 105 -25 23 -85 22 -105 -1z"/>
    <path d="M7540 3828 c-43 -47 -10 -118 55 -118 41 0 75 32 75 70 0 63 -86 95 -130 48z"/>
    <path d="M7747 3832 c-21 -23 -22 -71 -1 -100 20 -29 83 -31 108 -3 23 25 23 76 1 101 -24 26 -86 27 -108 2z"/>
    <path d="M7951 3824 c-12 -15 -21 -34 -21 -44 0 -10 9 -29 21 -44 41 -52 129 -23 129 44 0 67 -88 96 -129 44z"/>
    <path d="M141 3614 c-27 -35 -26 -59 4 -89 45 -46 118 -19 118 43 0 69 -80 99 -122 46z"/>
    <path d="M350 3620 c-43 -43 -11 -120 48 -120 36 0 72 37 72 73 0 36 -33 67 -70 67 -17 0 -39 -9 -50 -20z"/>
    <path d="M551 3614 c-27 -35 -26 -59 4 -89 63 -63 160 18 105 88 -29 37 -80 37 -109 1z"/>
    <path d="M760 3620 c-27 -27 -26 -71 3 -98 46 -44 117 -14 117 48 0 38 -32 70 -70 70 -17 0 -39 -9 -50 -20z"/>
    <path d="M965 3620 c-26 -29 -24 -79 4 -102 32 -25 67 -23 96 7 30 30 31 54 4 89 -26 33 -77 36 -104 6z"/>
    <path d="M1170 3620 c-27 -27 -26 -71 3 -98 48 -45 117 -14 117 52 0 60 -77 89 -120 46z"/>
    <path d="M1377 3622 c-40 -44 -6 -122 52 -122 34 0 71 39 71 75 0 53 -88 86 -123 47z"/>
    <path d="M1581 3614 c-12 -15 -21 -34 -21 -44 0 -30 39 -70 69 -70 44 0 71 26 71 69 0 70 -77 99 -119 45z"/>
    <path d="M1790 3620 c-43 -43 -11 -120 48 -120 36 0 72 37 72 73 0 36 -33 67 -70 67 -17 0 -39 -9 -50 -20z"/>
    <path d="M1991 3614 c-27 -35 -26 -59 4 -89 45 -46 118 -19 118 43 0 69 -80 99 -122 46z"/>
    <path d="M2200 3620 c-43 -43 -11 -120 48 -120 36 0 72 37 72 73 0 36 -33 67 -70 67 -17 0 -39 -9 -50 -20z"/>
    <path d="M2400 3613 c-55 -70 42 -151 105 -88 30 30 31 54 4 89 -29 36 -80 36 -109 -1z"/>
    <path d="M2610 3620 c-27 -27 -26 -71 3 -98 46 -44 117 -14 117 48 0 17 -9 39 -20 50 -11 11 -33 20 -50 20 -17 0 -39 -9 -50 -20z"/>
    <path d="M2815 3620 c-26 -29 -24 -79 4 -102 32 -25 67 -23 96 7 30 30 31 54 4 89 -26 33 -77 36 -104 6z"/>
    <path d="M3020 3618 c-59 -64 38 -160 100 -98 26 26 26 81 2 103 -26 24 -77 21 -102 -5z"/>
    <path d="M3227 3622 c-40 -44 -6 -122 52 -122 34 0 71 39 71 74 0 56 -86 89 -123 48z"/>
    <path d="M3431 3614 c-12 -15 -21 -34 -21 -44 0 -30 39 -70 69 -70 44 0 71 26 71 69 0 70 -77 99 -119 45z"/>
    <path d="M3640 3620 c-43 -43 -11 -120 48 -120 36 0 72 37 72 73 0 36 -33 67 -70 67 -17 0 -39 -9 -50 -20z"/>
    <path d="M3841 3614 c-27 -35 -26 -59 4 -89 45 -46 118 -19 118 43 0 69 -80 99 -122 46z"/>
    <path d="M4050 3620 c-11 -11 -20 -33 -20 -50 0 -62 73 -92 118 -50 46 43 15 120 -48 120 -17 0 -39 -9 -50 -20z"/>
    <path d="M4250 3613 c-55 -70 42 -151 105 -88 30 30 31 54 4 89 -29 36 -80 36 -109 -1z"/>
    <path d="M4460 3620 c-27 -27 -26 -71 3 -98 46 -44 117 -14 117 48 0 17 -9 39 -20 50 -11 11 -33 20 -50 20 -17 0 -39 -9 -50 -20z"/>
    <path d="M4667 3622 c-25 -28 -22 -87 5 -106 34 -24 73 -20 97 10 12 15 21 34 21 44 0 10 -9 29 -21 44 -25 32 -77 36 -102 8z"/>
    <path d="M4870 3618 c-59 -64 38 -160 100 -98 26 26 26 81 2 103 -26 24 -77 21 -102 -5z"/>
    <path d="M5077 3622 c-40 -44 -6 -122 52 -122 34 0 71 39 71 74 0 56 -86 89 -123 48z"/>
    <path d="M5281 3614 c-27 -35 -26 -59 4 -89 45 -46 118 -19 118 43 0 69 -80 99 -122 46z"/>
    <path d="M5490 3620 c-43 -43 -11 -120 48 -120 36 0 72 37 72 73 0 36 -33 67 -70 67 -17 0 -39 -9 -50 -20z"/>
    <path d="M5691 3614 c-27 -35 -26 -59 4 -89 63 -63 160 18 105 88 -29 37 -80 37 -109 1z"/>
    <path d="M5900 3620 c-27 -27 -26 -71 3 -98 46 -44 117 -14 117 48 0 38 -32 70 -70 70 -17 0 -39 -9 -50 -20z"/>
    <path d="M6105 3620 c-26 -29 -24 -79 4 -102 32 -25 67 -23 96 7 30 30 31 54 4 89 -26 33 -77 36 -104 6z"/>
    <path d="M6310 3620 c-27 -27 -26 -71 3 -98 46 -44 117 -14 117 48 0 38 -32 70 -70 70 -17 0 -39 -9 -50 -20z"/>
    <path d="M6517 3622 c-25 -28 -22 -87 5 -106 34 -24 73 -20 97 10 12 15 21 34 21 44 0 10 -9 29 -21 44 -25 32 -77 36 -102 8z"/>
    <path d="M6722 3617 c-28 -29 -28 -57 -1 -91 41 -52 119 -21 119 47 0 64 -74 91 -118 44z"/>
    <path d="M6932 3624 c-15 -11 -22 -25 -22 -50 0 -67 73 -99 118 -51 61 65 -22 153 -96 101z"/>
    <path d="M7131 3614 c-27 -35 -26 -59 4 -89 45 -46 118 -19 118 43 0 69 -80 99 -122 46z"/>
    <path d="M7340 3620 c-43 -43 -11 -120 48 -120 36 0 72 37 72 73 0 36 -33 67 -70 67 -17 0 -39 -9 -50 -20z"/>
    <path d="M7541 3614 c-12 -15 -21 -35 -21 -46 0 -27 45 -68 75 -68 30 0 75 41 75 68 0 35 -38 72 -75 72 -24 0 -39 -7 -54 -26z"/>
    <path d="M7750 3620 c-27 -27 -26 -71 3 -98 46 -44 117 -14 117 48 0 38 -32 70 -70 70 -17 0 -39 -9 -50 -20z"/>
    <path d="M7955 3620 c-26 -29 -24 -79 4 -102 32 -25 67 -23 96 7 30 30 31 54 4 89 -26 33 -77 36 -104 6z"/>
    <path d="M157 3419 c-45 -26 -37 -98 14 -120 26 -10 34 -9 57 8 71 53 5 156 -71 112z"/>
    <path d="M352 3407 c-12 -13 -22 -33 -22 -46 0 -28 42 -71 70 -71 26 0 70 43 70 68 0 11 -9 31 -21 46 -26 33 -68 34 -97 3z"/>
    <path d="M560 3410 c-53 -53 7 -143 72 -109 30 16 38 28 38 62 0 34 -32 67 -65 67 -14 0 -34 -9 -45 -20z"/>
    <path d="M761 3404 c-12 -15 -21 -35 -21 -46 0 -25 44 -68 70 -68 28 0 70 43 70 73 0 31 -39 67 -72 67 -17 0 -34 -10 -47 -26z"/>
    <path d="M969 3409 c-28 -28 -22 -76 13 -102 23 -17 31 -18 57 -8 52 22 59 95 12 120 -30 17 -59 13 -82 -10z"/>
    <path d="M1171 3404 c-27 -35 -26 -59 4 -89 30 -30 54 -31 89 -4 33 26 34 68 3 97 -32 30 -71 28 -96 -4z"/>
    <path d="M1379 3409 c-44 -44 4 -130 65 -115 24 6 56 50 56 76 0 21 -49 60 -75 60 -14 0 -34 -9 -46 -21z"/>
    <path d="M1585 3405 c-28 -27 -30 -37 -13 -68 26 -50 61 -58 102 -26 32 25 35 70 6 99 -27 27 -66 25 -95 -5z"/>
    <path d="M1792 3407 c-30 -32 -28 -71 4 -96 35 -27 59 -26 89 4 30 30 31 54 4 89 -26 33 -68 34 -97 3z"/>
    <path d="M2002 3414 c-15 -10 -22 -25 -22 -49 0 -59 54 -91 99 -58 74 55 -1 160 -77 107z"/>
    <path d="M2202 3407 c-12 -13 -22 -33 -22 -46 0 -28 42 -71 70 -71 26 0 70 43 70 68 0 11 -9 31 -21 46 -26 33 -68 34 -97 3z"/>
    <path d="M2410 3410 c-53 -53 7 -143 72 -109 31 16 38 28 38 66 0 56 -69 84 -110 43z"/>
    <path d="M2611 3404 c-12 -15 -21 -35 -21 -46 0 -25 44 -68 70 -68 28 0 70 43 70 73 0 31 -39 67 -72 67 -17 0 -34 -10 -47 -26z"/>
    <path d="M2819 3409 c-28 -28 -22 -76 13 -102 23 -17 31 -18 56 -8 37 15 55 52 42 85 -18 47 -76 60 -111 25z"/>
    <path d="M3021 3404 c-12 -15 -21 -35 -21 -46 0 -24 44 -68 68 -68 33 0 72 38 72 71 0 65 -80 93 -119 43z"/>
    <path d="M3230 3410 c-29 -29 -26 -74 6 -99 33 -26 55 -26 82 -3 32 26 37 63 12 95 -26 33 -71 36 -100 7z"/>
    <path d="M3447 3419 c-47 -28 -38 -98 15 -120 25 -10 33 -9 56 8 71 53 5 156 -71 112z"/>
    <path d="M3642 3407 c-12 -13 -22 -33 -22 -46 0 -28 42 -71 70 -71 26 0 70 43 70 68 0 11 -9 31 -21 46 -26 33 -68 34 -97 3z"/>
    <path d="M3852 3414 c-15 -10 -22 -25 -22 -49 0 -59 54 -91 99 -58 74 55 -1 160 -77 107z"/>
    <path d="M4052 3407 c-12 -13 -22 -33 -22 -46 0 -28 42 -71 70 -71 28 0 70 43 70 73 0 30 -39 67 -71 67 -14 0 -35 -10 -47 -23z"/>
    <path d="M4259 3409 c-28 -28 -22 -76 12 -102 45 -33 99 -1 99 58 0 59 -69 86 -111 44z"/>
    <path d="M4461 3404 c-12 -15 -21 -35 -21 -46 0 -25 44 -68 70 -68 28 0 70 43 70 73 0 31 -39 67 -72 67 -17 0 -34 -10 -47 -26z"/>
    <path d="M4669 3409 c-28 -28 -22 -76 13 -102 23 -17 31 -18 56 -8 37 15 55 52 42 85 -18 47 -76 60 -111 25z"/>
    <path d="M4870 3403 c-25 -32 -20 -69 12 -95 27 -23 49 -23 82 3 32 25 35 70 6 99 -29 29 -74 26 -100 -7z"/>
    <path d="M5080 3410 c-41 -41 -7 -120 52 -120 24 0 68 44 68 68 0 59 -79 93 -120 52z"/>
    <path d="M5297 3419 c-47 -28 -38 -98 15 -120 25 -10 33 -9 56 8 71 53 5 156 -71 112z"/>
    <path d="M5492 3407 c-12 -13 -22 -33 -22 -46 0 -28 42 -71 70 -71 26 0 70 43 70 68 0 11 -9 31 -21 46 -26 33 -68 34 -97 3z"/>
    <path d="M5702 3414 c-15 -10 -22 -25 -22 -49 0 -54 48 -87 92 -64 30 16 38 28 38 62 0 55 -61 84 -108 51z"/>
    <path d="M5901 3404 c-12 -15 -21 -35 -21 -46 0 -25 44 -68 70 -68 28 0 70 43 70 73 0 31 -39 67 -72 67 -17 0 -34 -10 -47 -26z"/>
    <path d="M6109 3409 c-28 -28 -22 -76 12 -102 45 -33 99 -1 99 58 0 59 -69 86 -111 44z"/>
    <path d="M6311 3404 c-27 -35 -26 -59 4 -89 30 -30 54 -31 89 -4 33 26 34 68 3 97 -32 30 -71 28 -96 -4z"/>
    <path d="M6520 3410 c-29 -29 -26 -74 6 -99 41 -32 76 -24 102 26 17 31 15 41 -13 68 -29 30 -68 32 -95 5z"/>
    <path d="M6725 3405 c-29 -28 -30 -36 -10 -75 31 -60 116 -41 123 28 7 64 -66 95 -113 47z"/>
    <path d="M6932 3407 c-30 -32 -28 -71 4 -96 35 -27 59 -26 89 4 30 30 31 54 4 89 -26 33 -68 34 -97 3z"/>
    <path d="M7147 3419 c-45 -26 -37 -98 14 -120 26 -10 34 -9 57 8 71 53 5 156 -71 112z"/>
    <path d="M7342 3407 c-12 -13 -22 -33 -22 -46 0 -28 42 -71 70 -71 26 0 70 43 70 68 0 11 -9 31 -21 46 -26 33 -68 34 -97 3z"/>
    <path d="M7550 3410 c-53 -53 7 -143 72 -109 30 16 38 28 38 62 0 34 -32 67 -65 67 -14 0 -34 -9 -45 -20z"/>
    <path d="M7751 3404 c-12 -15 -21 -35 -21 -46 0 -25 44 -68 70 -68 28 0 70 43 70 73 0 31 -39 67 -72 67 -17 0 -34 -10 -47 -26z"/>
    <path d="M7959 3409 c-28 -28 -22 -76 13 -102 23 -17 31 -18 57 -8 52 22 59 95 12 120 -30 17 -59 13 -82 -10z"/>
    <path d="M150 3200 c-43 -43 -14 -110 48 -110 57 0 82 68 39 108 -29 27 -61 28 -87 2z"/>
    <path d="M368 3209 c-31 -18 -41 -47 -28 -80 21 -50 96 -52 118 -4 26 58 -36 116 -90 84z"/>
    <path d="M562 3200 c-45 -42 -17 -110 45 -110 36 0 63 27 63 63 0 31 -35 67 -65 67 -12 0 -31 -9 -43 -20z"/>
    <path d="M777 3209 c-45 -26 -38 -103 10 -115 80 -21 125 77 53 116 -23 13 -40 12 -63 -1z"/>
    <path d="M972 3197 c-41 -44 -16 -107 42 -107 60 0 88 68 46 110 -27 27 -62 25 -88 -3z"/>
    <path d="M1182 3204 c-28 -19 -30 -74 -4 -97 25 -23 68 -21 92 3 27 27 25 56 -5 85 -28 29 -51 31 -83 9z"/>
    <path d="M1382 3197 c-12 -13 -22 -33 -22 -45 0 -31 35 -62 68 -62 57 0 83 69 42 110 -27 27 -62 25 -88 -3z"/>
    <path d="M1590 3200 c-25 -25 -26 -72 -2 -93 40 -36 112 -6 112 46 0 29 -39 67 -68 67 -12 0 -31 -9 -42 -20z"/>
    <path d="M1795 3195 c-14 -13 -25 -33 -25 -45 0 -50 79 -80 113 -42 25 27 22 78 -5 96 -32 22 -55 20 -83 -9z"/>
    <path d="M2000 3200 c-43 -43 -14 -110 48 -110 57 0 82 68 39 108 -29 27 -61 28 -87 2z"/>
    <path d="M2218 3209 c-31 -18 -41 -47 -28 -80 21 -50 96 -52 118 -4 26 58 -36 116 -90 84z"/>
    <path d="M2412 3200 c-43 -41 -17 -110 42 -110 39 0 66 26 66 63 0 31 -35 67 -65 67 -12 0 -31 -9 -43 -20z"/>
    <path d="M2627 3209 c-45 -26 -38 -103 10 -115 80 -21 125 77 53 116 -23 13 -40 12 -63 -1z"/>
    <path d="M2822 3197 c-41 -44 -16 -107 42 -107 60 0 88 68 46 110 -27 27 -62 25 -88 -3z"/>
    <path d="M3032 3204 c-28 -19 -30 -74 -4 -97 25 -23 68 -21 92 3 27 27 25 56 -5 85 -28 29 -51 31 -83 9z"/>
    <path d="M3231 3194 c-12 -15 -21 -35 -21 -45 0 -28 36 -59 68 -59 57 0 83 69 42 110 -28 28 -64 25 -89 -6z"/>
    <path d="M3440 3200 c-25 -25 -26 -72 -2 -93 40 -36 112 -6 112 46 0 29 -39 67 -68 67 -12 0 -31 -9 -42 -20z"/>
    <path d="M3645 3195 c-14 -13 -25 -32 -25 -43 0 -28 37 -62 69 -62 58 0 86 76 41 112 -30 25 -56 23 -85 -7z"/>
    <path d="M3850 3200 c-43 -43 -14 -110 48 -110 57 0 82 68 39 108 -29 27 -61 28 -87 2z"/>
    <path d="M4068 3209 c-47 -27 -42 -103 8 -115 81 -20 127 77 54 116 -23 12 -40 12 -62 -1z"/>
    <path d="M4262 3197 c-41 -44 -16 -107 42 -107 60 0 88 68 46 110 -27 27 -62 25 -88 -3z"/>
    <path d="M4470 3202 c-45 -36 -17 -112 41 -112 32 0 69 34 69 62 0 25 -44 68 -68 68 -11 0 -30 -8 -42 -18z"/>
    <path d="M4672 3197 c-12 -13 -22 -33 -22 -45 0 -31 35 -62 68 -62 57 0 83 69 42 110 -27 27 -62 25 -88 -3z"/>
    <path d="M4880 3200 c-41 -41 -14 -110 43 -110 31 0 67 32 67 59 0 29 -39 71 -66 71 -13 0 -33 -9 -44 -20z"/>
    <path d="M5085 3195 c-14 -13 -25 -33 -25 -45 0 -50 79 -80 113 -42 25 27 22 78 -5 96 -32 22 -55 20 -83 -9z"/>
    <path d="M5290 3200 c-43 -43 -14 -110 48 -110 57 0 82 68 39 108 -29 27 -61 28 -87 2z"/>
    <path d="M5508 3209 c-31 -18 -41 -47 -28 -80 21 -50 96 -52 118 -4 26 58 -36 116 -90 84z"/>
    <path d="M5702 3200 c-45 -42 -17 -110 46 -110 34 0 62 30 62 67 0 28 -37 63 -65 63 -12 0 -31 -9 -43 -20z"/>
    <path d="M5917 3209 c-45 -26 -38 -103 10 -115 80 -21 125 77 53 116 -23 13 -40 12 -63 -1z"/>
    <path d="M6112 3197 c-41 -44 -16 -107 42 -107 60 0 88 68 46 110 -27 27 -62 25 -88 -3z"/>
    <path d="M6322 3204 c-28 -19 -30 -74 -4 -97 25 -23 68 -21 92 3 27 27 25 56 -5 85 -28 29 -51 31 -83 9z"/>
    <path d="M6522 3197 c-12 -13 -22 -33 -22 -45 0 -31 35 -62 68 -62 57 0 83 69 42 110 -27 27 -62 25 -88 -3z"/>
    <path d="M6730 3200 c-25 -25 -26 -72 -2 -93 40 -36 112 -6 112 46 0 29 -39 67 -68 67 -12 0 -31 -9 -42 -20z"/>
    <path d="M6935 3195 c-14 -13 -25 -33 -25 -45 0 -50 79 -80 113 -42 25 27 22 78 -5 96 -32 22 -55 20 -83 -9z"/>
    <path d="M7140 3200 c-43 -43 -14 -110 48 -110 57 0 82 68 39 108 -29 27 -61 28 -87 2z"/>
    <path d="M7358 3209 c-31 -18 -41 -47 -28 -80 21 -50 96 -52 118 -4 26 58 -36 116 -90 84z"/>
    <path d="M7552 3200 c-45 -42 -17 -110 45 -110 36 0 63 27 63 63 0 31 -35 67 -65 67 -12 0 -31 -9 -43 -20z"/>
    <path d="M7767 3209 c-45 -26 -38 -103 10 -115 80 -21 125 77 53 116 -23 13 -40 12 -63 -1z"/>
    <path d="M7962 3197 c-41 -44 -16 -107 42 -107 60 0 88 68 46 110 -27 27 -62 25 -88 -3z"/>
    <path d="M156 2989 c-31 -25 -34 -61 -6 -89 28 -28 64 -25 89 6 27 34 26 50 -4 79 -29 30 -45 31 -79 4z"/>
    <path d="M362 2994 c-44 -30 -19 -114 34 -114 57 0 85 69 44 110 -24 24 -48 25 -78 4z"/>
    <path d="M566 2989 c-31 -25 -34 -61 -6 -89 26 -26 64 -25 90 2 27 29 25 54 -5 83 -29 30 -45 31 -79 4z"/>
    <path d="M770 2990 c-41 -41 -13 -110 46 -110 51 0 75 84 32 114 -30 21 -54 20 -78 -4z"/>
    <path d="M975 2985 c-30 -29 -31 -45 -4 -79 25 -31 61 -34 89 -6 28 28 25 64 -6 89 -34 27 -50 26 -79 -4z"/>
    <path d="M1195 2998 c-27 -15 -35 -28 -35 -60 0 -30 32 -58 66 -58 51 0 76 78 34 112 -26 21 -37 22 -65 6z"/>
    <path d="M1385 2985 c-30 -29 -31 -45 -4 -79 25 -31 61 -34 89 -6 33 33 26 76 -17 99 -31 16 -41 14 -68 -14z"/>
    <path d="M1596 2989 c-31 -25 -34 -61 -6 -89 28 -28 64 -25 89 6 27 34 26 50 -4 79 -29 30 -45 31 -79 4z"/>
    <path d="M1800 2992 c-42 -34 -17 -112 34 -112 34 0 66 28 66 58 0 33 -8 45 -37 61 -29 15 -37 14 -63 -7z"/>
    <path d="M2006 2989 c-31 -25 -34 -61 -6 -89 27 -27 62 -25 88 3 28 30 28 52 -3 82 -29 30 -45 31 -79 4z"/>
    <path d="M2210 2990 c-38 -38 -15 -110 36 -110 34 0 64 29 64 61 0 33 -31 69 -60 69 -11 0 -29 -9 -40 -20z"/>
    <path d="M2415 2985 c-30 -29 -32 -54 -5 -83 26 -27 64 -28 90 -2 28 28 25 64 -6 89 -34 27 -50 26 -79 -4z"/>
    <path d="M2620 2990 c-41 -41 -13 -110 46 -110 51 0 75 84 32 114 -30 21 -54 20 -78 -4z"/>
    <path d="M2825 2985 c-30 -29 -31 -45 -4 -79 25 -31 61 -34 89 -6 28 28 25 64 -6 89 -34 27 -50 26 -79 -4z"/>
    <path d="M3045 2998 c-41 -23 -47 -66 -15 -98 28 -28 64 -25 89 7 24 30 20 58 -11 86 -23 20 -35 21 -63 5z"/>
    <path d="M3235 2985 c-30 -29 -31 -45 -4 -79 25 -31 61 -34 89 -6 33 33 26 76 -17 99 -31 16 -41 14 -68 -14z"/>
    <path d="M3446 2989 c-31 -25 -34 -61 -6 -89 28 -28 64 -25 89 6 27 34 26 50 -4 79 -29 30 -45 31 -79 4z"/>
    <path d="M3652 2994 c-44 -30 -19 -114 34 -114 58 0 85 70 42 110 -26 24 -46 25 -76 4z"/>
    <path d="M3856 2989 c-31 -25 -34 -61 -6 -89 27 -27 62 -25 88 3 28 30 28 52 -3 82 -29 30 -45 31 -79 4z"/>
    <path d="M4060 2990 c-25 -25 -26 -72 -2 -93 41 -37 102 -9 102 46 0 32 -32 67 -60 67 -11 0 -29 -9 -40 -20z"/>
    <path d="M4265 2985 c-30 -29 -32 -54 -5 -83 26 -27 64 -28 90 -2 28 28 25 64 -6 89 -34 27 -50 26 -79 -4z"/>
    <path d="M4472 2990 c-44 -41 -16 -110 44 -110 51 0 75 84 32 114 -30 21 -50 20 -76 -4z"/>
    <path d="M4675 2985 c-30 -29 -31 -45 -4 -79 25 -31 61 -34 89 -6 28 28 25 64 -6 89 -34 27 -50 26 -79 -4z"/>
    <path d="M4895 2998 c-41 -23 -47 -66 -15 -98 28 -28 64 -25 89 6 27 34 26 50 -4 79 -27 28 -40 30 -70 13z"/>
    <path d="M5092 2993 c-31 -28 -35 -56 -11 -86 25 -32 61 -35 89 -7 33 33 26 76 -17 99 -29 15 -37 14 -61 -6z"/>
    <path d="M5296 2989 c-31 -25 -34 -61 -6 -89 28 -28 64 -25 89 6 27 34 26 50 -4 79 -29 30 -45 31 -79 4z"/>
    <path d="M5502 2994 c-44 -30 -19 -114 34 -114 57 0 85 69 44 110 -24 24 -48 25 -78 4z"/>
    <path d="M5706 2989 c-31 -25 -34 -61 -6 -89 26 -26 64 -25 90 2 27 29 25 54 -5 83 -29 30 -45 31 -79 4z"/>
    <path d="M5910 2990 c-25 -25 -26 -72 -2 -93 41 -37 102 -9 102 46 0 32 -32 67 -60 67 -11 0 -29 -9 -40 -20z"/>
    <path d="M6115 2985 c-31 -30 -32 -55 -2 -83 29 -27 61 -28 87 -2 28 28 25 64 -6 89 -34 27 -50 26 -79 -4z"/>
    <path d="M6335 2998 c-27 -15 -35 -28 -35 -60 0 -30 32 -58 66 -58 51 0 76 78 34 112 -26 21 -37 22 -65 6z"/>
    <path d="M6525 2985 c-30 -29 -31 -45 -4 -79 25 -31 61 -34 89 -6 28 28 25 64 -6 89 -34 27 -50 26 -79 -4z"/>
    <path d="M6745 2998 c-41 -23 -47 -66 -15 -98 28 -28 64 -25 89 6 27 34 26 50 -4 79 -27 28 -40 30 -70 13z"/>
    <path d="M6940 2992 c-42 -34 -17 -112 34 -112 34 0 66 28 66 58 0 33 -8 45 -37 61 -29 15 -37 14 -63 -7z"/>
    <path d="M7146 2989 c-31 -25 -34 -61 -6 -89 28 -28 64 -25 89 6 27 34 26 50 -4 79 -29 30 -45 31 -79 4z"/>
    <path d="M7352 2994 c-44 -30 -19 -114 34 -114 57 0 85 69 44 110 -24 24 -48 25 -78 4z"/>
    <path d="M7555 2985 c-14 -13 -25 -32 -25 -43 0 -27 37 -62 65 -62 30 0 65 36 65 66 0 24 -42 64 -67 64 -8 0 -25 -11 -38 -25z"/>
    <path d="M7760 2990 c-41 -41 -13 -110 46 -110 51 0 75 84 32 114 -30 21 -54 20 -78 -4z"/>
    <path d="M7965 2985 c-30 -29 -31 -45 -4 -79 25 -31 61 -34 89 -6 28 28 25 64 -6 89 -34 27 -50 26 -79 -4z"/>
    <path d="M172 2789 c-35 -13 -48 -53 -29 -83 36 -54 107 -36 107 28 0 47 -34 71 -78 55z"/>
    <path d="M372 2787 c-40 -18 -41 -86 -1 -108 22 -12 52 -5 74 17 43 44 -15 117 -73 91z"/>
    <path d="M583 2789 c-48 -18 -53 -76 -8 -105 29 -19 60 -11 81 21 30 45 -21 104 -73 84z"/>
    <path d="M790 2787 c-32 -16 -44 -39 -37 -69 9 -33 56 -54 85 -39 65 35 17 141 -48 108z"/>
    <path d="M988 2786 c-17 -8 -24 -21 -26 -48 -3 -30 1 -40 23 -54 32 -21 69 -8 87 30 22 49 -34 97 -84 72z"/>
    <path d="M1205 2790 c-51 -19 -58 -70 -14 -103 32 -23 65 -16 81 18 22 50 -19 102 -67 85z"/>
    <path d="M1410 2792 c-46 -14 -54 -82 -14 -109 23 -15 29 -15 52 -2 40 23 50 45 32 76 -16 28 -46 43 -70 35z"/>
    <path d="M1609 2786 c-35 -17 -47 -60 -25 -85 27 -30 54 -35 81 -17 60 39 7 134 -56 102z"/>
    <path d="M1812 2787 c-44 -20 -38 -97 9 -112 27 -9 73 23 77 54 7 43 -44 77 -86 58z"/>
    <path d="M2022 2789 c-35 -13 -48 -53 -29 -83 22 -33 52 -41 81 -22 61 39 17 130 -52 105z"/>
    <path d="M2432 2789 c-32 -12 -47 -56 -28 -85 21 -31 52 -39 81 -20 32 21 40 52 21 80 -18 28 -43 36 -74 25z"/>
    <path d="M2640 2787 c-32 -16 -44 -39 -37 -69 9 -33 56 -54 85 -39 65 35 17 141 -48 108z"/>
    <path d="M2838 2786 c-17 -8 -24 -21 -26 -48 -3 -30 1 -40 23 -54 32 -21 69 -8 87 30 22 49 -34 97 -84 72z"/>
    <path d="M3055 2790 c-52 -19 -58 -70 -12 -104 26 -19 30 -19 55 -5 62 34 23 133 -43 109z"/>
    <path d="M3254 2787 c-43 -24 -48 -78 -8 -104 23 -15 29 -15 52 -2 40 23 50 45 32 76 -18 32 -50 45 -76 30z"/>
    <path d="M3462 2789 c-35 -13 -48 -53 -29 -83 36 -54 107 -36 107 28 0 47 -34 71 -78 55z"/>
    <path d="M3662 2787 c-44 -20 -38 -97 9 -112 27 -9 73 23 77 54 7 43 -44 77 -86 58z"/>
    <path d="M3872 2789 c-35 -13 -48 -53 -29 -83 22 -33 52 -41 81 -22 61 39 17 130 -52 105z"/>
    <path d="M4282 2789 c-45 -17 -48 -78 -5 -106 30 -20 68 -6 85 31 21 47 -29 93 -80 75z"/>
    <path d="M4495 2790 c-51 -19 -58 -70 -14 -103 32 -23 65 -16 81 18 22 50 -19 102 -67 85z"/>
    <path d="M4688 2786 c-17 -8 -24 -21 -26 -48 -3 -30 1 -40 23 -54 32 -21 69 -8 87 30 22 49 -34 97 -84 72z"/>
    <path d="M4900 2787 c-36 -18 -48 -61 -26 -86 27 -30 54 -35 81 -17 59 39 7 134 -55 103z"/>
    <path d="M5102 2787 c-43 -19 -43 -82 0 -106 25 -14 29 -14 55 5 33 25 41 59 18 84 -21 24 -45 29 -73 17z"/>
    <path d="M5312 2789 c-35 -13 -48 -53 -29 -83 36 -54 107 -36 107 28 0 47 -34 71 -78 55z"/>
    <path d="M5512 2787 c-40 -18 -41 -86 -1 -108 22 -12 52 -5 74 17 43 44 -15 117 -73 91z"/>
    <path d="M5723 2789 c-48 -18 -53 -76 -8 -105 29 -19 60 -11 81 21 30 45 -21 104 -73 84z"/>
    <path d="M6132 2789 c-45 -17 -48 -78 -5 -106 49 -33 113 31 80 80 -18 29 -44 37 -75 26z"/>
    <path d="M6345 2790 c-51 -19 -58 -70 -14 -103 32 -23 65 -16 81 18 22 50 -19 102 -67 85z"/>
    <path d="M6550 2792 c-46 -14 -54 -82 -14 -109 23 -15 29 -15 52 -2 40 23 50 45 32 76 -16 28 -46 43 -70 35z"/>
    <path d="M6749 2786 c-35 -17 -47 -60 -25 -85 27 -30 54 -35 81 -17 60 39 7 134 -56 102z"/>
    <path d="M6952 2787 c-44 -20 -38 -97 9 -112 27 -9 73 23 77 54 7 43 -44 77 -86 58z"/>
    <path d="M7162 2789 c-35 -13 -48 -53 -29 -83 36 -54 107 -36 107 28 0 47 -34 71 -78 55z"/>
    <path d="M7362 2787 c-40 -18 -41 -86 -1 -108 22 -12 52 -5 74 17 43 44 -15 117 -73 91z"/>
    <path d="M7572 2789 c-35 -13 -48 -53 -29 -83 22 -33 52 -41 82 -22 32 21 40 52 21 80 -17 28 -43 36 -74 25z"/>
    <path d="M7780 2787 c-32 -16 -44 -39 -37 -69 9 -33 56 -54 85 -39 65 35 17 141 -48 108z"/>
    <path d="M7978 2786 c-17 -8 -24 -21 -26 -48 -3 -30 1 -40 23 -54 32 -21 69 -8 87 30 22 49 -34 97 -84 72z"/>
    <path d="M2206 2774 c-22 -21 -20 -60 4 -84 23 -23 33 -24 63 -9 28 15 37 28 37 55 0 46 -71 72 -104 38z"/>
    <path d="M4057 2772 c-10 -10 -17 -28 -17 -40 0 -25 36 -62 60 -62 25 0 60 38 60 64 0 49 -70 75 -103 38z"/>
    <path d="M5907 2772 c-18 -19 -22 -49 -9 -68 8 -13 46 -34 61 -34 20 0 51 40 51 64 0 51 -69 76 -103 38z"/>
    <path d="M158 2569 c-21 -12 -24 -69 -6 -87 17 -17 64 -15 82 4 49 48 -16 119 -76 83z"/>
    <path d="M357 2562 c-22 -25 -21 -55 2 -76 27 -25 72 -17 90 15 13 24 13 29 -2 53 -21 31 -66 35 -90 8z"/>
    <path d="M566 2564 c-34 -34 -9 -94 39 -94 30 0 55 25 55 55 0 30 -25 55 -55 55 -13 0 -31 -7 -39 -16z"/>
    <path d="M763 2554 c-15 -24 -15 -29 -2 -53 28 -49 109 -32 109 24 0 54 -77 75 -107 29z"/>
    <path d="M976 2564 c-36 -35 -9 -94 43 -94 36 0 51 17 51 57 0 49 -59 72 -94 37z"/>
    <path d="M1173 2554 c-15 -24 -15 -29 -2 -53 28 -49 109 -32 109 24 0 54 -77 75 -107 29z"/>
    <path d="M1387 2562 c-35 -38 -8 -92 45 -92 31 0 51 21 51 55 0 14 -6 32 -13 40 -17 21 -63 19 -83 -3z"/>
    <path d="M1590 2565 c-7 -8 -12 -26 -12 -40 0 -34 19 -55 52 -55 31 0 60 27 60 57 0 44 -72 71 -100 38z"/>
    <path d="M1797 2562 c-22 -25 -21 -55 2 -76 27 -25 72 -17 90 15 13 24 13 29 -2 53 -21 31 -66 35 -90 8z"/>
    <path d="M2008 2569 c-25 -14 -24 -75 1 -89 45 -23 91 -1 91 45 0 46 -50 69 -92 44z"/>
    <path d="M2207 2562 c-22 -25 -21 -55 2 -76 27 -25 72 -17 90 15 13 24 13 29 -2 53 -21 31 -66 35 -90 8z"/>
    <path d="M2416 2564 c-9 -8 -16 -26 -16 -39 0 -13 7 -31 16 -39 8 -9 26 -16 39 -16 13 0 31 7 39 16 9 8 16 26 16 39 0 13 -7 31 -16 39 -8 9 -26 16 -39 16 -13 0 -31 -7 -39 -16z"/>
    <path d="M2613 2554 c-15 -24 -15 -29 -2 -53 28 -49 109 -32 109 24 0 54 -77 75 -107 29z"/>
    <path d="M2826 2564 c-36 -35 -9 -94 43 -94 35 0 51 17 51 55 0 17 -5 36 -12 43 -17 17 -64 15 -82 -4z"/>
    <path d="M3023 2554 c-15 -24 -15 -29 -2 -53 28 -49 109 -32 109 24 0 54 -77 75 -107 29z"/>
    <path d="M3237 2562 c-22 -25 -21 -55 2 -76 27 -25 72 -17 90 15 13 24 13 29 -2 53 -21 31 -66 35 -90 8z"/>
    <path d="M3440 2565 c-7 -8 -12 -26 -12 -40 0 -34 19 -55 53 -55 34 0 59 23 59 55 0 13 -7 31 -16 39 -20 20 -68 21 -84 1z"/>
    <path d="M3647 2562 c-22 -25 -21 -55 2 -76 27 -25 72 -17 90 15 13 24 13 29 -2 53 -21 31 -66 35 -90 8z"/>
    <path d="M3856 2564 c-34 -34 -9 -94 39 -94 30 0 55 25 55 55 0 30 -25 55 -55 55 -13 0 -31 -7 -39 -16z"/>
    <path d="M4053 2554 c-15 -24 -15 -29 -2 -53 11 -20 22 -26 49 -26 27 0 38 6 49 26 13 24 13 29 -2 53 -12 18 -26 26 -47 26 -21 0 -35 -8 -47 -26z"/>
    <path d="M4266 2564 c-34 -34 -9 -94 39 -94 30 0 55 25 55 55 0 30 -25 55 -55 55 -13 0 -31 -7 -39 -16z"/>
    <path d="M4463 2554 c-15 -24 -15 -29 -2 -53 28 -49 109 -32 109 24 0 54 -77 75 -107 29z"/>
    <path d="M4676 2564 c-36 -35 -9 -94 43 -94 34 0 54 21 54 55 0 14 -6 32 -13 40 -16 20 -64 19 -84 -1z"/>
    <path d="M4873 2554 c-15 -24 -15 -29 -2 -53 28 -49 109 -32 109 24 0 54 -77 75 -107 29z"/>
    <path d="M5087 2562 c-22 -25 -21 -55 2 -76 27 -25 72 -17 90 15 13 24 13 29 -2 53 -21 31 -66 35 -90 8z"/>
    <path d="M5292 2568 c-7 -7 -12 -26 -12 -43 0 -38 16 -55 51 -55 34 0 59 24 59 55 0 13 -7 31 -16 39 -18 19 -65 21 -82 4z"/>
    <path d="M5497 2562 c-22 -25 -21 -55 2 -76 27 -25 72 -17 90 15 13 24 13 29 -2 53 -21 31 -66 35 -90 8z"/>
    <path d="M5706 2564 c-34 -34 -9 -94 39 -94 30 0 55 25 55 55 0 30 -25 55 -55 55 -13 0 -31 -7 -39 -16z"/>
    <path d="M5903 2554 c-15 -24 -15 -29 -2 -53 28 -49 109 -32 109 24 0 54 -77 75 -107 29z"/>
    <path d="M6116 2564 c-33 -32 -9 -94 35 -94 36 0 59 19 59 50 0 35 -23 60 -55 60 -13 0 -31 -7 -39 -16z"/>
    <path d="M6313 2554 c-15 -24 -15 -29 -2 -53 28 -49 109 -32 109 24 0 54 -77 75 -107 29z"/>
    <path d="M6527 2562 c-35 -38 -8 -92 45 -92 31 0 51 21 51 55 0 14 -6 32 -13 40 -17 21 -63 19 -83 -3z"/>
    <path d="M6730 2565 c-7 -8 -12 -26 -12 -40 0 -34 19 -55 52 -55 31 0 60 27 60 57 0 44 -72 71 -100 38z"/>
    <path d="M6937 2562 c-22 -25 -21 -55 2 -76 27 -25 72 -17 90 15 13 24 13 29 -2 53 -21 31 -66 35 -90 8z"/>
    <path d="M7148 2569 c-21 -12 -24 -69 -6 -87 17 -17 64 -15 82 4 49 48 -16 119 -76 83z"/>
    <path d="M7347 2562 c-22 -25 -21 -55 2 -76 27 -25 72 -17 90 15 13 24 13 29 -2 53 -21 31 -66 35 -90 8z"/>
    <path d="M7556 2564 c-34 -34 -9 -94 39 -94 30 0 55 25 55 55 0 30 -25 55 -55 55 -13 0 -31 -7 -39 -16z"/>
    <path d="M7753 2554 c-15 -24 -15 -29 -2 -53 28 -49 109 -32 109 24 0 54 -77 75 -107 29z"/>
    <path d="M7966 2564 c-36 -35 -9 -94 43 -94 36 0 51 17 51 57 0 49 -59 72 -94 37z"/>
    <path d="M156 2354 c-33 -33 -7 -94 41 -94 25 0 53 30 53 57 0 44 -63 69 -94 37z"/>
    <path d="M356 2348 c-21 -30 -20 -44 4 -68 38 -38 90 -15 90 40 0 50 -66 69 -94 28z"/>
    <path d="M567 2352 c-33 -36 -8 -92 40 -92 25 0 53 30 53 57 0 46 -62 69 -93 35z"/>
    <path d="M778 2358 c-29 -22 -27 -72 3 -88 29 -16 68 -4 81 25 23 50 -40 97 -84 63z"/>
    <path d="M977 2352 c-33 -36 -8 -92 40 -92 25 0 53 30 53 57 0 46 -62 69 -93 35z"/>
    <path d="M1186 2354 c-33 -32 -10 -94 35 -94 21 0 59 33 59 53 0 46 -62 73 -94 41z"/>
    <path d="M1383 2344 c-15 -24 -15 -29 -2 -53 18 -32 54 -39 80 -15 37 34 14 94 -36 94 -15 0 -31 -10 -42 -26z"/>
    <path d="M1596 2354 c-22 -21 -20 -57 3 -78 26 -24 62 -17 80 15 13 24 13 29 -2 53 -20 30 -57 35 -81 10z"/>
    <path d="M1796 2348 c-21 -30 -20 -44 4 -68 36 -36 90 -16 90 35 0 52 -65 74 -94 33z"/>
    <path d="M2007 2352 c-33 -36 -8 -92 40 -92 25 0 53 30 53 57 0 46 -62 69 -93 35z"/>
    <path d="M2205 2346 c-32 -48 22 -104 74 -76 30 16 32 66 3 88 -25 19 -60 14 -77 -12z"/>
    <path d="M2417 2352 c-33 -36 -8 -92 40 -92 25 0 53 30 53 57 0 46 -62 69 -93 35z"/>
    <path d="M2628 2359 c-38 -22 -12 -99 33 -99 21 0 59 33 59 53 0 43 -53 69 -92 46z"/>
    <path d="M2827 2352 c-22 -24 -21 -55 1 -75 36 -33 92 -8 92 41 0 47 -61 69 -93 34z"/>
    <path d="M3036 2354 c-33 -32 -10 -94 35 -94 21 0 59 33 59 53 0 46 -62 73 -94 41z"/>
    <path d="M3236 2348 c-21 -30 -20 -44 4 -68 36 -36 90 -16 90 35 0 52 -65 74 -94 33z"/>
    <path d="M3446 2354 c-34 -33 -7 -94 42 -94 22 0 52 34 52 61 0 41 -64 63 -94 33z"/>
    <path d="M3646 2348 c-21 -30 -20 -44 4 -68 38 -38 90 -15 90 40 0 50 -66 69 -94 28z"/>
    <path d="M3857 2352 c-33 -36 -8 -92 40 -92 25 0 53 30 53 57 0 46 -62 69 -93 35z"/>
    <path d="M4066 2357 c-38 -28 -13 -97 34 -97 28 0 53 25 53 55 0 30 -25 55 -53 55 -9 0 -24 -6 -34 -13z"/>
    <path d="M4267 2352 c-33 -36 -8 -92 40 -92 25 0 53 30 53 57 0 46 -62 69 -93 35z"/>
    <path d="M4478 2359 c-38 -22 -12 -99 33 -99 21 0 59 33 59 53 0 43 -53 69 -92 46z"/>
    <path d="M4677 2352 c-21 -23 -21 -41 -1 -70 28 -41 94 -16 94 36 0 47 -61 69 -93 34z"/>
    <path d="M4886 2354 c-33 -32 -10 -94 35 -94 21 0 59 33 59 53 0 46 -62 73 -94 41z"/>
    <path d="M5086 2348 c-21 -30 -20 -44 4 -68 36 -36 90 -16 90 35 0 52 -65 74 -94 33z"/>
    <path d="M5296 2354 c-33 -33 -7 -94 41 -94 25 0 53 30 53 57 0 44 -63 69 -94 37z"/>
    <path d="M5496 2348 c-21 -30 -20 -44 4 -68 38 -38 90 -15 90 40 0 50 -66 69 -94 28z"/>
    <path d="M5707 2352 c-33 -36 -8 -92 40 -92 25 0 53 30 53 57 0 46 -62 69 -93 35z"/>
    <path d="M5918 2358 c-29 -22 -27 -72 3 -88 52 -28 106 28 74 76 -17 26 -52 31 -77 12z"/>
    <path d="M6117 2352 c-33 -36 -8 -92 40 -92 25 0 53 30 53 57 0 46 -62 69 -93 35z"/>
    <path d="M6326 2354 c-33 -32 -10 -94 35 -94 21 0 59 33 59 53 0 46 -62 73 -94 41z"/>
    <path d="M6523 2344 c-15 -24 -15 -29 -2 -53 18 -32 54 -39 80 -15 37 34 14 94 -36 94 -15 0 -31 -10 -42 -26z"/>
    <path d="M6736 2354 c-22 -21 -20 -57 3 -78 26 -24 62 -17 80 15 13 24 13 29 -2 53 -20 30 -57 35 -81 10z"/>
    <path d="M6936 2348 c-21 -30 -20 -44 4 -68 36 -36 90 -16 90 35 0 52 -65 74 -94 33z"/>
    <path d="M7147 2352 c-33 -36 -8 -92 40 -92 25 0 53 30 53 57 0 46 -62 69 -93 35z"/>
    <path d="M7344 2345 c-32 -49 23 -104 75 -75 30 16 32 66 3 88 -26 20 -60 14 -78 -13z"/>
    <path d="M7557 2352 c-33 -36 -8 -92 40 -92 25 0 53 30 53 57 0 46 -62 69 -93 35z"/>
    <path d="M7768 2359 c-38 -22 -12 -99 33 -99 21 0 59 33 59 53 0 43 -53 69 -92 46z"/>
    <path d="M7967 2352 c-22 -24 -21 -55 1 -75 36 -33 92 -8 92 41 0 47 -61 69 -93 34z"/>
    <path d="M157 2142 c-20 -22 -21 -42 -4 -66 14 -19 62 -25 77 -10 20 22 21 53 1 73 -26 26 -53 27 -74 3z"/>
    <path d="M366 2144 c-24 -24 -20 -61 9 -80 23 -15 27 -15 50 0 42 28 24 96 -25 96 -10 0 -26 -7 -34 -16z"/>
    <path d="M564 2135 c-30 -46 10 -94 63 -74 30 11 38 45 19 74 -22 33 -60 33 -82 0z"/>
    <path d="M776 2144 c-24 -24 -20 -61 9 -80 23 -15 27 -15 50 0 42 28 24 96 -25 96 -10 0 -26 -7 -34 -16z"/>
    <path d="M979 2139 c-14 -14 -18 -27 -13 -42 9 -32 19 -39 50 -39 48 0 71 54 36 85 -25 23 -48 21 -73 -4z"/>
    <path d="M1187 2142 c-24 -27 -21 -59 8 -78 23 -15 27 -15 50 0 46 30 26 96 -28 96 -8 0 -21 -8 -30 -18z"/>
    <path d="M1398 2148 c-16 -13 -22 -29 -19 -55 0 -7 12 -20 26 -29 23 -15 27 -15 50 0 30 20 33 56 7 79 -22 20 -42 21 -64 5z"/>
    <path d="M1597 2142 c-24 -27 -21 -59 8 -78 23 -15 27 -15 50 0 25 16 29 26 25 56 -2 19 -29 40 -50 40 -9 0 -24 -8 -33 -18z"/>
    <path d="M1808 2149 c-27 -16 -23 -65 7 -85 23 -15 27 -15 50 0 30 20 33 56 7 79 -21 19 -39 21 -64 6z"/>
    <path d="M2007 2142 c-20 -22 -21 -42 -4 -66 14 -19 62 -25 77 -10 20 22 21 53 1 73 -26 26 -53 27 -74 3z"/>
    <path d="M2216 2144 c-24 -24 -20 -61 9 -80 23 -15 27 -15 50 0 42 28 24 96 -25 96 -10 0 -26 -7 -34 -16z"/>
    <path d="M2420 2140 c-11 -11 -20 -26 -20 -33 0 -51 81 -68 102 -22 9 19 8 29 -6 50 -20 30 -49 32 -76 5z"/>
    <path d="M2627 2142 c-24 -27 -21 -59 8 -78 23 -15 27 -15 50 0 29 19 33 56 9 80 -21 21 -47 20 -67 -2z"/>
    <path d="M2829 2139 c-11 -11 -18 -27 -15 -36 3 -8 6 -19 6 -24 0 -17 50 -30 71 -19 28 15 35 57 14 80 -23 26 -50 25 -76 -1z"/>
    <path d="M3037 2142 c-24 -27 -21 -59 8 -78 23 -15 27 -15 50 0 46 30 26 96 -28 96 -8 0 -21 -8 -30 -18z"/>
    <path d="M3248 2149 c-27 -16 -23 -65 7 -85 23 -15 27 -15 50 0 30 20 33 56 7 79 -21 19 -39 21 -64 6z"/>
    <path d="M3445 2140 c-21 -23 -14 -64 14 -79 54 -29 102 49 53 87 -23 17 -46 15 -67 -8z"/>
    <path d="M3656 2144 c-24 -24 -20 -61 9 -80 23 -15 27 -15 50 0 30 20 33 56 7 79 -23 21 -46 22 -66 1z"/>
    <path d="M3854 2135 c-14 -21 -15 -31 -6 -50 21 -46 102 -29 102 22 0 20 -37 53 -60 53 -11 0 -27 -11 -36 -25z"/>
    <path d="M4066 2144 c-24 -24 -20 -61 9 -80 23 -15 27 -15 50 0 42 28 24 96 -25 96 -10 0 -26 -7 -34 -16z"/>
    <path d="M4270 2140 c-11 -11 -20 -26 -20 -33 0 -51 81 -68 102 -22 9 19 8 29 -6 50 -20 30 -49 32 -76 5z"/>
    <path d="M4477 2142 c-24 -27 -21 -59 8 -78 23 -15 27 -15 50 0 29 19 33 56 9 80 -21 21 -47 20 -67 -2z"/>
    <path d="M4688 2148 c-31 -24 -27 -75 8 -88 52 -20 96 40 59 80 -21 23 -44 25 -67 8z"/>
    <path d="M4887 2142 c-24 -27 -21 -59 8 -78 23 -15 27 -15 50 0 46 30 26 96 -28 96 -8 0 -21 -8 -30 -18z"/>
    <path d="M5098 2149 c-27 -16 -23 -65 7 -85 23 -15 27 -15 50 0 30 20 33 56 7 79 -21 19 -39 21 -64 6z"/>
    <path d="M5297 2142 c-32 -35 -10 -84 37 -84 35 0 49 13 49 48 0 48 -55 71 -86 36z"/>
    <path d="M5506 2144 c-24 -24 -20 -61 9 -80 23 -15 27 -15 50 0 30 20 33 56 7 79 -23 21 -46 22 -66 1z"/>
    <path d="M5704 2135 c-14 -21 -15 -31 -6 -50 21 -46 102 -29 102 22 0 20 -37 53 -60 53 -11 0 -27 -11 -36 -25z"/>
    <path d="M5916 2144 c-24 -24 -20 -61 9 -80 23 -15 27 -15 50 0 42 28 24 96 -25 96 -10 0 -26 -7 -34 -16z"/>
    <path d="M6119 2139 c-14 -14 -18 -27 -13 -42 9 -32 19 -39 50 -39 48 0 71 54 36 85 -25 23 -48 21 -73 -4z"/>
    <path d="M6327 2142 c-24 -27 -21 -59 8 -78 23 -15 27 -15 50 0 46 30 26 96 -28 96 -8 0 -21 -8 -30 -18z"/>
    <path d="M6538 2148 c-16 -13 -22 -29 -19 -55 0 -7 12 -20 26 -29 23 -15 27 -15 50 0 30 20 33 56 7 79 -22 20 -42 21 -64 5z"/>
    <path d="M6737 2142 c-24 -27 -21 -59 8 -78 23 -15 27 -15 50 0 25 16 29 26 25 56 -2 19 -29 40 -50 40 -9 0 -24 -8 -33 -18z"/>
    <path d="M6948 2149 c-27 -16 -23 -65 7 -85 23 -15 27 -15 50 0 30 20 33 56 7 79 -21 19 -39 21 -64 6z"/>
    <path d="M7147 2142 c-20 -22 -21 -42 -4 -66 14 -19 62 -25 77 -10 20 22 21 53 1 73 -26 26 -53 27 -74 3z"/>
    <path d="M7356 2144 c-24 -24 -20 -61 9 -80 23 -15 27 -15 50 0 42 28 24 96 -25 96 -10 0 -26 -7 -34 -16z"/>
    <path d="M7554 2135 c-30 -46 10 -94 63 -74 30 11 38 45 19 74 -22 33 -60 33 -82 0z"/>
    <path d="M7766 2144 c-24 -24 -20 -61 9 -80 23 -15 27 -15 50 0 42 28 24 96 -25 96 -10 0 -26 -7 -34 -16z"/>
    <path d="M7969 2139 c-14 -14 -18 -27 -13 -42 9 -32 19 -39 50 -39 48 0 71 54 36 85 -25 23 -48 21 -73 -4z"/>
    <path d="M160 1930 c-24 -24 -24 -29 -4 -58 17 -24 53 -29 72 -10 17 17 15 54 -4 72 -21 21 -40 20 -64 -4z"/>
    <path d="M372 1934 c-12 -8 -22 -26 -22 -38 0 -54 77 -64 95 -12 8 24 6 31 -14 47 -28 23 -31 23 -59 3z"/>
    <path d="M578 1939 c-21 -12 -24 -59 -6 -77 7 -7 21 -12 33 -12 12 0 26 5 33 12 19 19 15 66 -7 78 -24 12 -31 12 -53 -1z"/>
    <path d="M779 1931 c-20 -16 -22 -23 -14 -47 18 -52 95 -42 95 12 0 20 -32 54 -51 54 -4 0 -17 -9 -30 -19z"/>
    <path d="M986 1934 c-19 -18 -21 -55 -4 -72 19 -19 55 -14 72 9 16 23 12 47 -12 67 -21 16 -37 15 -56 -4z"/>
    <path d="M1190 1930 c-24 -24 -25 -43 -4 -64 18 -19 55 -21 72 -4 19 19 14 55 -10 72 -29 20 -34 20 -58 -4z"/>
    <path d="M1397 1932 c-46 -51 19 -115 67 -66 21 21 20 40 -4 64 -25 25 -42 25 -63 2z"/>
    <path d="M1600 1930 c-24 -24 -25 -43 -4 -64 18 -19 55 -21 72 -4 17 17 15 54 -4 72 -21 21 -40 20 -64 -4z"/>
    <path d="M1812 1934 c-27 -18 -27 -61 -1 -77 50 -31 105 38 59 75 -27 22 -30 22 -58 2z"/>
    <path d="M2018 1938 c-24 -20 -28 -44 -12 -67 17 -23 53 -28 72 -9 19 19 15 66 -7 78 -25 13 -34 13 -53 -2z"/>
    <path d="M2222 1934 c-12 -8 -22 -26 -22 -38 0 -54 77 -64 95 -12 8 24 6 31 -14 47 -28 23 -31 23 -59 3z"/>
    <path d="M2428 1939 c-21 -12 -24 -59 -6 -77 7 -7 21 -12 33 -12 12 0 26 5 33 12 19 19 15 66 -7 78 -24 12 -31 12 -53 -1z"/>
    <path d="M2629 1931 c-20 -16 -22 -23 -14 -47 18 -52 95 -42 95 12 0 20 -32 54 -51 54 -4 0 -17 -9 -30 -19z"/>
    <path d="M2836 1934 c-19 -18 -21 -55 -4 -72 19 -19 55 -14 72 10 20 29 20 34 -4 58 -24 24 -43 25 -64 4z"/>
    <path d="M3040 1930 c-24 -24 -25 -43 -4 -64 18 -19 55 -21 72 -4 19 19 14 55 -10 72 -29 20 -34 20 -58 -4z"/>
    <path d="M3247 1932 c-46 -51 19 -115 67 -66 21 21 20 40 -4 64 -25 25 -42 25 -63 2z"/>
    <path d="M3450 1930 c-24 -24 -24 -29 -4 -58 17 -24 53 -29 72 -10 17 17 15 54 -4 72 -21 21 -40 20 -64 -4z"/>
    <path d="M3662 1934 c-27 -18 -27 -61 -1 -77 50 -31 105 38 59 75 -27 22 -30 22 -58 2z"/>
    <path d="M3868 1938 c-24 -20 -28 -44 -12 -67 17 -23 53 -28 72 -9 19 19 15 66 -7 78 -25 13 -34 13 -53 -2z"/>
    <path d="M4069 1931 c-20 -16 -22 -23 -14 -47 9 -24 16 -29 45 -29 29 0 36 5 45 29 8 24 6 31 -14 47 -13 10 -27 19 -31 19 -4 0 -18 -9 -31 -19z"/>
    <path d="M4278 1939 c-21 -12 -24 -59 -6 -77 19 -19 55 -14 72 9 16 23 12 47 -12 67 -19 14 -31 15 -54 1z"/>
    <path d="M4480 1932 c-46 -37 9 -106 59 -75 26 16 26 59 -1 77 -28 20 -31 20 -58 -2z"/>
    <path d="M4686 1934 c-19 -18 -21 -55 -4 -72 19 -19 55 -14 72 10 20 29 20 34 -4 58 -24 24 -43 25 -64 4z"/>
    <path d="M4890 1930 c-24 -24 -25 -43 -4 -64 18 -19 55 -21 72 -4 18 18 15 53 -6 71 -24 22 -38 21 -62 -3z"/>
    <path d="M5102 1934 c-24 -17 -29 -53 -10 -72 27 -27 88 -3 88 34 0 15 -35 54 -48 54 -4 0 -18 -7 -30 -16z"/>
    <path d="M5300 1930 c-24 -24 -24 -29 -4 -58 17 -24 53 -29 72 -10 17 17 15 54 -4 72 -21 21 -40 20 -64 -4z"/>
    <path d="M5512 1934 c-12 -8 -22 -26 -22 -38 0 -54 77 -64 95 -12 8 24 6 31 -14 47 -28 23 -31 23 -59 3z"/>
    <path d="M5718 1939 c-21 -12 -24 -59 -6 -77 7 -7 21 -12 33 -12 12 0 26 5 33 12 19 19 15 66 -7 78 -24 12 -31 12 -53 -1z"/>
    <path d="M5919 1931 c-20 -16 -22 -23 -14 -47 9 -24 16 -29 45 -29 29 0 36 5 45 29 8 24 6 31 -14 47 -13 10 -27 19 -31 19 -4 0 -18 -9 -31 -19z"/>
    <path d="M6128 1939 c-21 -12 -24 -59 -6 -77 19 -19 55 -14 72 9 16 23 12 47 -12 67 -19 14 -31 15 -54 1z"/>
    <path d="M6330 1932 c-46 -37 9 -106 59 -75 26 16 26 59 -1 77 -28 20 -31 20 -58 -2z"/>
    <path d="M6536 1934 c-19 -18 -21 -55 -4 -72 27 -27 88 -3 88 34 0 18 -36 54 -54 54 -8 0 -22 -7 -30 -16z"/>
    <path d="M6740 1930 c-24 -24 -25 -43 -4 -64 18 -19 55 -21 72 -4 18 18 15 53 -6 71 -24 22 -38 21 -62 -3z"/>
    <path d="M6952 1934 c-24 -17 -29 -53 -10 -72 27 -27 88 -3 88 34 0 15 -35 54 -48 54 -4 0 -18 -7 -30 -16z"/>
    <path d="M7150 1930 c-24 -24 -24 -29 -4 -58 17 -24 53 -29 72 -10 17 17 15 54 -4 72 -21 21 -40 20 -64 -4z"/>
    <path d="M7362 1934 c-12 -8 -22 -26 -22 -38 0 -54 77 -64 95 -12 8 24 6 31 -14 47 -28 23 -31 23 -59 3z"/>
    <path d="M7568 1939 c-21 -12 -24 -59 -6 -77 7 -7 21 -12 33 -12 12 0 26 5 33 12 19 19 15 66 -7 78 -24 12 -31 12 -53 -1z"/>
    <path d="M7769 1931 c-20 -16 -22 -23 -14 -47 18 -52 95 -42 95 12 0 20 -32 54 -51 54 -4 0 -17 -9 -30 -19z"/>
    <path d="M7976 1934 c-19 -18 -21 -55 -4 -72 19 -19 55 -14 72 10 20 29 20 34 -4 58 -24 24 -43 25 -64 4z"/>
    <path d="M178 1733 c-22 -5 -35 -50 -21 -72 23 -37 88 -12 81 32 -4 24 -36 45 -60 40z"/>
    <path d="M582 1724 c-49 -34 -6 -103 47 -74 28 14 25 57 -4 76 -18 12 -24 11 -43 -2z"/>
    <path d="M990 1722 c-30 -24 -21 -69 15 -78 52 -13 75 52 29 83 -19 12 -24 11 -44 -5z"/>
    <path d="M2022 1724 c-46 -32 -16 -96 36 -78 34 12 38 59 7 80 -18 12 -24 11 -43 -2z"/>
    <path d="M2432 1724 c-49 -34 -6 -103 47 -74 28 14 25 57 -4 76 -18 12 -24 11 -43 -2z"/>
    <path d="M2839 1721 c-17 -13 -20 -24 -15 -44 12 -50 86 -45 86 7 0 45 -38 64 -71 37z"/>
    <path d="M3872 1724 c-46 -32 -16 -96 36 -78 34 12 38 59 7 80 -18 12 -24 11 -43 -2z"/>
    <path d="M4282 1724 c-31 -21 -29 -61 4 -76 18 -9 30 -9 42 -1 24 14 22 63 -3 79 -18 12 -24 11 -43 -2z"/>
    <path d="M5318 1733 c-22 -5 -35 -50 -21 -72 23 -37 88 -12 81 32 -4 24 -36 45 -60 40z"/>
    <path d="M5722 1724 c-49 -34 -6 -103 47 -74 28 14 25 57 -4 76 -18 12 -24 11 -43 -2z"/>
    <path d="M6132 1724 c-31 -21 -29 -61 4 -76 18 -9 30 -9 42 -1 24 14 22 63 -3 79 -18 12 -24 11 -43 -2z"/>
    <path d="M7168 1733 c-22 -5 -35 -50 -21 -72 23 -37 88 -12 81 32 -4 24 -36 45 -60 40z"/>
    <path d="M7572 1724 c-49 -34 -6 -103 47 -74 28 14 25 57 -4 76 -18 12 -24 11 -43 -2z"/>
    <path d="M7979 1721 c-17 -13 -20 -24 -15 -44 12 -50 86 -45 86 7 0 45 -38 64 -71 37z"/>
    <path d="M358 1705 c-9 -21 -8 -28 7 -45 24 -27 51 -25 70 4 23 34 5 66 -36 66 -22 0 -32 -6 -41 -25z"/>
    <path d="M770 1709 c-9 -16 -8 -26 5 -45 19 -29 46 -31 70 -4 15 17 16 24 7 45 -15 32 -66 35 -82 4z"/>
    <path d="M1181 1708 c-15 -41 14 -74 54 -64 29 7 43 49 25 71 -20 24 -69 19 -79 -7z"/>
    <path d="M1391 1716 c-20 -23 -5 -65 24 -72 35 -9 57 12 53 50 -3 27 -7 31 -34 34 -19 2 -36 -3 -43 -12z"/>
    <path d="M1597 1723 c-13 -12 -7 -60 8 -73 38 -31 96 27 65 65 -13 15 -61 21 -73 8z"/>
    <path d="M1801 1716 c-20 -24 -5 -65 26 -72 35 -9 66 26 54 59 -10 27 -62 35 -80 13z"/>
    <path d="M2208 1705 c-9 -21 -8 -28 7 -45 24 -27 51 -25 70 4 23 34 5 66 -36 66 -22 0 -32 -6 -41 -25z"/>
    <path d="M2620 1709 c-9 -16 -8 -26 5 -45 19 -29 46 -31 70 -4 15 17 16 24 7 45 -15 32 -66 35 -82 4z"/>
    <path d="M3037 1723 c-13 -12 -7 -60 8 -73 38 -31 96 27 65 65 -13 15 -61 21 -73 8z"/>
    <path d="M3241 1716 c-20 -23 -5 -65 24 -72 35 -9 57 12 53 50 -3 27 -7 31 -34 34 -19 2 -36 -3 -43 -12z"/>
    <path d="M3447 1723 c-13 -12 -7 -60 8 -73 38 -31 96 27 65 65 -13 15 -61 21 -73 8z"/>
    <path d="M3652 1718 c-26 -26 2 -78 41 -78 27 0 51 44 37 69 -12 24 -58 29 -78 9z"/>
    <path d="M4058 1705 c-9 -21 -8 -28 7 -45 10 -11 26 -20 35 -20 9 0 25 9 35 20 27 30 7 70 -35 70 -23 0 -33 -6 -42 -25z"/>
    <path d="M4470 1709 c-14 -25 11 -69 39 -69 21 0 51 30 51 51 0 41 -71 55 -90 18z"/>
    <path d="M4681 1716 c-20 -23 -5 -65 24 -72 35 -9 57 12 53 50 -3 27 -7 31 -34 34 -19 2 -36 -3 -43 -12z"/>
    <path d="M4887 1723 c-13 -12 -7 -60 8 -73 38 -31 96 27 65 65 -13 15 -61 21 -73 8z"/>
    <path d="M5091 1716 c-20 -23 -5 -65 24 -72 35 -9 57 12 53 50 -3 27 -7 31 -34 34 -19 2 -36 -3 -43 -12z"/>
    <path d="M5498 1705 c-9 -21 -8 -28 7 -45 24 -27 51 -25 70 4 23 34 5 66 -36 66 -22 0 -32 -6 -41 -25z"/>
    <path d="M5910 1709 c-9 -16 -8 -26 5 -45 19 -29 46 -31 70 -4 15 17 16 24 7 45 -15 32 -66 35 -82 4z"/>
    <path d="M6321 1708 c-15 -41 14 -74 54 -64 29 7 43 49 25 71 -20 24 -69 19 -79 -7z"/>
    <path d="M6531 1716 c-20 -23 -5 -65 24 -72 35 -9 57 12 53 50 -3 27 -7 31 -34 34 -19 2 -36 -3 -43 -12z"/>
    <path d="M6737 1723 c-13 -12 -7 -60 8 -73 38 -31 96 27 65 65 -13 15 -61 21 -73 8z"/>
    <path d="M6941 1716 c-20 -24 -5 -65 26 -72 35 -9 66 26 54 59 -10 27 -62 35 -80 13z"/>
    <path d="M7348 1705 c-9 -21 -8 -28 7 -45 24 -27 51 -25 70 4 23 34 5 66 -36 66 -22 0 -32 -6 -41 -25z"/>
    <path d="M7760 1709 c-9 -16 -8 -26 5 -45 19 -29 46 -31 70 -4 15 17 16 24 7 45 -15 32 -66 35 -82 4z"/>
    <path d="M160 1505 c-17 -20 -5 -61 20 -68 11 -3 30 3 42 13 20 15 21 21 10 44 -13 30 -52 36 -72 11z"/>
    <path d="M367 1513 c-15 -15 -7 -63 13 -73 42 -22 82 34 48 68 -13 13 -50 16 -61 5z"/>
    <path d="M572 1508 c-19 -19 -14 -45 10 -62 19 -13 25 -14 43 -2 25 16 31 42 15 61 -15 18 -52 19 -68 3z"/>
    <path d="M783 1514 c-21 -9 -16 -62 7 -74 33 -17 62 4 58 43 -2 26 -8 32 -28 34 -14 1 -31 -1 -37 -3z"/>
    <path d="M982 1508 c-19 -19 -14 -45 10 -62 19 -13 25 -14 43 -2 25 16 31 42 15 61 -15 18 -52 19 -68 3z"/>
    <path d="M1192 1508 c-20 -20 -14 -58 11 -67 41 -16 77 22 57 60 -12 21 -50 25 -68 7z"/>
    <path d="M1390 1500 c-12 -22 0 -55 22 -63 39 -13 74 37 48 68 -18 21 -57 19 -70 -5z"/>
    <path d="M1600 1505 c-17 -20 -5 -61 20 -68 11 -3 30 3 42 13 20 15 21 21 10 44 -13 30 -52 36 -72 11z"/>
    <path d="M1800 1501 c-20 -38 16 -76 58 -60 24 9 30 47 10 67 -18 18 -56 14 -68 -7z"/>
    <path d="M2012 1508 c-19 -19 -14 -45 10 -62 19 -13 25 -14 43 -2 25 16 31 42 15 61 -15 18 -52 19 -68 3z"/>
    <path d="M2217 1514 c-15 -15 -7 -63 13 -74 33 -17 62 4 58 43 -3 27 -7 32 -33 35 -17 2 -34 0 -38 -4z"/>
    <path d="M2422 1508 c-19 -19 -14 -45 10 -62 19 -13 25 -14 43 -2 25 16 31 42 15 61 -15 18 -52 19 -68 3z"/>
    <path d="M2632 1508 c-34 -34 6 -91 49 -68 31 17 23 74 -11 78 -14 2 -31 -3 -38 -10z"/>
    <path d="M2828 1494 c-11 -23 -10 -29 10 -44 28 -23 60 -15 68 16 13 53 -56 77 -78 28z"/>
    <path d="M3042 1508 c-20 -20 -14 -58 11 -67 41 -16 77 22 57 60 -12 21 -50 25 -68 7z"/>
    <path d="M3240 1500 c-12 -22 0 -55 22 -63 39 -13 74 37 48 68 -18 21 -57 19 -70 -5z"/>
    <path d="M3450 1505 c-17 -20 -5 -61 20 -68 11 -3 30 3 42 13 20 15 21 21 10 44 -13 30 -52 36 -72 11z"/>
    <path d="M3651 1498 c-15 -42 15 -73 57 -57 24 9 30 47 10 67 -20 20 -58 14 -67 -10z"/>
    <path d="M3862 1508 c-19 -19 -14 -45 10 -62 19 -13 25 -14 43 -2 25 16 31 42 15 61 -15 18 -52 19 -68 3z"/>
    <path d="M4067 1514 c-15 -15 -7 -63 13 -74 33 -17 62 4 58 43 -3 27 -7 32 -33 35 -17 2 -34 0 -38 -4z"/>
    <path d="M4272 1508 c-19 -19 -14 -45 10 -62 19 -13 25 -14 43 -2 25 16 31 42 15 61 -15 18 -52 19 -68 3z"/>
    <path d="M4481 1506 c-34 -41 21 -94 59 -56 15 15 17 25 11 42 -10 27 -52 36 -70 14z"/>
    <path d="M4678 1494 c-11 -23 -10 -29 10 -44 28 -23 60 -15 68 16 13 53 -56 77 -78 28z"/>
    <path d="M4890 1505 c-16 -19 -5 -61 17 -67 25 -7 42 1 53 23 23 43 -39 82 -70 44z"/>
    <path d="M5090 1501 c-20 -38 16 -76 58 -60 24 9 30 47 10 67 -18 18 -56 14 -68 -7z"/>
    <path d="M5300 1505 c-17 -20 -5 -61 20 -68 11 -3 30 3 42 13 20 15 21 21 10 44 -13 30 -52 36 -72 11z"/>
    <path d="M5507 1513 c-15 -15 -7 -63 13 -73 42 -22 82 34 48 68 -13 13 -50 16 -61 5z"/>
    <path d="M5712 1508 c-19 -19 -14 -45 10 -62 19 -13 25 -14 43 -2 25 16 31 42 15 61 -15 18 -52 19 -68 3z"/>
    <path d="M5917 1514 c-15 -15 -7 -63 13 -74 33 -17 62 4 58 43 -3 27 -7 32 -33 35 -17 2 -34 0 -38 -4z"/>
    <path d="M6122 1508 c-19 -19 -14 -45 10 -62 19 -13 25 -14 43 -2 25 16 31 42 15 61 -15 18 -52 19 -68 3z"/>
    <path d="M6332 1508 c-20 -20 -14 -58 11 -67 41 -16 77 22 57 60 -12 21 -50 25 -68 7z"/>
    <path d="M6528 1494 c-11 -23 -10 -29 10 -44 28 -23 60 -15 68 16 13 53 -56 77 -78 28z"/>
    <path d="M6740 1505 c-16 -19 -5 -61 17 -67 25 -7 42 1 53 23 23 43 -39 82 -70 44z"/>
    <path d="M6940 1501 c-20 -38 16 -76 58 -60 24 9 30 47 10 67 -18 18 -56 14 -68 -7z"/>
    <path d="M7152 1508 c-19 -19 -14 -45 10 -62 19 -13 25 -14 43 -2 25 16 31 42 15 61 -15 18 -52 19 -68 3z"/>
    <path d="M7357 1513 c-4 -3 -7 -19 -7 -34 0 -35 30 -55 60 -39 25 13 28 65 4 74 -21 8 -49 8 -57 -1z"/>
    <path d="M7562 1508 c-19 -19 -14 -45 10 -62 19 -13 25 -14 43 -2 25 16 31 42 15 61 -15 18 -52 19 -68 3z"/>
    <path d="M7772 1508 c-34 -34 6 -91 49 -68 31 17 23 74 -11 78 -14 2 -31 -3 -38 -10z"/>
    <path d="M7972 1508 c-29 -29 7 -82 49 -71 24 7 36 48 19 68 -15 18 -51 20 -68 3z"/>
    <path d="M158 1285 c-14 -30 3 -55 38 -55 29 0 45 27 33 58 -12 31 -56 30 -71 -3z"/>
    <path d="M370 1295 c-26 -32 13 -81 48 -59 34 22 22 74 -18 74 -10 0 -23 -7 -30 -15z"/>
    <path d="M570 1290 c-15 -28 4 -60 35 -60 31 0 50 32 35 60 -6 12 -21 20 -35 20 -14 0 -29 -8 -35 -20z"/>
    <path d="M780 1295 c-26 -32 13 -81 48 -59 34 22 22 74 -18 74 -10 0 -23 -7 -30 -15z"/>
    <path d="M981 1288 c-12 -31 4 -58 33 -58 35 0 52 25 38 55 -15 33 -59 34 -71 3z"/>
    <path d="M1192 1298 c-30 -30 0 -75 43 -64 41 11 29 76 -15 76 -9 0 -21 -5 -28 -12z"/>
    <path d="M1402 1301 c-8 -4 -12 -21 -10 -37 2 -25 7 -29 32 -29 36 0 56 27 40 53 -13 19 -43 26 -62 13z"/>
    <path d="M1602 1298 c-29 -29 -2 -72 40 -66 17 2 24 11 26 32 5 41 -37 63 -66 34z"/>
    <path d="M1812 1298 c-7 -7 -12 -22 -12 -35 0 -27 42 -42 65 -23 28 23 11 70 -25 70 -9 0 -21 -5 -28 -12z"/>
    <path d="M2010 1290 c-15 -28 4 -60 35 -60 31 0 50 32 35 60 -6 12 -21 20 -35 20 -14 0 -29 -8 -35 -20z"/>
    <path d="M2220 1295 c-26 -32 13 -81 48 -59 34 22 22 74 -18 74 -10 0 -23 -7 -30 -15z"/>
    <path d="M2420 1290 c-15 -28 4 -60 35 -60 31 0 50 32 35 60 -6 12 -21 20 -35 20 -14 0 -29 -8 -35 -20z"/>
    <path d="M2630 1295 c-26 -32 13 -81 48 -59 34 22 22 74 -18 74 -10 0 -23 -7 -30 -15z"/>
    <path d="M2834 1296 c-3 -8 -4 -25 -2 -38 2 -18 9 -23 32 -23 36 0 56 27 40 53 -14 22 -62 28 -70 8z"/>
    <path d="M3042 1298 c-29 -29 -2 -72 40 -66 42 6 32 78 -11 78 -9 0 -22 -5 -29 -12z"/>
    <path d="M3252 1301 c-8 -4 -12 -21 -10 -37 2 -25 7 -29 32 -29 36 0 56 27 40 53 -13 19 -43 26 -62 13z"/>
    <path d="M3452 1298 c-29 -29 -2 -72 40 -66 17 2 24 11 26 32 5 41 -37 63 -66 34z"/>
    <path d="M3660 1295 c-26 -32 13 -81 48 -59 34 22 22 74 -18 74 -10 0 -23 -7 -30 -15z"/>
    <path d="M3860 1290 c-15 -28 4 -60 35 -60 31 0 50 32 35 60 -6 12 -21 20 -35 20 -14 0 -29 -8 -35 -20z"/>
    <path d="M4070 1295 c-26 -32 13 -81 48 -59 34 22 22 74 -18 74 -10 0 -23 -7 -30 -15z"/>
    <path d="M4270 1290 c-15 -28 4 -60 35 -60 31 0 50 32 35 60 -6 12 -21 20 -35 20 -14 0 -29 -8 -35 -20z"/>
    <path d="M4480 1295 c-26 -32 13 -81 48 -59 34 22 22 74 -18 74 -10 0 -23 -7 -30 -15z"/>
    <path d="M4692 1301 c-8 -4 -12 -21 -10 -37 2 -25 7 -29 32 -29 36 0 56 27 40 53 -13 19 -43 26 -62 13z"/>
    <path d="M4892 1298 c-29 -29 -2 -72 40 -66 17 2 24 11 26 32 5 41 -37 63 -66 34z"/>
    <path d="M5101 1296 c-7 -8 -11 -25 -9 -38 2 -18 9 -23 32 -23 36 0 56 27 40 53 -14 22 -48 27 -63 8z"/>
    <path d="M5302 1298 c-29 -29 -3 -72 40 -66 19 2 23 9 23 38 0 30 -4 35 -25 38 -14 2 -31 -3 -38 -10z"/>
    <path d="M5510 1295 c-26 -32 13 -81 48 -59 34 22 22 74 -18 74 -10 0 -23 -7 -30 -15z"/>
    <path d="M5710 1290 c-15 -28 4 -60 35 -60 14 0 29 8 35 20 15 28 -4 60 -35 60 -14 0 -29 -8 -35 -20z"/>
    <path d="M5920 1295 c-26 -32 13 -81 48 -59 34 22 22 74 -18 74 -10 0 -23 -7 -30 -15z"/>
    <path d="M6120 1290 c-15 -28 4 -60 35 -60 14 0 29 8 35 20 15 28 -4 60 -35 60 -14 0 -29 -8 -35 -20z"/>
    <path d="M6332 1298 c-30 -30 0 -75 43 -64 41 11 29 76 -15 76 -9 0 -21 -5 -28 -12z"/>
    <path d="M6542 1301 c-8 -4 -12 -21 -10 -37 2 -25 7 -29 32 -29 36 0 56 27 40 53 -13 19 -43 26 -62 13z"/>
    <path d="M6742 1298 c-29 -29 -2 -72 40 -66 17 2 24 11 26 32 5 41 -37 63 -66 34z"/>
    <path d="M6952 1298 c-7 -7 -12 -22 -12 -35 0 -27 42 -42 65 -23 28 23 11 70 -25 70 -9 0 -21 -5 -28 -12z"/>
    <path d="M7148 1285 c-14 -30 3 -55 38 -55 29 0 45 27 33 58 -12 31 -56 30 -71 -3z"/>
    <path d="M7360 1295 c-26 -32 13 -81 48 -59 34 22 22 74 -18 74 -10 0 -23 -7 -30 -15z"/>
    <path d="M7560 1290 c-15 -28 4 -60 35 -60 14 0 29 8 35 20 15 28 -4 60 -35 60 -14 0 -29 -8 -35 -20z"/>
    <path d="M7770 1295 c-26 -32 13 -81 48 -59 34 22 22 74 -18 74 -10 0 -23 -7 -30 -15z"/>
    <path d="M7971 1288 c-12 -31 4 -58 33 -58 35 0 52 25 38 55 -15 33 -59 34 -71 3z"/>
    <path d="M173 1093 c-22 -8 -16 -61 7 -68 39 -12 66 35 38 63 -13 13 -24 14 -45 5z"/>
    <path d="M370 1085 c-26 -32 13 -81 48 -59 34 22 22 74 -18 74 -10 0 -23 -7 -30 -15z"/>
    <path d="M582 1091 c-18 -11 -12 -51 10 -64 21 -14 48 7 48 38 0 30 -31 44 -58 26z"/>
    <path d="M780 1085 c-26 -32 13 -81 48 -59 34 22 22 74 -18 74 -10 0 -23 -7 -30 -15z"/>
    <path d="M992 1088 c-28 -28 -1 -75 38 -63 14 4 20 15 20 35 0 36 -33 53 -58 28z"/>
    <path d="M1190 1081 c-13 -25 -4 -48 21 -56 38 -12 65 35 37 63 -18 18 -46 14 -58 -7z"/>
    <path d="M1402 1088 c-23 -23 -7 -68 24 -68 14 0 44 27 44 40 0 13 -30 40 -44 40 -6 0 -17 -5 -24 -12z"/>
    <path d="M1606 1085 c-9 -9 -16 -20 -16 -25 0 -15 32 -41 48 -38 24 5 39 35 26 56 -15 23 -38 26 -58 7z"/>
    <path d="M1812 1088 c-25 -25 -6 -68 30 -68 9 0 22 9 28 20 22 40 -26 80 -58 48z"/>
    <path d="M2023 1093 c-22 -8 -16 -61 7 -68 39 -12 66 35 38 63 -13 13 -24 14 -45 5z"/>
    <path d="M2220 1085 c-26 -32 13 -81 48 -59 34 22 22 74 -18 74 -10 0 -23 -7 -30 -15z"/>
    <path d="M2430 1085 c-26 -31 13 -82 44 -56 21 17 21 57 0 65 -23 9 -30 8 -44 -9z"/>
    <path d="M2630 1085 c-26 -32 13 -81 48 -59 34 22 22 74 -18 74 -10 0 -23 -7 -30 -15z"/>
    <path d="M2842 1088 c-28 -28 -1 -75 38 -63 14 4 20 15 20 35 0 36 -33 53 -58 28z"/>
    <path d="M3040 1081 c-13 -25 -4 -48 21 -56 38 -12 65 35 37 63 -18 18 -46 14 -58 -7z"/>
    <path d="M3252 1088 c-28 -28 -1 -75 37 -63 25 8 34 31 21 56 -12 21 -40 25 -58 7z"/>
    <path d="M3456 1085 c-9 -9 -16 -20 -16 -25 0 -15 32 -41 48 -38 24 5 39 35 26 56 -15 23 -38 26 -58 7z"/>
    <path d="M3662 1088 c-25 -25 -6 -68 30 -68 9 0 22 9 28 20 22 40 -26 80 -58 48z"/>
    <path d="M3873 1093 c-22 -8 -16 -61 7 -68 39 -12 66 35 38 63 -13 13 -24 14 -45 5z"/>
    <path d="M4070 1085 c-26 -32 13 -81 48 -59 34 22 22 74 -18 74 -10 0 -23 -7 -30 -15z"/>
    <path d="M4282 1088 c-28 -28 -1 -75 38 -63 14 4 20 15 20 35 0 36 -33 53 -58 28z"/>
    <path d="M4480 1081 c-25 -47 36 -83 64 -38 8 12 8 22 0 35 -16 25 -51 27 -64 3z"/>
    <path d="M4692 1088 c-23 -23 -7 -68 24 -68 14 0 44 27 44 40 0 13 -30 40 -44 40 -6 0 -17 -5 -24 -12z"/>
    <path d="M4890 1081 c-13 -25 -4 -48 21 -56 38 -12 65 35 37 63 -18 18 -46 14 -58 -7z"/>
    <path d="M5102 1088 c-28 -28 -1 -75 37 -63 25 8 34 31 21 56 -12 21 -40 25 -58 7z"/>
    <path d="M5313 1093 c-22 -8 -16 -61 7 -68 39 -12 66 35 38 63 -13 13 -24 14 -45 5z"/>
    <path d="M5510 1085 c-26 -32 13 -81 48 -59 34 22 22 74 -18 74 -10 0 -23 -7 -30 -15z"/>
    <path d="M5723 1093 c-18 -7 -16 -48 3 -64 31 -26 70 25 44 56 -13 15 -25 17 -47 8z"/>
    <path d="M5920 1085 c-26 -32 13 -81 48 -59 34 22 22 74 -18 74 -10 0 -23 -7 -30 -15z"/>
    <path d="M6132 1088 c-28 -28 -1 -75 38 -63 14 4 20 15 20 35 0 36 -33 53 -58 28z"/>
    <path d="M6330 1081 c-25 -47 36 -83 64 -38 8 12 8 22 0 35 -16 25 -51 27 -64 3z"/>
    <path d="M6542 1088 c-23 -23 -7 -68 24 -68 14 0 44 27 44 40 0 13 -30 40 -44 40 -6 0 -17 -5 -24 -12z"/>
    <path d="M6746 1085 c-9 -9 -16 -20 -16 -25 0 -15 32 -41 48 -38 24 5 39 35 26 56 -15 23 -38 26 -58 7z"/>
    <path d="M6952 1088 c-28 -28 -1 -75 37 -63 25 8 34 31 21 56 -12 21 -40 25 -58 7z"/>
    <path d="M7163 1093 c-22 -8 -16 -61 7 -68 39 -12 66 35 38 63 -13 13 -24 14 -45 5z"/>
    <path d="M7360 1085 c-26 -32 13 -81 48 -59 34 22 22 74 -18 74 -10 0 -23 -7 -30 -15z"/>
    <path d="M7572 1091 c-18 -11 -12 -51 10 -64 21 -14 48 7 48 38 0 30 -31 44 -58 26z"/>
    <path d="M7770 1085 c-26 -32 13 -81 48 -59 34 22 22 74 -18 74 -10 0 -23 -7 -30 -15z"/>
    <path d="M7982 1088 c-28 -28 -1 -75 38 -63 14 4 20 15 20 35 0 36 -33 53 -58 28z"/>
    <path d="M172 878 c-30 -30 3 -77 40 -57 30 16 16 69 -17 69 -6 0 -16 -5 -23 -12z"/>
    <path d="M375 874 c-9 -9 -14 -23 -11 -31 3 -8 6 -17 6 -19 0 -2 11 -4 25 -4 33 0 51 33 29 54 -20 20 -29 20 -49 0z"/>
    <path d="M582 878 c-30 -30 3 -77 40 -57 30 16 16 69 -17 69 -6 0 -16 -5 -23 -12z"/>
    <path d="M786 874 c-19 -19 -20 -26 -4 -42 24 -24 68 -9 68 23 0 7 -32 35 -40 35 -5 0 -16 -7 -24 -16z"/>
    <path d="M992 878 c-30 -30 3 -77 40 -57 30 16 16 69 -17 69 -6 0 -16 -5 -23 -12z"/>
    <path d="M1203 883 c-20 -7 -15 -51 6 -63 22 -11 51 9 51 35 0 12 -31 37 -42 34 -2 0 -9 -3 -15 -6z"/>
    <path d="M1402 878 c-30 -30 3 -77 40 -57 30 16 16 69 -17 69 -6 0 -16 -5 -23 -12z"/>
    <path d="M1612 878 c-30 -30 3 -77 40 -57 30 16 16 69 -17 69 -6 0 -16 -5 -23 -12z"/>
    <path d="M1816 874 c-20 -19 -20 -29 0 -48 12 -12 20 -13 35 -6 23 13 25 55 3 64 -21 8 -20 8 -38 -10z"/>
    <path d="M2022 878 c-30 -30 3 -77 40 -57 30 16 16 69 -17 69 -6 0 -16 -5 -23 -12z"/>
    <path d="M2225 874 c-9 -9 -14 -23 -11 -31 3 -8 6 -17 6 -19 0 -9 47 -3 58 8 16 16 15 23 -4 42 -20 20 -29 20 -49 0z"/>
    <path d="M2432 878 c-30 -30 3 -77 40 -57 30 16 16 69 -17 69 -6 0 -16 -5 -23 -12z"/>
    <path d="M2636 874 c-12 -12 -13 -20 -6 -35 13 -23 55 -25 64 -3 8 21 8 20 -10 38 -19 20 -29 20 -48 0z"/>
    <path d="M2842 878 c-30 -30 3 -77 40 -57 30 16 16 69 -17 69 -6 0 -16 -5 -23 -12z"/>
    <path d="M3053 883 c-20 -7 -15 -51 6 -63 22 -11 51 9 51 35 0 12 -31 37 -42 34 -2 0 -9 -3 -15 -6z"/>
    <path d="M3252 878 c-16 -16 -15 -33 4 -52 19 -20 54 -5 54 22 0 20 -18 42 -35 42 -6 0 -16 -5 -23 -12z"/>
    <path d="M3462 878 c-30 -30 3 -77 40 -57 30 16 16 69 -17 69 -6 0 -16 -5 -23 -12z"/>
    <path d="M3666 874 c-20 -19 -20 -29 0 -48 12 -12 20 -13 35 -6 23 13 25 55 3 64 -21 8 -20 8 -38 -10z"/>
    <path d="M3872 878 c-30 -30 3 -77 40 -57 30 16 16 69 -17 69 -6 0 -16 -5 -23 -12z"/>
    <path d="M4075 874 c-9 -9 -14 -23 -11 -31 3 -8 6 -17 6 -19 0 -12 59 -2 64 12 8 21 8 20 -10 38 -20 20 -29 20 -49 0z"/>
    <path d="M4282 878 c-30 -30 3 -77 40 -57 30 16 16 69 -17 69 -6 0 -16 -5 -23 -12z"/>
    <path d="M4493 883 c-20 -7 -15 -51 6 -63 15 -7 23 -6 35 6 20 19 20 29 0 48 -16 17 -21 18 -41 9z"/>
    <path d="M4692 878 c-30 -30 3 -77 40 -57 30 16 16 69 -17 69 -6 0 -16 -5 -23 -12z"/>
    <path d="M4902 878 c-18 -18 -14 -46 7 -58 34 -18 67 30 39 58 -7 7 -17 12 -23 12 -6 0 -16 -5 -23 -12z"/>
    <path d="M5108 879 c-37 -21 -4 -78 33 -59 23 13 25 55 3 64 -19 7 -15 8 -36 -5z"/>
    <path d="M5312 878 c-30 -30 3 -77 40 -57 30 16 16 69 -17 69 -6 0 -16 -5 -23 -12z"/>
    <path d="M5515 874 c-9 -9 -14 -23 -11 -31 3 -8 6 -17 6 -19 0 -2 11 -4 25 -4 33 0 51 33 29 54 -20 20 -29 20 -49 0z"/>
    <path d="M5722 878 c-30 -30 3 -77 40 -57 30 16 16 69 -17 69 -6 0 -16 -5 -23 -12z"/>
    <path d="M5926 874 c-19 -19 -20 -26 -4 -42 24 -24 68 -9 68 23 0 7 -32 35 -40 35 -5 0 -16 -7 -24 -16z"/>
    <path d="M6132 878 c-30 -30 3 -77 40 -57 30 16 16 69 -17 69 -6 0 -16 -5 -23 -12z"/>
    <path d="M6343 883 c-20 -7 -15 -51 6 -63 15 -7 23 -6 35 6 20 19 20 29 0 48 -16 17 -21 18 -41 9z"/>
    <path d="M6542 878 c-30 -30 3 -77 40 -57 30 16 16 69 -17 69 -6 0 -16 -5 -23 -12z"/>
    <path d="M6752 878 c-30 -30 3 -77 40 -57 30 16 16 69 -17 69 -6 0 -16 -5 -23 -12z"/>
    <path d="M6958 879 c-37 -21 -4 -78 33 -59 23 13 25 55 3 64 -19 7 -15 8 -36 -5z"/>
    <path d="M7162 878 c-30 -30 3 -77 40 -57 30 16 16 69 -17 69 -6 0 -16 -5 -23 -12z"/>
    <path d="M7365 874 c-9 -9 -14 -23 -11 -31 3 -8 6 -17 6 -19 0 -2 11 -4 25 -4 33 0 51 33 29 54 -20 20 -29 20 -49 0z"/>
    <path d="M7572 878 c-30 -30 3 -77 40 -57 30 16 16 69 -17 69 -6 0 -16 -5 -23 -12z"/>
    <path d="M7776 874 c-12 -12 -13 -20 -6 -35 13 -23 55 -25 64 -3 8 21 8 20 -10 38 -19 20 -29 20 -48 0z"/>
    <path d="M7982 878 c-30 -30 3 -77 40 -57 30 16 16 69 -17 69 -6 0 -16 -5 -23 -12z"/>
    <path d="M175 666 c-22 -16 -15 -50 11 -54 25 -4 47 19 38 41 -8 22 -29 28 -49 13z"/>
    <path d="M585 666 c-25 -18 -11 -56 20 -56 21 0 35 17 35 40 0 19 -37 30 -55 16z"/>
    <path d="M995 664 c-18 -18 -16 -33 7 -47 21 -14 48 -2 48 22 0 30 -34 45 -55 25z"/>
    <path d="M1205 666 c-25 -18 -15 -51 15 -51 20 0 26 6 28 26 4 31 -18 44 -43 25z"/>
    <path d="M1405 664 c-18 -18 -16 -33 7 -47 21 -14 48 -2 48 22 0 30 -34 45 -55 25z"/>
    <path d="M1615 666 c-22 -16 -15 -50 11 -54 25 -4 47 19 38 41 -8 22 -29 28 -49 13z"/>
    <path d="M1821 671 c-7 -5 -11 -19 -9 -32 4 -33 52 -35 56 -2 4 25 -27 46 -47 34z"/>
    <path d="M2025 666 c-22 -16 -11 -56 14 -56 24 0 43 23 35 43 -8 22 -29 28 -49 13z"/>
    <path d="M2435 666 c-25 -18 -11 -56 20 -56 21 0 35 17 35 40 0 19 -37 30 -55 16z"/>
    <path d="M2845 664 c-18 -18 -16 -33 7 -47 21 -14 48 -2 48 22 0 30 -34 45 -55 25z"/>
    <path d="M3056 667 c-24 -17 -17 -51 11 -55 30 -4 49 31 27 52 -19 19 -16 19 -38 3z"/>
    <path d="M3255 664 c-18 -18 -16 -33 7 -47 21 -14 48 -2 48 22 0 30 -34 45 -55 25z"/>
    <path d="M3465 666 c-22 -16 -15 -50 11 -54 25 -4 47 19 38 41 -8 22 -29 28 -49 13z"/>
    <path d="M3671 671 c-7 -5 -11 -19 -9 -32 4 -33 52 -35 56 -2 4 25 -27 46 -47 34z"/>
    <path d="M3875 666 c-22 -16 -12 -56 14 -56 20 0 41 19 41 37 0 21 -35 34 -55 19z"/>
    <path d="M4284 665 c-15 -11 -17 -17 -8 -32 21 -34 63 -25 64 14 0 22 -35 34 -56 18z"/>
    <path d="M4495 666 c-25 -18 -15 -51 15 -51 20 0 26 6 28 26 4 31 -18 44 -43 25z"/>
    <path d="M4695 664 c-18 -18 -16 -33 7 -47 21 -14 48 -2 48 22 0 30 -34 45 -55 25z"/>
    <path d="M4905 666 c-22 -16 -15 -50 11 -54 25 -4 47 19 38 41 -8 22 -29 28 -49 13z"/>
    <path d="M5106 664 c-22 -21 -3 -56 27 -52 30 4 35 43 8 57 -15 8 -23 7 -35 -5z"/>
    <path d="M5315 666 c-22 -16 -15 -50 11 -54 25 -4 47 19 38 41 -8 22 -29 28 -49 13z"/>
    <path d="M5725 666 c-25 -18 -11 -56 20 -56 21 0 35 17 35 40 0 19 -37 30 -55 16z"/>
    <path d="M6136 664 c-19 -19 -20 -26 -4 -42 17 -17 45 -15 52 4 10 25 7 33 -13 44 -15 7 -23 6 -35 -6z"/>
    <path d="M6345 666 c-25 -18 -15 -51 15 -51 20 0 26 6 28 26 4 31 -18 44 -43 25z"/>
    <path d="M6545 664 c-18 -18 -16 -33 7 -47 21 -14 48 -2 48 22 0 30 -34 45 -55 25z"/>
    <path d="M6755 666 c-22 -16 -15 -50 11 -54 25 -4 47 19 38 41 -8 22 -29 28 -49 13z"/>
    <path d="M6961 671 c-7 -5 -11 -19 -9 -32 4 -33 52 -35 56 -2 4 25 -27 46 -47 34z"/>
    <path d="M7165 666 c-22 -16 -15 -50 11 -54 25 -4 47 19 38 41 -8 22 -29 28 -49 13z"/>
    <path d="M7575 666 c-25 -18 -11 -56 20 -56 21 0 35 17 35 40 0 19 -37 30 -55 16z"/>
    <path d="M7985 664 c-18 -18 -16 -33 7 -47 21 -14 48 -2 48 22 0 30 -34 45 -55 25z"/>
    <path d="M374 656 c-10 -26 4 -48 28 -44 33 4 33 52 0 56 -13 2 -25 -3 -28 -12z"/>
    <path d="M784 656 c-10 -26 4 -48 28 -44 17 2 23 10 23 28 0 18 -6 26 -23 28 -13 2 -25 -3 -28 -12z"/>
    <path d="M2224 656 c-10 -26 4 -48 28 -44 17 2 23 10 23 28 0 18 -6 26 -23 28 -13 2 -25 -3 -28 -12z"/>
    <path d="M2634 656 c-10 -26 4 -48 28 -44 17 2 23 10 23 28 0 18 -6 26 -23 28 -13 2 -25 -3 -28 -12z"/>
    <path d="M4074 656 c-10 -26 4 -48 28 -44 17 2 23 10 23 28 0 18 -6 26 -23 28 -13 2 -25 -3 -28 -12z"/>
    <path d="M5514 656 c-10 -26 4 -48 28 -44 17 2 23 10 23 28 0 18 -6 26 -23 28 -13 2 -25 -3 -28 -12z"/>
    <path d="M5924 656 c-10 -26 4 -48 28 -44 17 2 23 10 23 28 0 18 -6 26 -23 28 -13 2 -25 -3 -28 -12z"/>
    <path d="M7364 656 c-10 -26 4 -48 28 -44 17 2 23 10 23 28 0 18 -6 26 -23 28 -13 2 -25 -3 -28 -12z"/>
    <path d="M7774 656 c-10 -26 4 -48 28 -44 17 2 23 10 23 28 0 18 -6 26 -23 28 -13 2 -25 -3 -28 -12z"/>
    <path d="M166 444 c-9 -22 17 -49 39 -40 10 3 15 15 13 28 -4 29 -42 37 -52 12z"/>
    <path d="M377 453 c-13 -12 -7 -41 10 -47 21 -8 48 17 40 38 -6 16 -38 22 -50 9z"/>
    <path d="M577 448 c-6 -18 11 -48 28 -48 17 0 34 30 28 48 -3 6 -15 12 -28 12 -13 0 -25 -6 -28 -12z"/>
    <path d="M784 445 c-4 -9 0 -23 8 -31 20 -20 50 -7 46 20 -4 26 -45 35 -54 11z"/>
    <path d="M994 445 c-8 -21 2 -45 19 -45 21 0 38 25 31 44 -8 20 -43 21 -50 1z"/>
    <path d="M1194 445 c-4 -9 0 -23 9 -32 21 -21 49 -9 45 19 -4 28 -45 38 -54 13z"/>
    <path d="M1404 445 c-8 -21 2 -45 19 -45 20 0 40 27 33 45 -7 19 -45 20 -52 0z"/>
    <path d="M1604 445 c-4 -9 0 -23 9 -32 21 -21 49 -9 45 19 -4 28 -45 38 -54 13z"/>
    <path d="M1814 445 c-8 -21 2 -45 19 -45 20 0 40 27 33 45 -7 19 -45 20 -52 0z"/>
    <path d="M2016 443 c-8 -21 17 -48 38 -40 9 4 16 18 16 32 0 20 -5 25 -24 25 -13 0 -27 -8 -30 -17z"/>
    <path d="M2227 454 c-12 -13 -8 -42 8 -48 25 -9 46 5 43 28 -3 21 -37 34 -51 20z"/>
    <path d="M2427 448 c-6 -18 11 -48 27 -48 20 0 37 25 30 44 -7 19 -50 22 -57 4z"/>
    <path d="M2634 445 c-4 -9 0 -23 8 -31 20 -20 50 -7 46 20 -4 26 -45 35 -54 11z"/>
    <path d="M2844 445 c-8 -21 2 -45 19 -45 21 0 38 25 31 44 -8 20 -43 21 -50 1z"/>
    <path d="M3044 445 c-4 -9 0 -23 9 -32 21 -21 49 -9 45 19 -4 28 -45 38 -54 13z"/>
    <path d="M3254 445 c-8 -21 2 -45 19 -45 20 0 40 27 33 45 -7 19 -45 20 -52 0z"/>
    <path d="M3454 445 c-4 -9 0 -23 9 -32 21 -21 49 -9 45 19 -4 28 -45 38 -54 13z"/>
    <path d="M3667 453 c-13 -12 -7 -41 10 -47 21 -8 48 17 40 38 -6 16 -38 22 -50 9z"/>
    <path d="M3866 444 c-7 -19 10 -44 30 -44 16 0 33 30 27 48 -7 18 -50 15 -57 -4z"/>
    <path d="M4077 454 c-12 -13 -8 -42 8 -48 25 -9 46 5 43 28 -3 21 -37 34 -51 20z"/>
    <path d="M4277 448 c-6 -18 11 -48 27 -48 20 0 37 25 30 44 -7 19 -50 22 -57 4z"/>
    <path d="M4484 445 c-4 -9 0 -23 8 -31 20 -20 50 -7 46 20 -4 26 -45 35 -54 11z"/>
    <path d="M4694 445 c-8 -21 2 -45 19 -45 21 0 38 25 31 44 -8 20 -43 21 -50 1z"/>
    <path d="M4894 445 c-4 -9 0 -23 9 -32 21 -21 49 -9 45 19 -4 28 -45 38 -54 13z"/>
    <path d="M5104 445 c-8 -21 2 -45 19 -45 20 0 40 27 33 45 -7 19 -45 20 -52 0z"/>
    <path d="M5306 444 c-9 -22 17 -49 39 -40 10 3 15 15 13 28 -4 29 -42 37 -52 12z"/>
    <path d="M5517 453 c-13 -12 -7 -41 10 -47 21 -8 48 17 40 38 -6 16 -38 22 -50 9z"/>
    <path d="M5716 444 c-7 -19 10 -44 30 -44 16 0 33 30 27 48 -7 18 -50 15 -57 -4z"/>
    <path d="M5927 454 c-12 -13 -8 -42 8 -48 25 -9 46 5 43 28 -3 21 -37 34 -51 20z"/>
    <path d="M6130 435 c0 -31 26 -43 46 -23 20 20 7 48 -22 48 -19 0 -24 -5 -24 -25z"/>
    <path d="M6334 445 c-4 -9 0 -23 9 -32 21 -21 49 -9 45 19 -4 28 -45 38 -54 13z"/>
    <path d="M6544 445 c-8 -21 2 -45 19 -45 20 0 40 27 33 45 -7 19 -45 20 -52 0z"/>
    <path d="M6744 445 c-4 -9 0 -23 9 -32 21 -21 49 -9 45 19 -4 28 -45 38 -54 13z"/>
    <path d="M6954 445 c-8 -21 2 -45 19 -45 20 0 40 27 33 45 -7 19 -45 20 -52 0z"/>
    <path d="M7156 444 c-9 -22 17 -49 39 -40 10 3 15 15 13 28 -4 29 -42 37 -52 12z"/>
    <path d="M7367 453 c-13 -12 -7 -41 10 -47 21 -8 48 17 40 38 -6 16 -38 22 -50 9z"/>
    <path d="M7567 448 c-6 -18 11 -48 28 -48 17 0 34 30 28 48 -3 6 -15 12 -28 12 -13 0 -25 -6 -28 -12z"/>
    <path d="M7774 445 c-4 -9 0 -23 8 -31 20 -20 50 -7 46 20 -4 26 -45 35 -54 11z"/>
    <path d="M7984 445 c-8 -21 2 -45 19 -45 21 0 38 25 31 44 -8 20 -43 21 -50 1z"/>
  </g>
</svg>