<?xml version="1.0" standalone="no"?>
<!DOCTYPE svg PUBLIC "-//W3C//DTD SVG 20010904//EN"
 "http://www.w3.org/TR/2001/REC-SVG-20010904/DTD/svg10.dtd">
<svg version="1.0" xmlns="http://www.w3.org/2000/svg"
 width="1024.000000pt" height="1024.000000pt" viewBox="0 0 1024.000000 1024.000000"
 preserveAspectRatio="xMidYMid meet">

<g transform="translate(0.000000,1024.000000) scale(0.100000,-0.100000)"
fill="#000000" stroke="none">
<path d="M8512 9830 c-154 -41 -190 -68 -492 -367 l-275 -273 715 -715 715
-715 253 253 c162 161 271 278 302 325 65 96 101 207 107 332 10 191 -48 342
-191 502 -118 132 -512 517 -569 556 -63 44 -159 88 -232 107 -83 21 -241 19
-333 -5z"/>
<path d="M1010 9173 c-158 -18 -291 -83 -406 -197 -90 -91 -140 -171 -176
-286 l-23 -75 0 -3835 0 -3835 23 -75 c36 -115 86 -195 176 -286 92 -91 196
-152 312 -181 65 -17 271 -18 3884 -18 3667 0 3818 1 3880 18 245 69 429 254
490 493 20 76 20 121 20 2491 l0 2413 -335 0 -335 0 0 -2370 0 -2370 -3730 0
-3730 0 0 3730 0 3730 2375 0 2375 0 0 330 0 330 -2382 -2 c-1311 0 -2399 -3
-2418 -5z"/>
<path d="M5990 7443 c-690 -692 -1438 -1443 -1663 -1668 l-407 -410 718 -718
718 -718 1664 1671 1664 1671 -715 715 c-393 393 -716 714 -719 714 -3 0 -570
-566 -1260 -1257z"/>
<path d="M3406 4872 c-4 -11 -27 -50 -51 -86 -69 -104 -114 -250 -115 -380 0
-37 -68 -261 -256 -849 -140 -439 -253 -801 -250 -804 2 -3 367 110 810 251
687 218 814 256 866 256 123 0 257 43 369 119 33 23 64 41 70 41 5 0 12 4 15
8 3 5 -323 336 -723 736 -620 620 -730 726 -735 708z"/>
</g>
</svg>
