<?xml version="1.0" encoding="UTF-8"?>
<!DOCTYPE svg PUBLIC "-//W3C//DTD SVG 1.1//EN" "http://www.w3.org/Graphics/SVG/1.1/DTD/svg11.dtd">
<svg xmlns="http://www.w3.org/2000/svg" version="1.1" width="980px" height="980px" style="shape-rendering:geometricPrecision; text-rendering:geometricPrecision; image-rendering:optimizeQuality; fill-rule:evenodd; clip-rule:evenodd" xmlns:xlink="http://www.w3.org/1999/xlink">
<g><path style="opacity:1" fill="#010101" d="M 144.5,-0.5 C 291.167,-0.5 437.833,-0.5 584.5,-0.5C 599.148,2.65513 612.482,8.8218 624.5,18C 628.747,21.7417 632.414,25.9083 635.5,30.5C 635.738,32.4044 636.738,33.7377 638.5,34.5C 638.427,36.0269 639.094,37.0269 640.5,37.5C 645.097,43.3664 648.097,50.0331 649.5,57.5C 649.41,60.1522 650.076,62.4855 651.5,64.5C 657.438,97.1827 647.772,124.349 622.5,146C 609.75,155.585 595.416,161.252 579.5,163C 464.5,163.333 349.5,163.667 234.5,164C 194.996,171.504 171.496,195.004 164,234.5C 163.333,404.5 163.333,574.5 164,744.5C 165.607,755.82 169.107,766.486 174.5,776.5C 174.427,778.027 175.094,779.027 176.5,779.5C 176.427,781.027 177.094,782.027 178.5,782.5C 184.535,789.536 191.202,795.869 198.5,801.5C 199.035,803.446 200.368,804.446 202.5,804.5C 212.201,809.678 222.534,813.178 233.5,815C 348.5,815.333 463.5,815.667 578.5,816C 600.276,818.053 618.276,827.22 632.5,843.5C 632.738,845.404 633.738,846.738 635.5,847.5C 637.262,848.262 638.262,849.596 638.5,851.5C 638.427,853.027 639.094,854.027 640.5,854.5C 640.427,856.027 641.094,857.027 642.5,857.5C 656.147,882.623 656.981,908.289 645,934.5C 631.953,959.103 611.787,974.103 584.5,979.5C 437.833,979.5 291.167,979.5 144.5,979.5C 137.078,978.262 129.744,976.596 122.5,974.5C 120.485,973.076 118.152,972.41 115.5,972.5C 114.833,972.5 114.167,972.5 113.5,972.5C 112.365,970.787 110.698,970.12 108.5,970.5C 95.3452,966.589 83.3452,960.589 72.5,952.5C 71.7377,950.738 70.4044,949.738 68.5,949.5C 68.0269,948.094 67.0269,947.427 65.5,947.5C 65.0269,946.094 64.0269,945.427 62.5,945.5C 61.5,945.167 60.8333,944.5 60.5,943.5C 59.7377,941.738 58.4044,940.738 56.5,940.5C 55.1667,939.833 54.1667,938.833 53.5,937.5C 52.0892,935.086 50.0892,933.419 47.5,932.5C 46.5,932.167 45.8333,931.5 45.5,930.5C 45.1667,928.167 43.8333,926.833 41.5,926.5C 36.7833,921.118 32.45,915.451 28.5,909.5C 28.4456,907.368 27.4456,906.035 25.5,905.5C 24.2485,903.999 23.2485,902.332 22.5,900.5C 22.7148,898.821 22.0481,897.821 20.5,897.5C 9.33569,877.824 2.33569,856.824 -0.5,834.5C -0.5,604.5 -0.5,374.5 -0.5,144.5C 0.654396,137.063 2.32106,129.73 4.5,122.5C 5.92381,120.485 6.59047,118.152 6.5,115.5C 6.5,114.833 6.5,114.167 6.5,113.5C 8.21321,112.365 8.87988,110.698 8.5,108.5C 12.4107,95.3452 18.4107,83.3452 26.5,72.5C 28.2624,71.7377 29.2624,70.4044 29.5,68.5C 30.9063,68.0269 31.573,67.0269 31.5,65.5C 32.9063,65.0269 33.573,64.0269 33.5,62.5C 33.8333,61.5 34.5,60.8333 35.5,60.5C 37.2624,59.7377 38.2624,58.4044 38.5,56.5C 39.1667,55.1667 40.1667,54.1667 41.5,53.5C 45.8333,49.8333 49.8333,45.8333 53.5,41.5C 53.5,40.8333 53.8333,40.5 54.5,40.5C 57.0892,39.5806 59.0892,37.914 60.5,35.5C 62.7488,34.9202 64.4154,33.5869 65.5,31.5C 66.4363,30.0256 67.7697,29.0256 69.5,28.5C 71.0269,28.573 72.0269,27.9063 72.5,26.5C 73.8993,25.1103 75.5659,24.1103 77.5,23.5C 79.0269,23.573 80.0269,22.9063 80.5,21.5C 81.5137,20.3263 82.847,19.6596 84.5,19.5C 86.0269,19.573 87.0269,18.9063 87.5,17.5C 96.3124,12.6703 105.646,9.00368 115.5,6.5C 118.152,6.59047 120.485,5.92381 122.5,4.5C 129.744,2.40423 137.078,0.737562 144.5,-0.5 Z"/></g>
<g><path style="opacity:1" fill="#545454" d="M 122.5,4.5 C 120.485,5.92381 118.152,6.59047 115.5,6.5C 117.515,5.07619 119.848,4.40953 122.5,4.5 Z"/></g>
<g><path style="opacity:1" fill="#7e7e7e" d="M 87.5,17.5 C 87.0269,18.9063 86.0269,19.573 84.5,19.5C 84.9731,18.0937 85.9731,17.427 87.5,17.5 Z"/></g>
<g><path style="opacity:1" fill="#757575" d="M 80.5,21.5 C 80.0269,22.9063 79.0269,23.573 77.5,23.5C 77.9731,22.0937 78.9731,21.427 80.5,21.5 Z"/></g>
<g><path style="opacity:1" fill="#8d8d8d" d="M 72.5,26.5 C 72.0269,27.9063 71.0269,28.573 69.5,28.5C 69.9731,27.0937 70.9731,26.427 72.5,26.5 Z"/></g>
<g><path style="opacity:1" fill="#767676" d="M 635.5,30.5 C 637.262,31.2623 638.262,32.5956 638.5,34.5C 636.738,33.7377 635.738,32.4044 635.5,30.5 Z"/></g>
<g><path style="opacity:1" fill="#606060" d="M 65.5,31.5 C 64.4154,33.5869 62.7488,34.9202 60.5,35.5C 61.5846,33.4131 63.2512,32.0798 65.5,31.5 Z"/></g>
<g><path style="opacity:1" fill="#8f8f8f" d="M 638.5,34.5 C 639.906,34.9731 640.573,35.9731 640.5,37.5C 639.094,37.0269 638.427,36.0269 638.5,34.5 Z"/></g>
<g><path style="opacity:1" fill="#5c5c5c" d="M 60.5,35.5 C 59.0892,37.914 57.0892,39.5806 54.5,40.5C 55.9108,38.086 57.9108,36.4194 60.5,35.5 Z"/></g>
<g><path style="opacity:1" fill="#888888" d="M 53.5,41.5 C 49.8333,45.8333 45.8333,49.8333 41.5,53.5C 44.5,48.5 48.5,44.5 53.5,41.5 Z"/></g>
<g><path style="opacity:1" fill="#7e7e7e" d="M 38.5,56.5 C 38.2624,58.4044 37.2624,59.7377 35.5,60.5C 35.7376,58.5956 36.7376,57.2623 38.5,56.5 Z"/></g>
<g><path style="opacity:1" fill="#767676" d="M 649.5,57.5 C 650.924,59.5145 651.59,61.8478 651.5,64.5C 650.076,62.4855 649.41,60.1522 649.5,57.5 Z"/></g>
<g><path style="opacity:1" fill="#9d9d9d" d="M 33.5,62.5 C 33.573,64.0269 32.9063,65.0269 31.5,65.5C 31.427,63.9731 32.0937,62.9731 33.5,62.5 Z"/></g>
<g><path style="opacity:1" fill="#7a7a7a" d="M 31.5,65.5 C 31.573,67.0269 30.9063,68.0269 29.5,68.5C 29.427,66.9731 30.0937,65.9731 31.5,65.5 Z"/></g>
<g><path style="opacity:1" fill="#747474" d="M 29.5,68.5 C 29.2624,70.4044 28.2624,71.7377 26.5,72.5C 26.7376,70.5956 27.7376,69.2623 29.5,68.5 Z"/></g>
<g><path style="opacity:1" fill="#7f7f7f" d="M 8.5,108.5 C 8.87988,110.698 8.21321,112.365 6.5,113.5C 6.79586,111.597 7.46253,109.93 8.5,108.5 Z"/></g>
<g><path style="opacity:1" fill="#5a5a5a" d="M 6.5,115.5 C 6.59047,118.152 5.92381,120.485 4.5,122.5C 4.40953,119.848 5.07619,117.515 6.5,115.5 Z"/></g>
<g><path style="opacity:1" fill="#010101" d="M 806.5,258.5 C 806.738,260.404 807.738,261.738 809.5,262.5C 810.5,262.833 811.167,263.5 811.5,264.5C 811.427,266.027 812.094,267.027 813.5,267.5C 814.5,267.833 815.167,268.5 815.5,269.5C 815.427,271.027 816.094,272.027 817.5,272.5C 818.5,272.833 819.167,273.5 819.5,274.5C 819.427,276.027 820.094,277.027 821.5,277.5C 822.5,277.833 823.167,278.5 823.5,279.5C 823.427,281.027 824.094,282.027 825.5,282.5C 826.5,282.833 827.167,283.5 827.5,284.5C 827.427,286.027 828.094,287.027 829.5,287.5C 830.5,287.833 831.167,288.5 831.5,289.5C 831.427,291.027 832.094,292.027 833.5,292.5C 834.5,292.833 835.167,293.5 835.5,294.5C 835.427,296.027 836.094,297.027 837.5,297.5C 838.5,297.833 839.167,298.5 839.5,299.5C 839.427,301.027 840.094,302.027 841.5,302.5C 842.5,302.833 843.167,303.5 843.5,304.5C 843.427,306.027 844.094,307.027 845.5,307.5C 846.5,307.833 847.167,308.5 847.5,309.5C 847.427,311.027 848.094,312.027 849.5,312.5C 850.5,312.833 851.167,313.5 851.5,314.5C 851.427,316.027 852.094,317.027 853.5,317.5C 854.5,317.833 855.167,318.5 855.5,319.5C 855.427,321.027 856.094,322.027 857.5,322.5C 858.5,322.833 859.167,323.5 859.5,324.5C 859.427,326.027 860.094,327.027 861.5,327.5C 862.5,327.833 863.167,328.5 863.5,329.5C 863.427,331.027 864.094,332.027 865.5,332.5C 866.5,332.833 867.167,333.5 867.5,334.5C 867.427,336.027 868.094,337.027 869.5,337.5C 870.5,337.833 871.167,338.5 871.5,339.5C 871.427,341.027 872.094,342.027 873.5,342.5C 874.5,342.833 875.167,343.5 875.5,344.5C 875.427,346.027 876.094,347.027 877.5,347.5C 878.5,347.833 879.167,348.5 879.5,349.5C 879.427,351.027 880.094,352.027 881.5,352.5C 882.5,352.833 883.167,353.5 883.5,354.5C 883.427,356.027 884.094,357.027 885.5,357.5C 886.5,357.833 887.167,358.5 887.5,359.5C 887.427,361.027 888.094,362.027 889.5,362.5C 890.5,362.833 891.167,363.5 891.5,364.5C 891.427,366.027 892.094,367.027 893.5,367.5C 894.5,367.833 895.167,368.5 895.5,369.5C 895.427,371.027 896.094,372.027 897.5,372.5C 898.5,372.833 899.167,373.5 899.5,374.5C 899.427,376.027 900.094,377.027 901.5,377.5C 902.5,377.833 903.167,378.5 903.5,379.5C 903.427,381.027 904.094,382.027 905.5,382.5C 906.5,382.833 907.167,383.5 907.5,384.5C 907.427,386.027 908.094,387.027 909.5,387.5C 910.5,387.833 911.167,388.5 911.5,389.5C 911.427,391.027 912.094,392.027 913.5,392.5C 914.5,392.833 915.167,393.5 915.5,394.5C 915.427,396.027 916.094,397.027 917.5,397.5C 918.5,397.833 919.167,398.5 919.5,399.5C 919.427,401.027 920.094,402.027 921.5,402.5C 922.5,402.833 923.167,403.5 923.5,404.5C 923.427,406.027 924.094,407.027 925.5,407.5C 926.5,407.833 927.167,408.5 927.5,409.5C 927.427,411.027 928.094,412.027 929.5,412.5C 930.5,412.833 931.167,413.5 931.5,414.5C 931.427,416.027 932.094,417.027 933.5,417.5C 934.5,417.833 935.167,418.5 935.5,419.5C 935.427,421.027 936.094,422.027 937.5,422.5C 938.5,422.833 939.167,423.5 939.5,424.5C 939.427,426.027 940.094,427.027 941.5,427.5C 942.5,427.833 943.167,428.5 943.5,429.5C 943.427,431.027 944.094,432.027 945.5,432.5C 946.5,432.833 947.167,433.5 947.5,434.5C 947.427,436.027 948.094,437.027 949.5,437.5C 950.5,437.833 951.167,438.5 951.5,439.5C 951.427,441.027 952.094,442.027 953.5,442.5C 954.5,442.833 955.167,443.5 955.5,444.5C 955.427,446.027 956.094,447.027 957.5,447.5C 958.5,447.833 959.167,448.5 959.5,449.5C 959.427,451.027 960.094,452.027 961.5,452.5C 962.5,452.833 963.167,453.5 963.5,454.5C 963.427,456.027 964.094,457.027 965.5,457.5C 966.5,457.833 967.167,458.5 967.5,459.5C 967.427,461.027 968.094,462.027 969.5,462.5C 971.262,463.262 972.262,464.596 972.5,466.5C 972.427,468.027 973.094,469.027 974.5,469.5C 976.751,472.926 978.417,476.592 979.5,480.5C 979.5,486.5 979.5,492.5 979.5,498.5C 977.857,504.124 975.357,509.458 972,514.5C 917.287,582.212 862.953,650.212 809,718.5C 795.582,733.981 779.082,738.481 759.5,732C 746.58,726.083 738.413,716.249 735,702.5C 734.5,658.835 734.333,615.168 734.5,571.5C 622.166,571.667 509.833,571.5 397.5,571C 394.964,570.814 392.631,570.314 390.5,569.5C 388.485,568.076 386.152,567.41 383.5,567.5C 376.816,566.169 370.816,563.502 365.5,559.5C 365.027,558.094 364.027,557.427 362.5,557.5C 362.027,556.094 361.027,555.427 359.5,555.5C 359.027,554.094 358.027,553.427 356.5,553.5C 355.167,552.833 354.167,551.833 353.5,550.5C 352.415,548.413 350.749,547.08 348.5,546.5C 348.573,544.973 347.906,543.973 346.5,543.5C 343.364,540.571 340.697,537.238 338.5,533.5C 338.715,531.821 338.048,530.821 336.5,530.5C 321.563,502.56 321.896,474.893 337.5,447.5C 338.906,447.027 339.573,446.027 339.5,444.5C 340.906,444.027 341.573,443.027 341.5,441.5C 342.906,441.027 343.573,440.027 343.5,438.5C 344.167,437.167 345.167,436.167 346.5,435.5C 349.167,433.5 351.5,431.167 353.5,428.5C 353.5,427.833 353.833,427.5 354.5,427.5C 356.749,426.92 358.415,425.587 359.5,423.5C 361.147,421.674 363.147,420.34 365.5,419.5C 367.027,419.573 368.027,418.906 368.5,417.5C 372.957,414.343 377.957,412.343 383.5,411.5C 386.152,411.59 388.485,410.924 390.5,409.5C 392.631,408.686 394.964,408.186 397.5,408C 509.833,407.5 622.166,407.333 734.5,407.5C 734.333,363.832 734.5,320.165 735,276.5C 743.568,250.458 761.401,240.291 788.5,246C 795.762,248.441 801.762,252.608 806.5,258.5 Z"/></g>
<g><path style="opacity:1" fill="#898989" d="M 806.5,258.5 C 808.262,259.262 809.262,260.596 809.5,262.5C 807.738,261.738 806.738,260.404 806.5,258.5 Z"/></g>
<g><path style="opacity:1" fill="#a0a0a0" d="M 811.5,264.5 C 812.906,264.973 813.573,265.973 813.5,267.5C 812.094,267.027 811.427,266.027 811.5,264.5 Z"/></g>
<g><path style="opacity:1" fill="#a0a0a0" d="M 815.5,269.5 C 816.906,269.973 817.573,270.973 817.5,272.5C 816.094,272.027 815.427,271.027 815.5,269.5 Z"/></g>
<g><path style="opacity:1" fill="#a1a1a1" d="M 819.5,274.5 C 820.906,274.973 821.573,275.973 821.5,277.5C 820.094,277.027 819.427,276.027 819.5,274.5 Z"/></g>
<g><path style="opacity:1" fill="#a0a0a0" d="M 823.5,279.5 C 824.906,279.973 825.573,280.973 825.5,282.5C 824.094,282.027 823.427,281.027 823.5,279.5 Z"/></g>
<g><path style="opacity:1" fill="#9f9f9f" d="M 827.5,284.5 C 828.906,284.973 829.573,285.973 829.5,287.5C 828.094,287.027 827.427,286.027 827.5,284.5 Z"/></g>
<g><path style="opacity:1" fill="#9f9f9f" d="M 831.5,289.5 C 832.906,289.973 833.573,290.973 833.5,292.5C 832.094,292.027 831.427,291.027 831.5,289.5 Z"/></g>
<g><path style="opacity:1" fill="#9f9f9f" d="M 835.5,294.5 C 836.906,294.973 837.573,295.973 837.5,297.5C 836.094,297.027 835.427,296.027 835.5,294.5 Z"/></g>
<g><path style="opacity:1" fill="#9f9f9f" d="M 839.5,299.5 C 840.906,299.973 841.573,300.973 841.5,302.5C 840.094,302.027 839.427,301.027 839.5,299.5 Z"/></g>
<g><path style="opacity:1" fill="#9e9e9e" d="M 843.5,304.5 C 844.906,304.973 845.573,305.973 845.5,307.5C 844.094,307.027 843.427,306.027 843.5,304.5 Z"/></g>
<g><path style="opacity:1" fill="#9e9e9e" d="M 847.5,309.5 C 848.906,309.973 849.573,310.973 849.5,312.5C 848.094,312.027 847.427,311.027 847.5,309.5 Z"/></g>
<g><path style="opacity:1" fill="#9e9e9e" d="M 851.5,314.5 C 852.906,314.973 853.573,315.973 853.5,317.5C 852.094,317.027 851.427,316.027 851.5,314.5 Z"/></g>
<g><path style="opacity:1" fill="#9e9e9e" d="M 855.5,319.5 C 856.906,319.973 857.573,320.973 857.5,322.5C 856.094,322.027 855.427,321.027 855.5,319.5 Z"/></g>
<g><path style="opacity:1" fill="#9e9e9e" d="M 859.5,324.5 C 860.906,324.973 861.573,325.973 861.5,327.5C 860.094,327.027 859.427,326.027 859.5,324.5 Z"/></g>
<g><path style="opacity:1" fill="#9e9e9e" d="M 863.5,329.5 C 864.906,329.973 865.573,330.973 865.5,332.5C 864.094,332.027 863.427,331.027 863.5,329.5 Z"/></g>
<g><path style="opacity:1" fill="#9e9e9e" d="M 867.5,334.5 C 868.906,334.973 869.573,335.973 869.5,337.5C 868.094,337.027 867.427,336.027 867.5,334.5 Z"/></g>
<g><path style="opacity:1" fill="#9e9e9e" d="M 871.5,339.5 C 872.906,339.973 873.573,340.973 873.5,342.5C 872.094,342.027 871.427,341.027 871.5,339.5 Z"/></g>
<g><path style="opacity:1" fill="#9d9d9d" d="M 875.5,344.5 C 876.906,344.973 877.573,345.973 877.5,347.5C 876.094,347.027 875.427,346.027 875.5,344.5 Z"/></g>
<g><path style="opacity:1" fill="#9d9d9d" d="M 879.5,349.5 C 880.906,349.973 881.573,350.973 881.5,352.5C 880.094,352.027 879.427,351.027 879.5,349.5 Z"/></g>
<g><path style="opacity:1" fill="#9d9d9d" d="M 883.5,354.5 C 884.906,354.973 885.573,355.973 885.5,357.5C 884.094,357.027 883.427,356.027 883.5,354.5 Z"/></g>
<g><path style="opacity:1" fill="#9d9d9d" d="M 887.5,359.5 C 888.906,359.973 889.573,360.973 889.5,362.5C 888.094,362.027 887.427,361.027 887.5,359.5 Z"/></g>
<g><path style="opacity:1" fill="#9c9c9c" d="M 891.5,364.5 C 892.906,364.973 893.573,365.973 893.5,367.5C 892.094,367.027 891.427,366.027 891.5,364.5 Z"/></g>
<g><path style="opacity:1" fill="#9c9c9c" d="M 895.5,369.5 C 896.906,369.973 897.573,370.973 897.5,372.5C 896.094,372.027 895.427,371.027 895.5,369.5 Z"/></g>
<g><path style="opacity:1" fill="#9c9c9c" d="M 899.5,374.5 C 900.906,374.973 901.573,375.973 901.5,377.5C 900.094,377.027 899.427,376.027 899.5,374.5 Z"/></g>
<g><path style="opacity:1" fill="#9c9c9c" d="M 903.5,379.5 C 904.906,379.973 905.573,380.973 905.5,382.5C 904.094,382.027 903.427,381.027 903.5,379.5 Z"/></g>
<g><path style="opacity:1" fill="#9c9c9c" d="M 907.5,384.5 C 908.906,384.973 909.573,385.973 909.5,387.5C 908.094,387.027 907.427,386.027 907.5,384.5 Z"/></g>
<g><path style="opacity:1" fill="#9c9c9c" d="M 911.5,389.5 C 912.906,389.973 913.573,390.973 913.5,392.5C 912.094,392.027 911.427,391.027 911.5,389.5 Z"/></g>
<g><path style="opacity:1" fill="#9c9c9c" d="M 915.5,394.5 C 916.906,394.973 917.573,395.973 917.5,397.5C 916.094,397.027 915.427,396.027 915.5,394.5 Z"/></g>
<g><path style="opacity:1" fill="#9b9b9b" d="M 919.5,399.5 C 920.906,399.973 921.573,400.973 921.5,402.5C 920.094,402.027 919.427,401.027 919.5,399.5 Z"/></g>
<g><path style="opacity:1" fill="#9b9b9b" d="M 923.5,404.5 C 924.906,404.973 925.573,405.973 925.5,407.5C 924.094,407.027 923.427,406.027 923.5,404.5 Z"/></g>
<g><path style="opacity:1" fill="#5a5a5a" d="M 390.5,409.5 C 388.485,410.924 386.152,411.59 383.5,411.5C 385.515,410.076 387.848,409.41 390.5,409.5 Z"/></g>
<g><path style="opacity:1" fill="#9b9b9b" d="M 927.5,409.5 C 928.906,409.973 929.573,410.973 929.5,412.5C 928.094,412.027 927.427,411.027 927.5,409.5 Z"/></g>
<g><path style="opacity:1" fill="#9c9c9c" d="M 931.5,414.5 C 932.906,414.973 933.573,415.973 933.5,417.5C 932.094,417.027 931.427,416.027 931.5,414.5 Z"/></g>
<g><path style="opacity:1" fill="#858585" d="M 368.5,417.5 C 368.027,418.906 367.027,419.573 365.5,419.5C 365.973,418.094 366.973,417.427 368.5,417.5 Z"/></g>
<g><path style="opacity:1" fill="#9b9b9b" d="M 935.5,419.5 C 936.906,419.973 937.573,420.973 937.5,422.5C 936.094,422.027 935.427,421.027 935.5,419.5 Z"/></g>
<g><path style="opacity:1" fill="#989898" d="M 939.5,424.5 C 940.906,424.973 941.573,425.973 941.5,427.5C 940.094,427.027 939.427,426.027 939.5,424.5 Z"/></g>
<g><path style="opacity:1" fill="#585858" d="M 359.5,423.5 C 358.415,425.587 356.749,426.92 354.5,427.5C 355.585,425.413 357.251,424.08 359.5,423.5 Z"/></g>
<g><path style="opacity:1" fill="#9a9a9a" d="M 943.5,429.5 C 944.906,429.973 945.573,430.973 945.5,432.5C 944.094,432.027 943.427,431.027 943.5,429.5 Z"/></g>
<g><path style="opacity:1" fill="#929292" d="M 353.5,428.5 C 351.5,431.167 349.167,433.5 346.5,435.5C 347.833,432.167 350.167,429.833 353.5,428.5 Z"/></g>
<g><path style="opacity:1" fill="#989898" d="M 947.5,434.5 C 948.906,434.973 949.573,435.973 949.5,437.5C 948.094,437.027 947.427,436.027 947.5,434.5 Z"/></g>
<g><path style="opacity:1" fill="#a2a2a2" d="M 343.5,438.5 C 343.573,440.027 342.906,441.027 341.5,441.5C 341.427,439.973 342.094,438.973 343.5,438.5 Z"/></g>
<g><path style="opacity:1" fill="#989898" d="M 951.5,439.5 C 952.906,439.973 953.573,440.973 953.5,442.5C 952.094,442.027 951.427,441.027 951.5,439.5 Z"/></g>
<g><path style="opacity:1" fill="#878787" d="M 341.5,441.5 C 341.573,443.027 340.906,444.027 339.5,444.5C 339.427,442.973 340.094,441.973 341.5,441.5 Z"/></g>
<g><path style="opacity:1" fill="#979797" d="M 955.5,444.5 C 956.906,444.973 957.573,445.973 957.5,447.5C 956.094,447.027 955.427,446.027 955.5,444.5 Z"/></g>
<g><path style="opacity:1" fill="#909090" d="M 339.5,444.5 C 339.573,446.027 338.906,447.027 337.5,447.5C 337.427,445.973 338.094,444.973 339.5,444.5 Z"/></g>
<g><path style="opacity:1" fill="#979797" d="M 959.5,449.5 C 960.906,449.973 961.573,450.973 961.5,452.5C 960.094,452.027 959.427,451.027 959.5,449.5 Z"/></g>
<g><path style="opacity:1" fill="#979797" d="M 963.5,454.5 C 964.906,454.973 965.573,455.973 965.5,457.5C 964.094,457.027 963.427,456.027 963.5,454.5 Z"/></g>
<g><path style="opacity:1" fill="#979797" d="M 967.5,459.5 C 968.906,459.973 969.573,460.973 969.5,462.5C 968.094,462.027 967.427,461.027 967.5,459.5 Z"/></g>
<g><path style="opacity:1" fill="#8a8a8a" d="M 972.5,466.5 C 973.906,466.973 974.573,467.973 974.5,469.5C 973.094,469.027 972.427,468.027 972.5,466.5 Z"/></g>
<g><path style="opacity:1" fill="#787878" d="M 336.5,530.5 C 338.048,530.821 338.715,531.821 338.5,533.5C 337.599,532.71 336.932,531.71 336.5,530.5 Z"/></g>
<g><path style="opacity:1" fill="#c1c1c1" d="M 346.5,543.5 C 347.906,543.973 348.573,544.973 348.5,546.5C 347.094,546.027 346.427,545.027 346.5,543.5 Z"/></g>
<g><path style="opacity:1" fill="#9f9f9f" d="M 348.5,546.5 C 350.749,547.08 352.415,548.413 353.5,550.5C 351.251,549.92 349.585,548.587 348.5,546.5 Z"/></g>
<g><path style="opacity:1" fill="#979797" d="M 356.5,553.5 C 358.027,553.427 359.027,554.094 359.5,555.5C 357.973,555.573 356.973,554.906 356.5,553.5 Z"/></g>
<g><path style="opacity:1" fill="#777777" d="M 359.5,555.5 C 361.027,555.427 362.027,556.094 362.5,557.5C 360.973,557.573 359.973,556.906 359.5,555.5 Z"/></g>
<g><path style="opacity:1" fill="#7b7b7b" d="M 362.5,557.5 C 364.027,557.427 365.027,558.094 365.5,559.5C 363.973,559.573 362.973,558.906 362.5,557.5 Z"/></g>
<g><path style="opacity:1" fill="#6c6c6c" d="M 383.5,567.5 C 386.152,567.41 388.485,568.076 390.5,569.5C 387.848,569.59 385.515,568.924 383.5,567.5 Z"/></g>
<g><path style="opacity:1" fill="#8b8b8b" d="M 174.5,776.5 C 175.906,776.973 176.573,777.973 176.5,779.5C 175.094,779.027 174.427,778.027 174.5,776.5 Z"/></g>
<g><path style="opacity:1" fill="#8b8b8b" d="M 176.5,779.5 C 177.906,779.973 178.573,780.973 178.5,782.5C 177.094,782.027 176.427,781.027 176.5,779.5 Z"/></g>
<g><path style="opacity:1" fill="#828282" d="M 198.5,801.5 C 200.23,802.026 201.564,803.026 202.5,804.5C 200.368,804.446 199.035,803.446 198.5,801.5 Z"/></g>
<g><path style="opacity:1" fill="#7a7a7a" d="M 632.5,843.5 C 634.262,844.262 635.262,845.596 635.5,847.5C 633.738,846.738 632.738,845.404 632.5,843.5 Z"/></g>
<g><path style="opacity:1" fill="#818181" d="M 638.5,851.5 C 639.906,851.973 640.573,852.973 640.5,854.5C 639.094,854.027 638.427,853.027 638.5,851.5 Z"/></g>
<g><path style="opacity:1" fill="#9e9e9e" d="M 640.5,854.5 C 641.906,854.973 642.573,855.973 642.5,857.5C 641.094,857.027 640.427,856.027 640.5,854.5 Z"/></g>
<g><path style="opacity:1" fill="#7d7d7d" d="M 20.5,897.5 C 22.0481,897.821 22.7148,898.821 22.5,900.5C 21.5987,899.71 20.9321,898.71 20.5,897.5 Z"/></g>
<g><path style="opacity:1" fill="#808080" d="M 25.5,905.5 C 27.4456,906.035 28.4456,907.368 28.5,909.5C 27.0256,908.564 26.0256,907.23 25.5,905.5 Z"/></g>
<g><path style="opacity:1" fill="#a9a9a9" d="M 41.5,926.5 C 43.8333,926.833 45.1667,928.167 45.5,930.5C 43.8333,929.5 42.5,928.167 41.5,926.5 Z"/></g>
<g><path style="opacity:1" fill="#9d9d9d" d="M 47.5,932.5 C 50.0892,933.419 52.0892,935.086 53.5,937.5C 50.9108,936.581 48.9108,934.914 47.5,932.5 Z"/></g>
<g><path style="opacity:1" fill="#858585" d="M 56.5,940.5 C 58.4044,940.738 59.7377,941.738 60.5,943.5C 58.5956,943.262 57.2623,942.262 56.5,940.5 Z"/></g>
<g><path style="opacity:1" fill="#9e9e9e" d="M 62.5,945.5 C 64.0269,945.427 65.0269,946.094 65.5,947.5C 63.9731,947.573 62.9731,946.906 62.5,945.5 Z"/></g>
<g><path style="opacity:1" fill="#828282" d="M 65.5,947.5 C 67.0269,947.427 68.0269,948.094 68.5,949.5C 66.9731,949.573 65.9731,948.906 65.5,947.5 Z"/></g>
<g><path style="opacity:1" fill="#777777" d="M 68.5,949.5 C 70.4044,949.738 71.7377,950.738 72.5,952.5C 70.5956,952.262 69.2623,951.262 68.5,949.5 Z"/></g>
<g><path style="opacity:1" fill="#828282" d="M 108.5,970.5 C 110.698,970.12 112.365,970.787 113.5,972.5C 111.597,972.204 109.93,971.537 108.5,970.5 Z"/></g>
<g><path style="opacity:1" fill="#5d5d5d" d="M 115.5,972.5 C 118.152,972.41 120.485,973.076 122.5,974.5C 119.848,974.59 117.515,973.924 115.5,972.5 Z"/></g>
</svg>
