<?xml version="1.0" standalone="no"?>
<!DOCTYPE svg PUBLIC "-//W3C//DTD SVG 20010904//EN"
 "http://www.w3.org/TR/2001/REC-SVG-20010904/DTD/svg10.dtd">
<svg version="1.0" xmlns="http://www.w3.org/2000/svg"
 width="472.000000pt" height="472.000000pt" viewBox="0 0 472.000000 472.000000"
 preserveAspectRatio="xMidYMid meet">

<g transform="translate(0.000000,472.000000) scale(0.100000,-0.100000)"
fill="#000000" stroke="none">
<path d="M2285 4113 c-276 -12 -590 -71 -980 -183 -286 -82 -461 -200 -625
-421 -101 -136 -200 -355 -200 -443 0 -23 -7 -65 -15 -93 -13 -43 -14 -78 -6
-212 9 -173 26 -230 77 -270 l25 -20 -20 -40 c-25 -48 -58 -81 -82 -81 -49 0
-63 -91 -24 -155 71 -118 76 -135 50 -185 l-16 -30 59 -57 c79 -78 120 -166
172 -371 22 -90 49 -186 60 -215 11 -29 20 -52 20 -53 0 -1 -41 -4 -92 -8
-189 -14 -414 -62 -528 -113 -139 -61 -132 -118 25 -196 268 -133 757 -255
1372 -341 200 -28 322 -32 551 -16 553 40 1088 152 1349 284 196 98 225 206
86 312 l-42 32 93 76 c212 172 434 446 501 617 45 114 106 180 290 314 199
145 255 209 275 313 13 71 -4 136 -59 227 -27 44 -79 139 -115 212 -59 117
-126 227 -185 303 -10 14 -36 52 -57 85 -56 86 -181 213 -282 285 -188 134
-495 257 -797 319 -82 17 -178 40 -213 51 -110 35 -256 60 -404 70 -79 5 -154
9 -168 8 -14 -1 -56 -3 -95 -5z m170 -103 c212 -19 422 -60 605 -119 52 -16
169 -46 260 -66 212 -47 389 -106 484 -161 86 -51 194 -146 202 -180 4 -16 -4
-41 -26 -79 -28 -48 -31 -60 -21 -81 6 -14 18 -27 26 -30 9 -4 15 -19 15 -40
0 -18 9 -56 20 -84 26 -65 25 -101 -1 -134 -29 -37 -49 -29 -145 65 -88 85
-116 96 -163 63 l-23 -16 42 -40 c63 -61 77 -111 36 -129 -18 -9 -40 -6 -100
10 -91 25 -110 26 -130 5 -26 -25 -19 -41 22 -48 20 -3 66 -20 102 -37 59 -28
71 -31 134 -25 68 5 69 5 102 -28 24 -24 34 -43 34 -64 0 -29 -4 -32 -77 -60
-177 -68 -286 -82 -354 -46 -19 10 -38 18 -44 19 -5 1 -18 5 -28 9 -30 14 -48
-14 -52 -84 -2 -37 -10 -69 -18 -78 -9 -8 -50 -18 -102 -23 -68 -7 -104 -17
-159 -43 -71 -35 -146 -89 -146 -107 0 -14 56 -11 109 6 25 8 93 24 151 36 58
12 121 30 141 40 36 18 89 72 89 89 0 5 29 7 65 3 84 -8 158 8 321 68 74 27
167 54 207 60 39 6 86 15 102 21 17 5 68 24 115 40 108 39 246 51 256 23 11
-27 -16 -68 -57 -88 -20 -9 -78 -26 -129 -38 -51 -11 -116 -30 -144 -43 -61
-27 -139 -57 -347 -130 -86 -31 -192 -72 -235 -92 -113 -51 -337 -105 -659
-159 -218 -36 -310 -55 -415 -90 -195 -63 -316 -79 -565 -72 -110 3 -303 17
-430 31 -126 14 -293 28 -370 31 -154 6 -248 20 -283 42 -43 26 -24 33 94 33
64 0 220 7 348 16 243 17 391 14 506 -11 40 -8 69 -10 75 -4 5 5 29 9 52 9 37
0 49 -6 79 -35 19 -19 38 -35 42 -35 15 1 40 27 66 70 16 25 35 51 44 58 26
20 69 15 89 -12 l19 -23 37 32 c38 33 99 55 226 80 41 9 94 24 118 35 37 16
43 22 38 42 -3 13 1 40 9 60 9 20 13 44 10 52 -3 8 -36 32 -72 52 l-67 36 -28
-33 c-24 -29 -26 -35 -12 -45 40 -29 -3 -58 -74 -48 -69 9 -94 1 -108 -36 -10
-28 -15 -30 -58 -30 -38 0 -48 -4 -52 -20 -8 -32 -49 -24 -117 21 -50 34 -67
40 -94 35 -78 -12 -74 -54 9 -83 50 -18 89 -45 89 -63 0 -19 -129 -22 -469
-11 -196 6 -398 8 -448 5 -78 -6 -93 -5 -93 8 0 33 -22 38 -53 12 -29 -25 -34
-25 -126 -19 -133 10 -136 13 -136 157 0 110 0 112 -26 127 -25 14 -29 13 -59
-12 -59 -50 -85 -31 -122 88 -46 147 -13 481 57 576 63 86 85 125 85 150 0 35
96 165 173 235 62 57 125 92 184 101 l38 6 -34 -39 c-19 -21 -85 -87 -146
-146 -118 -113 -167 -185 -180 -265 -6 -36 -4 -44 11 -50 11 -4 20 -1 23 8 4
12 28 37 83 84 12 10 18 24 15 36 -4 15 27 53 123 152 70 72 155 152 189 177
33 25 59 50 57 55 -1 6 -25 12 -51 15 l-49 5 119 57 c223 105 453 164 745 192
82 7 303 5 405 -4z m1655 -648 c12 -10 41 -54 63 -97 36 -68 47 -82 77 -91 21
-7 36 -19 38 -30 2 -11 14 -29 25 -42 17 -18 21 -34 19 -73 -2 -54 10 -89 32
-89 8 0 16 -12 19 -27 6 -35 4 -37 -21 -24 -32 17 -76 13 -148 -14 -86 -32
-134 -32 -171 -1 -15 13 -26 26 -23 28 3 1 27 14 54 28 68 34 74 47 47 102
-19 39 -21 59 -19 159 3 105 1 117 -20 152 -18 29 -20 37 -9 37 8 0 25 -8 37
-18z m460 -812 c0 -3 -15 -24 -34 -46 -41 -48 -121 -92 -236 -129 -47 -15
-110 -38 -140 -50 -30 -13 -89 -28 -130 -34 -83 -13 -115 -29 -133 -68 -10
-22 -8 -28 12 -44 30 -24 68 -24 126 1 51 22 95 26 95 9 0 -20 -23 -54 -80
-119 -71 -80 -90 -117 -90 -171 0 -38 -9 -55 -72 -138 -94 -125 -278 -308
-400 -399 -362 -271 -807 -428 -1274 -449 -136 -6 -185 -1 -282 29 -45 14 -30
28 29 28 55 0 83 11 93 35 12 33 -97 56 -183 39 -38 -8 -58 -38 -40 -60 10
-12 2 -14 -52 -14 -88 0 -121 11 -294 93 l-150 72 -116 0 c-111 0 -117 1 -158
29 -67 46 -178 186 -148 186 8 0 22 -9 32 -20 32 -35 83 -62 112 -58 22 2 29
9 31 31 2 19 -2 29 -15 34 -10 3 -40 24 -67 45 -65 51 -94 58 -118 28 -10 -13
-20 -21 -22 -19 -3 2 -19 58 -36 124 -64 245 -110 360 -177 442 l-34 42 53 31
c58 33 99 38 118 15 17 -21 3 -35 -36 -35 -38 0 -44 -14 -14 -30 16 -9 18 -15
10 -30 -5 -10 -10 -28 -10 -39 0 -37 145 -71 368 -86 l92 -7 0 26 c0 30 2 31
39 12 48 -25 127 -29 297 -16 171 14 191 22 141 55 -29 19 -69 20 -327 11
-247 -9 -383 0 -388 27 -3 15 6 17 76 17 43 0 170 9 283 21 226 23 369 21 479
-7 45 -12 106 -17 195 -17 143 0 227 15 483 83 280 74 338 83 547 85 l190 2
227 66 c398 116 708 228 958 345 93 44 108 48 137 39 18 -6 33 -13 33 -17z
m-2030 -115 c0 -20 -26 -32 -61 -27 -32 5 -40 28 -11 35 39 10 72 7 72 -8z
m-1786 -204 c61 -56 59 -61 -32 -61 -64 0 -128 15 -138 32 -11 18 66 75 103
77 7 1 37 -21 67 -48z"/>
<path d="M2530 3861 l-65 -6 29 -22 c26 -21 39 -23 152 -23 101 0 124 3 124
14 0 43 -65 52 -240 37z"/>
<path d="M1982 3784 c-60 -16 -103 -37 -148 -70 -64 -49 -140 -67 -370 -84
-187 -15 -285 -47 -329 -110 -12 -16 -55 -56 -98 -89 -86 -68 -105 -93 -114
-144 -5 -33 -3 -37 22 -43 41 -10 72 10 106 72 37 64 136 151 214 189 101 47
268 67 384 45 68 -13 107 3 175 73 49 50 55 53 166 82 158 41 271 42 350 2 46
-23 98 -34 330 -68 151 -22 283 -42 293 -45 12 -4 17 0 17 15 0 28 -9 32 -121
42 -117 11 -177 24 -358 79 -73 22 -166 46 -207 55 -90 19 -241 18 -312 -1z"/>
<path d="M3182 3688 c3 -7 27 -16 54 -19 140 -18 273 -86 406 -208 84 -77 147
-67 95 16 -60 95 -194 179 -332 208 -89 19 -228 20 -223 3z"/>
<path d="M2410 3424 c0 -15 219 -174 241 -174 5 0 9 11 9 24 0 29 -60 82 -135
119 -49 24 -115 42 -115 31z"/>
<path d="M3264 3367 c-3 -8 12 -32 33 -55 30 -33 46 -42 71 -42 27 0 32 4 32
23 0 15 -15 32 -48 55 -50 34 -79 40 -88 19z"/>
<path d="M2082 3263 c-16 -3 -22 -9 -18 -20 3 -8 6 -17 6 -19 0 -2 14 -4 32
-4 17 0 58 -5 90 -12 50 -10 60 -10 74 4 14 14 13 17 -12 37 -21 17 -39 21
-88 20 -33 -1 -71 -4 -84 -6z"/>
<path d="M1148 3209 c-61 -34 -148 -113 -276 -254 -78 -86 -82 -89 -97 -71
-26 34 -19 114 21 216 19 51 33 95 30 98 -11 11 -89 -33 -111 -62 -36 -48 -45
-99 -45 -254 l0 -143 45 -20 c26 -12 61 -19 81 -17 33 3 37 7 53 53 40 114
174 287 273 352 65 43 108 91 108 121 0 19 -20 14 -82 -19z"/>
<path d="M3080 3211 c0 -17 6 -21 33 -21 17 0 70 -14 117 -31 127 -46 173 -60
179 -53 3 3 -13 23 -35 44 -48 45 -114 68 -221 77 -70 6 -73 5 -73 -16z"/>
<path d="M2812 2904 c-51 -35 -14 -82 62 -78 49 2 76 20 76 50 0 21 -42 44
-80 44 -20 0 -46 -7 -58 -16z"/>
<path d="M3275 2860 c-10 -16 4 -49 25 -60 16 -9 21 -6 26 15 3 14 4 32 0 40
-6 17 -42 20 -51 5z"/>
<path d="M1290 2841 c-67 -14 -167 -83 -208 -144 -59 -88 -59 -87 -38 -102 18
-13 22 -11 55 27 19 23 71 65 116 93 88 58 141 108 131 124 -4 6 -10 10 -14
10 -4 -1 -23 -4 -42 -8z"/>
<path d="M2760 2680 c0 -21 4 -30 13 -27 6 2 12 14 12 27 0 13 -6 25 -12 28
-9 2 -13 -7 -13 -28z"/>
<path d="M2032 2608 c-20 -20 -14 -55 13 -72 52 -34 70 -10 39 52 -16 34 -32
40 -52 20z"/>
<path d="M3220 2598 c0 -7 4 -19 9 -27 11 -17 25 3 17 24 -7 18 -26 20 -26 3z"/>
<path d="M2770 2530 c0 -5 9 -10 20 -10 11 0 20 5 20 10 0 6 -9 10 -20 10 -11
0 -20 -4 -20 -10z"/>
<path d="M1580 2473 c-41 -7 -90 -12 -107 -9 -26 4 -35 0 -44 -15 -9 -17 -5
-22 34 -39 45 -20 181 -40 275 -40 39 0 52 -4 52 -15 0 -16 27 -20 49 -6 9 6
10 14 3 27 -7 14 -7 25 0 38 9 16 6 24 -21 48 -28 25 -38 28 -99 27 -37 -1
-101 -8 -142 -16z"/>
<path d="M3622 2125 c-40 -14 -100 -39 -133 -56 -121 -61 -31 -73 146 -20 119
36 155 53 173 82 11 18 8 19 -50 19 -40 0 -90 -10 -136 -25z"/>
<path d="M2880 1999 c-116 -13 -117 -14 -112 -49 3 -20 10 -30 22 -30 21 0
395 48 433 56 15 3 27 12 27 20 0 11 -26 14 -147 13 -82 -1 -182 -5 -223 -10z"/>
<path d="M2446 1866 l-209 -53 22 -22 c25 -25 20 -25 175 4 119 22 191 50 235
91 35 33 35 33 11 33 -14 0 -119 -24 -234 -53z"/>
<path d="M3289 1686 c-3 -3 -70 -17 -149 -31 -154 -28 -301 -72 -308 -92 -7
-22 118 -15 230 12 57 14 115 25 129 25 39 0 119 48 119 71 0 18 -11 25 -21
15z"/>
<path d="M3415 1471 c-83 -24 -234 -82 -241 -92 -12 -21 120 -3 236 31 78 22
95 32 111 62 8 15 6 18 -18 17 -15 0 -55 -8 -88 -18z"/>
<path d="M1292 1403 c6 -32 198 -85 198 -54 0 19 -52 50 -101 60 -73 16 -101
14 -97 -6z"/>
<path d="M2230 1333 c-25 -2 -101 -7 -170 -11 l-125 -7 45 -25 c39 -21 58 -25
140 -25 52 0 123 6 158 14 55 12 63 17 60 35 -3 23 -24 26 -108 19z"/>
<path d="M2890 1231 c-46 -15 -175 -74 -189 -87 -3 -3 0 -9 6 -15 13 -13 169
12 228 37 40 16 95 60 95 76 0 14 -83 8 -140 -11z"/>
</g>
</svg>
