<?xml version="1.0" standalone="no"?>
<!DOCTYPE svg PUBLIC "-//W3C//DTD SVG 20010904//EN"
 "http://www.w3.org/TR/2001/REC-SVG-20010904/DTD/svg10.dtd">
<svg version="1.0" xmlns="http://www.w3.org/2000/svg"
 width="944.000000pt" height="944.000000pt" viewBox="0 0 944.000000 944.000000"
 preserveAspectRatio="xMidYMid meet">

<g transform="translate(0.000000,944.000000) scale(0.100000,-0.100000)"
fill="#000000" stroke="none">
<path d="M4405 9429 c-928 -57 -1776 -373 -2533 -943 -597 -450 -1060 -1014
-1397 -1701 -223 -453 -352 -870 -424 -1365 -88 -605 -57 -1271 85 -1845 216
-868 727 -1725 1389 -2328 1013 -923 2302 -1351 3675 -1221 944 89 1822 461
2580 1093 224 187 513 492 706 746 213 280 447 685 588 1018 390 918 471 1991
226 2986 -232 942 -819 1872 -1568 2486 -953 779 -2097 1149 -3327 1074z m866
-1992 c71 -34 138 -93 177 -154 63 -98 62 -85 62 -975 l0 -808 838 -2 837 -3
58 -29 c75 -36 157 -118 193 -193 l29 -58 0 -495 0 -495 -27 -57 c-55 -118
-172 -207 -298 -227 -42 -7 -351 -11 -852 -11 l-788 0 -2 -837 -3 -838 -28
-58 c-40 -80 -112 -151 -194 -190 l-68 -32 -465 -3 c-450 -3 -467 -2 -531 18
-78 25 -149 77 -201 145 -77 102 -73 42 -76 968 l-3 827 -782 0 c-498 0 -806
4 -847 11 -126 20 -242 109 -299 229 l-26 55 0 495 0 495 26 55 c57 120 173
209 299 229 42 7 351 11 852 11 l788 0 2 838 3 837 28 58 c50 102 159 191 264
216 21 5 250 9 508 8 l470 -2 56 -28z"/>
</g>
</svg>
