<?xml version="1.0" standalone="no"?>
<!DOCTYPE svg PUBLIC "-//W3C//DTD SVG 20010904//EN"
 "http://www.w3.org/TR/2001/REC-SVG-20010904/DTD/svg10.dtd">
<svg version="1.0" xmlns="http://www.w3.org/2000/svg"
 width="1024.000000pt" height="1024.000000pt" viewBox="0 0 1024.000000 1024.000000"
 preserveAspectRatio="xMidYMid meet">

<g transform="translate(0.000000,1024.000000) scale(0.100000,-0.100000)"
fill="#000000" stroke="none">
<path d="M3764 10070 c-195 -21 -348 -71 -469 -151 -93 -62 -145 -122 -196
-224 -61 -124 -69 -178 -69 -505 0 -157 -3 -349 -7 -427 l-6 -143 -1309 0
-1308 0 0 -355 0 -355 4720 0 4720 0 0 355 0 355 -1295 0 -1295 0 0 428 c0
485 -4 514 -71 651 -73 148 -191 244 -377 307 -211 72 -127 68 -1622 70 -740
1 -1377 -2 -1416 -6z m1916 -644 c639 -3 667 -4 717 -24 73 -28 124 -71 159
-134 l29 -53 3 -297 3 -298 -1455 0 -1456 0 0 278 c0 220 3 289 15 330 29 97
119 185 205 200 25 5 286 7 580 5 294 -2 834 -5 1200 -7z"/>
<path d="M1640 4348 c0 -3404 -3 -3200 60 -3388 59 -178 146 -318 284 -456
182 -183 411 -297 671 -334 45 -6 935 -10 2480 -10 2643 0 2509 -3 2695 60
226 75 429 221 571 410 62 82 139 231 172 335 61 185 57 -31 57 3371 l0 3114
-349 0 -349 0 2 -3137 1 -3138 -23 -64 c-44 -121 -106 -187 -221 -233 l-56
-23 -2430 3 c-1609 1 -2454 6 -2500 13 -101 15 -177 52 -235 116 -59 65 -86
133 -100 251 -6 56 -10 1171 -10 3150 l0 3062 -360 0 -360 0 0 -3102z"/>
<path d="M3340 3953 c0 -1204 3 -2198 6 -2211 l6 -22 322 2 321 3 3 2208 2
2207 -330 0 -330 0 0 -2187z"/>
<path d="M4820 3968 c0 -1184 3 -2170 6 -2190 l7 -38 317 0 c281 0 319 2 324
16 3 9 6 994 6 2190 l0 2174 -330 0 -330 0 0 -2152z"/>
<path d="M6262 3933 l3 -2188 328 -3 327 -2 0 2190 0 2190 -330 0 -330 0 2
-2187z"/>
</g>
</svg>
